<svg width="48" height="48" viewBox="0 0 48 48" fill="none" xmlns="http://www.w3.org/2000/svg">
<circle cx="24" cy="24" r="24" fill="#8BC500" fill-opacity="0.15"/>
<path d="M10.5648 27.024V25.906L14.9328 19.64H16.7268V25.737H17.9358V27.024H16.7268V29H15.2708V27.024H10.5648ZM15.3358 21.148L12.2678 25.737H15.3358V21.148ZM19.1638 24.138C19.1638 22.6387 19.4151 21.4687 19.9178 20.628C20.4291 19.7787 21.3045 19.354 22.5438 19.354C23.7831 19.354 24.6541 19.7787 25.1568 20.628C25.6681 21.4687 25.9238 22.6387 25.9238 24.138C25.9238 25.6547 25.6681 26.842 25.1568 27.7C24.6541 28.5493 23.7831 28.974 22.5438 28.974C21.3045 28.974 20.4291 28.5493 19.9178 27.7C19.4151 26.842 19.1638 25.6547 19.1638 24.138ZM24.4678 24.138C24.4678 23.436 24.4201 22.8423 24.3248 22.357C24.2381 21.8717 24.0561 21.4773 23.7788 21.174C23.5015 20.862 23.0898 20.706 22.5438 20.706C21.9978 20.706 21.5861 20.862 21.3088 21.174C21.0315 21.4773 20.8451 21.8717 20.7498 22.357C20.6631 22.8423 20.6198 23.436 20.6198 24.138C20.6198 24.866 20.6631 25.477 20.7498 25.971C20.8365 26.465 21.0185 26.8637 21.2958 27.167C21.5818 27.4703 21.9978 27.622 22.5438 27.622C23.0898 27.622 23.5015 27.4703 23.7788 27.167C24.0648 26.8637 24.2511 26.465 24.3378 25.971C24.4245 25.477 24.4678 24.866 24.4678 24.138ZM27.2579 21.811C27.2579 21.1783 27.4399 20.6843 27.8039 20.329C28.1766 19.965 28.6532 19.783 29.2339 19.783C29.8146 19.783 30.2869 19.965 30.6509 20.329C31.0236 20.6843 31.2099 21.1783 31.2099 21.811C31.2099 22.4437 31.0236 22.942 30.6509 23.306C30.2869 23.67 29.8146 23.852 29.2339 23.852C28.6532 23.852 28.1766 23.67 27.8039 23.306C27.4399 22.942 27.2579 22.4437 27.2579 21.811ZM35.1879 19.952L30.0009 29H28.5449L33.7319 19.952H35.1879ZM29.2339 20.68C28.6879 20.68 28.4149 21.057 28.4149 21.811C28.4149 22.5737 28.6879 22.955 29.2339 22.955C29.4939 22.955 29.6932 22.864 29.8319 22.682C29.9792 22.4913 30.0529 22.201 30.0529 21.811C30.0529 21.057 29.7799 20.68 29.2339 20.68ZM32.5489 27.128C32.5489 26.4953 32.7309 26.0013 33.0949 25.646C33.4676 25.282 33.9442 25.1 34.5249 25.1C35.0969 25.1 35.5649 25.282 35.9289 25.646C36.3016 26.0013 36.4879 26.4953 36.4879 27.128C36.4879 27.7607 36.3016 28.259 35.9289 28.623C35.5649 28.987 35.0969 29.169 34.5249 29.169C33.9442 29.169 33.4676 28.987 33.0949 28.623C32.7309 28.259 32.5489 27.7607 32.5489 27.128ZM34.5119 25.997C33.9659 25.997 33.6929 26.374 33.6929 27.128C33.6929 27.882 33.9659 28.259 34.5119 28.259C35.0579 28.259 35.3309 27.882 35.3309 27.128C35.3309 26.374 35.0579 25.997 34.5119 25.997Z" fill="#121931"/>
<path d="M24 0.999999C24 0.447714 24.448 -0.00217516 24.9998 0.020824C29.7153 0.217367 34.2766 1.80077 38.1068 4.58359C42.2072 7.56267 45.2592 11.7634 46.8254 16.5836C48.3915 21.4038 48.3915 26.5962 46.8254 31.4164C45.3623 35.9191 42.6028 39.8812 38.9034 42.8119C38.4705 43.1549 37.8437 43.0542 37.5191 42.6074L35.8733 40.3421C35.5486 39.8953 35.6496 39.2719 36.0789 38.9245C38.96 36.5928 41.1105 33.4717 42.2603 29.9331C43.5132 26.0769 43.5132 21.9231 42.2603 18.0669C41.0073 14.2107 38.5658 10.8501 35.2855 8.46687C32.2754 6.27995 28.701 5.01895 24.9996 4.82603C24.4481 4.79728 24 4.35228 24 3.8L24 0.999999Z" fill="#8BC500"/>
</svg>
