<svg width="48" height="48" viewBox="0 0 48 48" fill="none" xmlns="http://www.w3.org/2000/svg">
<circle cx="24" cy="24" r="24" fill="#2965F1" fill-opacity="0.15"/>
<path d="M12.6944 26.426C12.781 26.8593 12.9674 27.1887 13.2534 27.414C13.5394 27.6393 13.925 27.752 14.4104 27.752C15.0257 27.752 15.4764 27.5093 15.7624 27.024C16.0484 26.5387 16.1914 25.711 16.1914 24.541C15.9834 24.8357 15.6887 25.0653 15.3074 25.23C14.9347 25.386 14.5274 25.464 14.0854 25.464C13.522 25.464 13.0107 25.3513 12.5514 25.126C12.092 24.892 11.728 24.5497 11.4594 24.099C11.1994 23.6397 11.0694 23.085 11.0694 22.435C11.0694 21.4817 11.3467 20.7233 11.9014 20.16C12.4647 19.588 13.236 19.302 14.2154 19.302C15.394 19.302 16.2304 19.6963 16.7244 20.485C17.227 21.265 17.4784 22.4653 17.4784 24.086C17.4784 25.204 17.383 26.1183 17.1924 26.829C17.0104 27.5397 16.6897 28.077 16.2304 28.441C15.771 28.805 15.134 28.987 14.3194 28.987C13.392 28.987 12.677 28.7443 12.1744 28.259C11.6717 27.7737 11.39 27.1627 11.3294 26.426H12.6944ZM14.3454 24.216C14.8654 24.216 15.2727 24.0557 15.5674 23.735C15.8707 23.4057 16.0224 22.9723 16.0224 22.435C16.0224 21.837 15.862 21.3733 15.5414 21.044C15.2294 20.706 14.8004 20.537 14.2544 20.537C13.7084 20.537 13.275 20.7103 12.9544 21.057C12.6424 21.395 12.4864 21.8413 12.4864 22.396C12.4864 22.9247 12.638 23.3623 12.9414 23.709C13.2534 24.047 13.7214 24.216 14.3454 24.216ZM20.6993 24.047C19.798 23.5963 19.3473 22.8857 19.3473 21.915C19.3473 21.447 19.4643 21.018 19.6983 20.628C19.9323 20.238 20.2833 19.9303 20.7513 19.705C21.2193 19.471 21.7913 19.354 22.4673 19.354C23.1346 19.354 23.7023 19.471 24.1703 19.705C24.647 19.9303 25.0023 20.238 25.2363 20.628C25.4703 21.018 25.5873 21.447 25.5873 21.915C25.5873 22.4003 25.4616 22.8293 25.2103 23.202C24.9676 23.566 24.6426 23.8477 24.2353 24.047C24.7293 24.229 25.1193 24.528 25.4053 24.944C25.6913 25.3513 25.8343 25.8323 25.8343 26.387C25.8343 26.9503 25.6913 27.4487 25.4053 27.882C25.1193 28.3153 24.7206 28.649 24.2093 28.883C23.698 29.117 23.1173 29.234 22.4673 29.234C21.8173 29.234 21.2366 29.117 20.7253 28.883C20.2226 28.649 19.8283 28.3153 19.5423 27.882C19.2563 27.4487 19.1133 26.9503 19.1133 26.387C19.1133 25.8237 19.2563 25.3383 19.5423 24.931C19.8283 24.5237 20.214 24.229 20.6993 24.047ZM24.1703 22.097C24.1703 21.6117 24.0186 21.239 23.7153 20.979C23.412 20.719 22.996 20.589 22.4673 20.589C21.9473 20.589 21.5356 20.719 21.2323 20.979C20.929 21.239 20.7773 21.616 20.7773 22.11C20.7773 22.5433 20.9333 22.8987 21.2453 23.176C21.566 23.4447 21.9733 23.579 22.4673 23.579C22.9613 23.579 23.3686 23.4403 23.6893 23.163C24.01 22.8857 24.1703 22.5303 24.1703 22.097ZM22.4673 24.697C21.8953 24.697 21.4273 24.84 21.0633 25.126C20.708 25.4033 20.5303 25.8063 20.5303 26.335C20.5303 26.829 20.7036 27.232 21.0503 27.544C21.397 27.8473 21.8693 27.999 22.4673 27.999C23.0566 27.999 23.5203 27.843 23.8583 27.531C24.205 27.219 24.3783 26.8203 24.3783 26.335C24.3783 25.815 24.2006 25.412 23.8453 25.126C23.4986 24.84 23.0393 24.697 22.4673 24.697ZM27.1564 21.811C27.1564 21.1783 27.3384 20.6843 27.7024 20.329C28.075 19.965 28.5517 19.783 29.1324 19.783C29.713 19.783 30.1854 19.965 30.5494 20.329C30.922 20.6843 31.1084 21.1783 31.1084 21.811C31.1084 22.4437 30.922 22.942 30.5494 23.306C30.1854 23.67 29.713 23.852 29.1324 23.852C28.5517 23.852 28.075 23.67 27.7024 23.306C27.3384 22.942 27.1564 22.4437 27.1564 21.811ZM35.0864 19.952L29.8994 29H28.4434L33.6304 19.952H35.0864ZM29.1324 20.68C28.5864 20.68 28.3134 21.057 28.3134 21.811C28.3134 22.5737 28.5864 22.955 29.1324 22.955C29.3924 22.955 29.5917 22.864 29.7304 22.682C29.8777 22.4913 29.9514 22.201 29.9514 21.811C29.9514 21.057 29.6784 20.68 29.1324 20.68ZM32.4474 27.128C32.4474 26.4953 32.6294 26.0013 32.9934 25.646C33.366 25.282 33.8427 25.1 34.4234 25.1C34.9954 25.1 35.4634 25.282 35.8274 25.646C36.2 26.0013 36.3864 26.4953 36.3864 27.128C36.3864 27.7607 36.2 28.259 35.8274 28.623C35.4634 28.987 34.9954 29.169 34.4234 29.169C33.8427 29.169 33.366 28.987 32.9934 28.623C32.6294 28.259 32.4474 27.7607 32.4474 27.128ZM34.4104 25.997C33.8644 25.997 33.5914 26.374 33.5914 27.128C33.5914 27.882 33.8644 28.259 34.4104 28.259C34.9564 28.259 35.2294 27.882 35.2294 27.128C35.2294 26.374 34.9564 25.997 34.4104 25.997Z" fill="#121931"/>
<path d="M24 0.999999C24 0.447714 24.4481 -0.0021738 24.9999 0.0208167C30.8722 0.265483 36.4645 2.65866 40.7019 6.76497C45.1792 11.1038 47.7923 17.0146 47.9882 23.2461C48.184 29.4777 45.9471 35.541 41.7511 40.1523C37.5551 44.7637 31.7293 47.5612 25.507 47.9526C19.2846 48.3441 13.1541 46.2988 8.41324 42.2497C3.67237 38.2006 0.693242 32.4656 0.106512 26.2586C-0.480219 20.0516 1.3715 13.8599 5.26968 8.99417C8.95899 4.38916 14.2073 1.31395 20.0026 0.335213C20.5472 0.243245 21.0481 0.63343 21.1173 1.18136L21.4683 3.95928C21.5375 4.50721 21.1487 5.00486 20.6051 5.10249C16.047 5.92118 11.9253 8.36357 9.01574 11.9953C5.8972 15.8879 4.41582 20.8413 4.88521 25.8069C5.35459 30.7725 7.73789 35.3605 11.5306 38.5998C15.3233 41.8391 20.2277 43.4753 25.2056 43.1621C30.1835 42.8489 34.8441 40.6109 38.2009 36.9218C41.5577 33.2328 43.3472 28.3822 43.1905 23.3969C43.0339 18.4116 40.9433 13.683 37.3615 10.212C34.0197 6.97352 29.6244 5.06697 24.9996 4.82602C24.4481 4.79728 24 4.35228 24 3.8L24 0.999999Z" fill="#2965F1"/>
</svg>
