<svg width="48" height="48" viewBox="0 0 48 48" fill="none" xmlns="http://www.w3.org/2000/svg">
<circle cx="24" cy="24" r="24" fill="#007FFF" fill-opacity="0.15"/>
<path d="M15.8936 21.72C15.7982 21.3213 15.6249 21.0223 15.3736 20.823C15.1222 20.6237 14.7712 20.524 14.3206 20.524C13.6359 20.524 13.1246 20.7883 12.7866 21.317C12.4486 21.837 12.2709 22.7037 12.2536 23.917C12.4789 23.5357 12.8082 23.241 13.2416 23.033C13.6749 22.825 14.1429 22.721 14.6456 22.721C15.2176 22.721 15.7202 22.8467 16.1536 23.098C16.5956 23.3407 16.9379 23.696 17.1806 24.164C17.4319 24.632 17.5576 25.191 17.5576 25.841C17.5576 26.4477 17.4362 26.9893 17.1936 27.466C16.9596 27.9427 16.6086 28.3197 16.1406 28.597C15.6726 28.8657 15.1092 29 14.4506 29C13.5579 29 12.8559 28.805 12.3446 28.415C11.8419 28.0163 11.4866 27.4573 11.2786 26.738C11.0792 26.0187 10.9796 25.1217 10.9796 24.047C10.9796 20.875 12.0976 19.289 14.3336 19.289C15.2002 19.289 15.8806 19.523 16.3746 19.991C16.8772 20.459 17.1719 21.0353 17.2586 21.72H15.8936ZM14.3206 23.969C13.7919 23.969 13.3412 24.1293 12.9686 24.45C12.6046 24.762 12.4226 25.217 12.4226 25.815C12.4226 26.413 12.5916 26.8897 12.9296 27.245C13.2762 27.5917 13.7572 27.765 14.3726 27.765C14.9186 27.765 15.3476 27.596 15.6596 27.258C15.9802 26.92 16.1406 26.4693 16.1406 25.906C16.1406 25.3167 15.9846 24.8487 15.6726 24.502C15.3692 24.1467 14.9186 23.969 14.3206 23.969ZM25.2484 20.797H20.8934V23.384C21.0754 23.1413 21.3441 22.9377 21.6994 22.773C22.0634 22.6083 22.4491 22.526 22.8564 22.526C23.5844 22.526 24.1737 22.682 24.6244 22.994C25.0837 23.306 25.4087 23.7003 25.5994 24.177C25.7987 24.6537 25.8984 25.1563 25.8984 25.685C25.8984 26.3263 25.7727 26.8983 25.5214 27.401C25.2787 27.895 24.9104 28.285 24.4164 28.571C23.9311 28.857 23.3331 29 22.6224 29C21.6777 29 20.9194 28.766 20.3474 28.298C19.7754 27.83 19.4331 27.2103 19.3204 26.439H20.7634C20.8587 26.8463 21.0711 27.1713 21.4004 27.414C21.7297 27.648 22.1414 27.765 22.6354 27.765C23.2507 27.765 23.7101 27.5787 24.0134 27.206C24.3254 26.8333 24.4814 26.3393 24.4814 25.724C24.4814 25.1 24.3254 24.6233 24.0134 24.294C23.7014 23.956 23.2421 23.787 22.6354 23.787C22.2107 23.787 21.8511 23.8953 21.5564 24.112C21.2704 24.32 21.0624 24.606 20.9324 24.97H19.5284V19.497H25.2484V20.797ZM27.2071 21.811C27.2071 21.1783 27.3891 20.6843 27.7531 20.329C28.1258 19.965 28.6025 19.783 29.1831 19.783C29.7638 19.783 30.2361 19.965 30.6001 20.329C30.9728 20.6843 31.1591 21.1783 31.1591 21.811C31.1591 22.4437 30.9728 22.942 30.6001 23.306C30.2361 23.67 29.7638 23.852 29.1831 23.852C28.6025 23.852 28.1258 23.67 27.7531 23.306C27.3891 22.942 27.2071 22.4437 27.2071 21.811ZM35.1371 19.952L29.9501 29H28.4941L33.6811 19.952H35.1371ZM29.1831 20.68C28.6371 20.68 28.3641 21.057 28.3641 21.811C28.3641 22.5737 28.6371 22.955 29.1831 22.955C29.4431 22.955 29.6425 22.864 29.7811 22.682C29.9285 22.4913 30.0021 22.201 30.0021 21.811C30.0021 21.057 29.7291 20.68 29.1831 20.68ZM32.4981 27.128C32.4981 26.4953 32.6801 26.0013 33.0441 25.646C33.4168 25.282 33.8935 25.1 34.4741 25.1C35.0461 25.1 35.5141 25.282 35.8781 25.646C36.2508 26.0013 36.4371 26.4953 36.4371 27.128C36.4371 27.7607 36.2508 28.259 35.8781 28.623C35.5141 28.987 35.0461 29.169 34.4741 29.169C33.8935 29.169 33.4168 28.987 33.0441 28.623C32.6801 28.259 32.4981 27.7607 32.4981 27.128ZM34.4611 25.997C33.9151 25.997 33.6421 26.374 33.6421 27.128C33.6421 27.882 33.9151 28.259 34.4611 28.259C35.0071 28.259 35.2801 27.882 35.2801 27.128C35.2801 26.374 35.0071 25.997 34.4611 25.997Z" fill="#121931"/>
<path d="M24 0.999999C24 0.447714 24.448 -0.00217461 24.9998 0.0208292C28.7598 0.177577 32.4353 1.21672 35.7269 3.0601C39.3097 5.06657 42.3178 7.95876 44.4634 11.46C46.6089 14.9613 47.8203 18.9545 47.9815 23.0578C48.1427 27.161 47.2484 31.2369 45.3842 34.8958C43.5199 38.5546 40.748 41.6739 37.3337 43.9553C33.9193 46.2367 29.9768 47.6038 25.883 47.926C21.7893 48.2482 17.6814 47.5146 13.9522 45.7954C10.5261 44.216 7.52498 41.8532 5.18809 38.9034C4.84514 38.4705 4.9458 37.8437 5.39261 37.5191L7.65786 35.8733C8.10467 35.5486 8.72803 35.6496 9.07548 36.0789C10.9265 38.366 13.2816 40.2008 15.9617 41.4364C18.9451 42.8117 22.2314 43.3986 25.5064 43.1408C28.7814 42.8831 31.9355 41.7893 34.667 39.9642C37.3984 38.1391 39.6159 35.6437 41.1073 32.7166C42.5987 29.7896 43.3142 26.5288 43.1852 23.2462C43.0562 19.9636 42.0872 16.769 40.3707 13.968C38.6542 11.167 36.2478 8.85325 33.3815 7.24808C30.8066 5.80604 27.9379 4.9792 24.9996 4.82603C24.448 4.79728 24 4.35228 24 3.8L24 0.999999Z" fill="#007FFF"/>
</svg>
