<svg width="48" height="48" viewBox="0 0 48 48" fill="none" xmlns="http://www.w3.org/2000/svg">
<circle cx="24" cy="24" r="24" fill="#F7DF1E" fill-opacity="0.15"/>
<path d="M12.422 24.047C11.5206 23.5963 11.07 22.8857 11.07 21.915C11.07 21.447 11.187 21.018 11.421 20.628C11.655 20.238 12.006 19.9303 12.474 19.705C12.942 19.471 13.514 19.354 14.19 19.354C14.8573 19.354 15.425 19.471 15.893 19.705C16.3696 19.9303 16.725 20.238 16.959 20.628C17.193 21.018 17.31 21.447 17.31 21.915C17.31 22.4003 17.1843 22.8293 16.933 23.202C16.6903 23.566 16.3653 23.8477 15.958 24.047C16.452 24.229 16.842 24.528 17.128 24.944C17.414 25.3513 17.557 25.8323 17.557 26.387C17.557 26.9503 17.414 27.4487 17.128 27.882C16.842 28.3153 16.4433 28.649 15.932 28.883C15.4206 29.117 14.84 29.234 14.19 29.234C13.54 29.234 12.9593 29.117 12.448 28.883C11.9453 28.649 11.551 28.3153 11.265 27.882C10.979 27.4487 10.836 26.9503 10.836 26.387C10.836 25.8237 10.979 25.3383 11.265 24.931C11.551 24.5237 11.9366 24.229 12.422 24.047ZM15.893 22.097C15.893 21.6117 15.7413 21.239 15.438 20.979C15.1346 20.719 14.7186 20.589 14.19 20.589C13.67 20.589 13.2583 20.719 12.955 20.979C12.6516 21.239 12.5 21.616 12.5 22.11C12.5 22.5433 12.656 22.8987 12.968 23.176C13.2886 23.4447 13.696 23.579 14.19 23.579C14.684 23.579 15.0913 23.4403 15.412 23.163C15.7326 22.8857 15.893 22.5303 15.893 22.097ZM14.19 24.697C13.618 24.697 13.15 24.84 12.786 25.126C12.4306 25.4033 12.253 25.8063 12.253 26.335C12.253 26.829 12.4263 27.232 12.773 27.544C13.1196 27.8473 13.592 27.999 14.19 27.999C14.7793 27.999 15.243 27.843 15.581 27.531C15.9276 27.219 16.101 26.8203 16.101 26.335C16.101 25.815 15.9233 25.412 15.568 25.126C15.2213 24.84 14.762 24.697 14.19 24.697ZM25.223 20.797H20.868V23.384C21.05 23.1413 21.3187 22.9377 21.674 22.773C22.038 22.6083 22.4237 22.526 22.831 22.526C23.559 22.526 24.1483 22.682 24.599 22.994C25.0583 23.306 25.3833 23.7003 25.574 24.177C25.7733 24.6537 25.873 25.1563 25.873 25.685C25.873 26.3263 25.7473 26.8983 25.496 27.401C25.2533 27.895 24.885 28.285 24.391 28.571C23.9057 28.857 23.3077 29 22.597 29C21.6523 29 20.894 28.766 20.322 28.298C19.75 27.83 19.4077 27.2103 19.295 26.439H20.738C20.8333 26.8463 21.0457 27.1713 21.375 27.414C21.7043 27.648 22.116 27.765 22.61 27.765C23.2253 27.765 23.6847 27.5787 23.988 27.206C24.3 26.8333 24.456 26.3393 24.456 25.724C24.456 25.1 24.3 24.6233 23.988 24.294C23.676 23.956 23.2167 23.787 22.61 23.787C22.1853 23.787 21.8257 23.8953 21.531 24.112C21.245 24.32 21.037 24.606 20.907 24.97H19.503V19.497H25.223V20.797ZM27.1817 21.811C27.1817 21.1783 27.3637 20.6843 27.7277 20.329C28.1004 19.965 28.5771 19.783 29.1577 19.783C29.7384 19.783 30.2107 19.965 30.5747 20.329C30.9474 20.6843 31.1337 21.1783 31.1337 21.811C31.1337 22.4437 30.9474 22.942 30.5747 23.306C30.2107 23.67 29.7384 23.852 29.1577 23.852C28.5771 23.852 28.1004 23.67 27.7277 23.306C27.3637 22.942 27.1817 22.4437 27.1817 21.811ZM35.1117 19.952L29.9247 29H28.4687L33.6557 19.952H35.1117ZM29.1577 20.68C28.6117 20.68 28.3387 21.057 28.3387 21.811C28.3387 22.5737 28.6117 22.955 29.1577 22.955C29.4177 22.955 29.6171 22.864 29.7557 22.682C29.9031 22.4913 29.9767 22.201 29.9767 21.811C29.9767 21.057 29.7037 20.68 29.1577 20.68ZM32.4727 27.128C32.4727 26.4953 32.6547 26.0013 33.0187 25.646C33.3914 25.282 33.8681 25.1 34.4487 25.1C35.0207 25.1 35.4887 25.282 35.8527 25.646C36.2254 26.0013 36.4117 26.4953 36.4117 27.128C36.4117 27.7607 36.2254 28.259 35.8527 28.623C35.4887 28.987 35.0207 29.169 34.4487 29.169C33.8681 29.169 33.3914 28.987 33.0187 28.623C32.6547 28.259 32.4727 27.7607 32.4727 27.128ZM34.4357 25.997C33.8897 25.997 33.6167 26.374 33.6167 27.128C33.6167 27.882 33.8897 28.259 34.4357 28.259C34.9817 28.259 35.2547 27.882 35.2547 27.128C35.2547 26.374 34.9817 25.997 34.4357 25.997Z" fill="#121931"/>
<path d="M24 0.999999C24 0.447714 24.4479 -0.00217573 24.9997 0.0208206C30.0354 0.230681 34.887 2.02167 38.8583 5.15239C43.0918 8.48984 46.0784 13.1554 47.3369 18.3973C48.5953 23.6392 48.0524 29.1522 45.7954 34.0478C43.5385 38.9435 39.6991 42.9368 34.8958 45.3842C30.0925 47.8316 24.6051 48.5906 19.3178 47.5388C14.0306 46.4871 9.25133 43.686 5.75025 39.5867C2.24917 35.4875 0.230146 30.3289 0.0185029 24.9422C-0.18003 19.8892 1.2227 14.9115 4.01281 10.7142C4.31855 10.2543 4.94581 10.1563 5.39261 10.4809L7.65786 12.1267C8.10467 12.4514 8.20129 13.0754 7.90036 13.5385C5.74137 16.861 4.6586 20.7782 4.8148 24.7538C4.98412 29.0631 6.59934 33.19 9.4002 36.4694C12.2011 39.7488 16.0244 41.9897 20.2543 42.8311C24.4841 43.6724 28.874 43.0652 32.7166 41.1073C36.5592 39.1494 39.6308 35.9548 41.4363 32.0383C43.2419 28.1217 43.6763 23.7114 42.6695 19.5179C41.6627 15.3243 39.2734 11.5919 35.8866 8.92191C32.7621 6.45878 28.9566 5.03225 24.9996 4.82603C24.4481 4.79728 24 4.35228 24 3.8L24 0.999999Z" fill="#F7DF1E"/>
</svg>
