<svg width="48" height="48" viewBox="0 0 48 48" fill="none" xmlns="http://www.w3.org/2000/svg">
<circle cx="24" cy="24" r="24" fill="#0868AB" fill-opacity="0.15"/>
<path d="M12.4093 24.047C11.5079 23.5963 11.0573 22.8857 11.0573 21.915C11.0573 21.447 11.1743 21.018 11.4083 20.628C11.6423 20.238 11.9933 19.9303 12.4613 19.705C12.9293 19.471 13.5013 19.354 14.1773 19.354C14.8446 19.354 15.4123 19.471 15.8803 19.705C16.3569 19.9303 16.7123 20.238 16.9463 20.628C17.1803 21.018 17.2973 21.447 17.2973 21.915C17.2973 22.4003 17.1716 22.8293 16.9203 23.202C16.6776 23.566 16.3526 23.8477 15.9453 24.047C16.4393 24.229 16.8293 24.528 17.1153 24.944C17.4013 25.3513 17.5443 25.8323 17.5443 26.387C17.5443 26.9503 17.4013 27.4487 17.1153 27.882C16.8293 28.3153 16.4306 28.649 15.9193 28.883C15.4079 29.117 14.8273 29.234 14.1773 29.234C13.5273 29.234 12.9466 29.117 12.4353 28.883C11.9326 28.649 11.5383 28.3153 11.2523 27.882C10.9663 27.4487 10.8233 26.9503 10.8233 26.387C10.8233 25.8237 10.9663 25.3383 11.2523 24.931C11.5383 24.5237 11.9239 24.229 12.4093 24.047ZM15.8803 22.097C15.8803 21.6117 15.7286 21.239 15.4253 20.979C15.1219 20.719 14.7059 20.589 14.1773 20.589C13.6573 20.589 13.2456 20.719 12.9423 20.979C12.6389 21.239 12.4873 21.616 12.4873 22.11C12.4873 22.5433 12.6433 22.8987 12.9553 23.176C13.2759 23.4447 13.6833 23.579 14.1773 23.579C14.6713 23.579 15.0786 23.4403 15.3993 23.163C15.7199 22.8857 15.8803 22.5303 15.8803 22.097ZM14.1773 24.697C13.6053 24.697 13.1373 24.84 12.7733 25.126C12.4179 25.4033 12.2403 25.8063 12.2403 26.335C12.2403 26.829 12.4136 27.232 12.7603 27.544C13.1069 27.8473 13.5793 27.999 14.1773 27.999C14.7666 27.999 15.2303 27.843 15.5683 27.531C15.9149 27.219 16.0883 26.8203 16.0883 26.335C16.0883 25.815 15.9106 25.412 15.5553 25.126C15.2086 24.84 14.7493 24.697 14.1773 24.697ZM19.1003 24.138C19.1003 22.6387 19.3516 21.4687 19.8543 20.628C20.3656 19.7787 21.241 19.354 22.4803 19.354C23.7196 19.354 24.5906 19.7787 25.0933 20.628C25.6046 21.4687 25.8603 22.6387 25.8603 24.138C25.8603 25.6547 25.6046 26.842 25.0933 27.7C24.5906 28.5493 23.7196 28.974 22.4803 28.974C21.241 28.974 20.3656 28.5493 19.8543 27.7C19.3516 26.842 19.1003 25.6547 19.1003 24.138ZM24.4043 24.138C24.4043 23.436 24.3566 22.8423 24.2613 22.357C24.1746 21.8717 23.9926 21.4773 23.7153 21.174C23.438 20.862 23.0263 20.706 22.4803 20.706C21.9343 20.706 21.5226 20.862 21.2453 21.174C20.968 21.4773 20.7816 21.8717 20.6863 22.357C20.5996 22.8423 20.5563 23.436 20.5563 24.138C20.5563 24.866 20.5996 25.477 20.6863 25.971C20.773 26.465 20.955 26.8637 21.2323 27.167C21.5183 27.4703 21.9343 27.622 22.4803 27.622C23.0263 27.622 23.438 27.4703 23.7153 27.167C24.0013 26.8637 24.1876 26.465 24.2743 25.971C24.361 25.477 24.4043 24.866 24.4043 24.138ZM27.1944 21.811C27.1944 21.1783 27.3764 20.6843 27.7404 20.329C28.1131 19.965 28.5898 19.783 29.1704 19.783C29.7511 19.783 30.2234 19.965 30.5874 20.329C30.9601 20.6843 31.1464 21.1783 31.1464 21.811C31.1464 22.4437 30.9601 22.942 30.5874 23.306C30.2234 23.67 29.7511 23.852 29.1704 23.852C28.5898 23.852 28.1131 23.67 27.7404 23.306C27.3764 22.942 27.1944 22.4437 27.1944 21.811ZM35.1244 19.952L29.9374 29H28.4814L33.6684 19.952H35.1244ZM29.1704 20.68C28.6244 20.68 28.3514 21.057 28.3514 21.811C28.3514 22.5737 28.6244 22.955 29.1704 22.955C29.4304 22.955 29.6298 22.864 29.7684 22.682C29.9158 22.4913 29.9894 22.201 29.9894 21.811C29.9894 21.057 29.7164 20.68 29.1704 20.68ZM32.4854 27.128C32.4854 26.4953 32.6674 26.0013 33.0314 25.646C33.4041 25.282 33.8808 25.1 34.4614 25.1C35.0334 25.1 35.5014 25.282 35.8654 25.646C36.2381 26.0013 36.4244 26.4953 36.4244 27.128C36.4244 27.7607 36.2381 28.259 35.8654 28.623C35.5014 28.987 35.0334 29.169 34.4614 29.169C33.8808 29.169 33.4041 28.987 33.0314 28.623C32.6674 28.259 32.4854 27.7607 32.4854 27.128ZM34.4484 25.997C33.9024 25.997 33.6294 26.374 33.6294 27.128C33.6294 27.882 33.9024 28.259 34.4484 28.259C34.9944 28.259 35.2674 27.882 35.2674 27.128C35.2674 26.374 34.9944 25.997 34.4484 25.997Z" fill="#121931"/>
<path d="M24 0.999999C24 0.447714 24.448 -0.00217516 24.9998 0.020824C29.7153 0.217367 34.2766 1.80077 38.1068 4.58359C42.2072 7.56267 45.2592 11.7634 46.8254 16.5836C48.3915 21.4038 48.3915 26.5962 46.8254 31.4164C45.2592 36.2367 42.2072 40.4373 38.1068 43.4164C34.0065 46.3955 29.0683 48 24 48C18.9317 48 13.9935 46.3955 9.89315 43.4164C5.79281 40.4373 2.74083 36.2366 1.17464 31.4164C-0.288372 26.9137 -0.384751 22.0863 0.885507 17.5409C1.03415 17.0089 1.60045 16.7219 2.1257 16.8926L4.78866 17.7579C5.31391 17.9285 5.59867 18.4922 5.45557 19.0256C4.49526 22.6054 4.58998 26.3946 5.73971 29.9331C6.99267 33.7893 9.43425 37.1499 12.7145 39.5331C15.9948 41.9164 19.9454 43.2 24 43.2C28.0546 43.2 32.0052 41.9164 35.2855 39.5331C38.5658 37.1499 41.0073 33.7893 42.2603 29.9331C43.5132 26.0769 43.5132 21.9231 42.2603 18.0669C41.0073 14.2107 38.5658 10.8501 35.2855 8.46687C32.2754 6.27995 28.701 5.01895 24.9996 4.82603C24.4481 4.79728 24 4.35228 24 3.8L24 0.999999Z" fill="#0868AB"/>
</svg>
