<svg width="48" height="48" viewBox="0 0 48 48" fill="none" xmlns="http://www.w3.org/2000/svg">
<circle cx="24" cy="24" r="24" fill="#34495E" fill-opacity="0.15"/>
<path d="M14.9553 24.138C14.9553 22.6387 15.2066 21.4687 15.7093 20.628C16.2206 19.7787 17.096 19.354 18.3353 19.354C19.5746 19.354 20.4456 19.7787 20.9483 20.628C21.4596 21.4687 21.7153 22.6387 21.7153 24.138C21.7153 25.6547 21.4596 26.842 20.9483 27.7C20.4456 28.5493 19.5746 28.974 18.3353 28.974C17.096 28.974 16.2206 28.5493 15.7093 27.7C15.2066 26.842 14.9553 25.6547 14.9553 24.138ZM20.2593 24.138C20.2593 23.436 20.2116 22.8423 20.1163 22.357C20.0296 21.8717 19.8476 21.4773 19.5703 21.174C19.293 20.862 18.8813 20.706 18.3353 20.706C17.7893 20.706 17.3776 20.862 17.1003 21.174C16.823 21.4773 16.6366 21.8717 16.5413 22.357C16.4546 22.8423 16.4113 23.436 16.4113 24.138C16.4113 24.866 16.4546 25.477 16.5413 25.971C16.628 26.465 16.81 26.8637 17.0873 27.167C17.3733 27.4703 17.7893 27.622 18.3353 27.622C18.8813 27.622 19.293 27.4703 19.5703 27.167C19.8563 26.8637 20.0426 26.465 20.1293 25.971C20.216 25.477 20.2593 24.866 20.2593 24.138ZM23.0494 21.811C23.0494 21.1783 23.2314 20.6843 23.5954 20.329C23.9681 19.965 24.4448 19.783 25.0254 19.783C25.6061 19.783 26.0784 19.965 26.4424 20.329C26.8151 20.6843 27.0014 21.1783 27.0014 21.811C27.0014 22.4437 26.8151 22.942 26.4424 23.306C26.0784 23.67 25.6061 23.852 25.0254 23.852C24.4448 23.852 23.9681 23.67 23.5954 23.306C23.2314 22.942 23.0494 22.4437 23.0494 21.811ZM30.9794 19.952L25.7924 29H24.3364L29.5234 19.952H30.9794ZM25.0254 20.68C24.4794 20.68 24.2064 21.057 24.2064 21.811C24.2064 22.5737 24.4794 22.955 25.0254 22.955C25.2854 22.955 25.4848 22.864 25.6234 22.682C25.7708 22.4913 25.8444 22.201 25.8444 21.811C25.8444 21.057 25.5714 20.68 25.0254 20.68ZM28.3404 27.128C28.3404 26.4953 28.5224 26.0013 28.8864 25.646C29.2591 25.282 29.7358 25.1 30.3164 25.1C30.8884 25.1 31.3564 25.282 31.7204 25.646C32.0931 26.0013 32.2794 26.4953 32.2794 27.128C32.2794 27.7607 32.0931 28.259 31.7204 28.623C31.3564 28.987 30.8884 29.169 30.3164 29.169C29.7358 29.169 29.2591 28.987 28.8864 28.623C28.5224 28.259 28.3404 27.7607 28.3404 27.128ZM30.3034 25.997C29.7574 25.997 29.4844 26.374 29.4844 27.128C29.4844 27.882 29.7574 28.259 30.3034 28.259C30.8494 28.259 31.1224 27.882 31.1224 27.128C31.1224 26.374 30.8494 25.997 30.3034 25.997Z" fill="#121931"/>
</svg>
