<svg width="275" height="357" viewBox="0 0 275 357" fill="none" xmlns="http://www.w3.org/2000/svg">
<path fill-rule="evenodd" clip-rule="evenodd" d="M6.05032 1.84387C10.9032 6.80534 19.0165 22.5975 26.8545 42.3394C33.8154 59.8724 38.3103 74.6059 41.3016 89.6915C42.0622 93.5276 42.7741 96.755 42.8832 96.8647C42.9929 96.9738 43.9548 95.1074 45.0213 92.7165C46.0878 90.3262 48.5436 85.0607 50.4797 81.0154C59.2965 62.5905 68.6149 34.3365 71.9132 16.0223C73.0464 9.7326 74.2277 5.50535 75.2399 4.12226C75.884 3.24165 76.2413 3.17157 77.3977 3.69835C80.0831 4.92148 81.8785 10.7268 83.196 22.4511C84.919 37.7803 85.7486 52.498 85.7474 67.7396C85.7452 92.5329 84.1647 103.863 79.0529 115.713C74.9091 125.322 70.8796 131.008 58.4342 144.814C53.2692 150.543 52.3859 151.684 52.3859 152.631C52.3859 153.058 51.6859 153.824 50.8309 154.332C49.9759 154.841 48.5571 156.011 47.6784 156.932L46.0804 158.608L52.2021 158.339C55.569 158.191 59.7229 158.294 61.4334 158.567C63.9622 158.971 64.9133 158.88 66.5226 158.081C70.2604 156.225 71.0289 156.551 77.9213 162.929C80.3025 165.132 83.7853 168.282 85.6609 169.928C87.536 171.574 90.5415 175.086 92.3402 177.733C95.0477 181.717 95.8082 182.487 96.7582 182.207C97.3899 182.021 99.6874 181.472 101.864 180.988C106.567 179.94 115.613 180.244 119.875 181.592L122.618 182.459L128.074 177.888C133.099 173.679 138.529 169.697 140.599 168.703C141.066 168.479 140.709 168.88 139.806 169.594C134.55 173.751 130.56 177.099 127.624 179.815L124.301 182.892L126.473 184.112L128.646 185.333L133.891 181.831C139.807 177.882 146.726 174.102 151.343 172.296C155.655 170.61 154.801 171.212 147.918 174.711C144.67 176.362 139.151 179.594 135.653 181.891C130.068 185.56 129.386 186.177 130.054 186.958C131.868 189.082 131.824 189.456 129.801 189.074L127.876 188.709L129.836 190.342L131.796 191.975L134.642 190.811C139.331 188.894 149.788 185.418 151.908 185.072C152.997 184.894 151.852 185.474 149.364 186.36C140.267 189.601 132.682 192.752 132.682 193.288C132.682 193.591 133.028 194.526 133.45 195.365C133.872 196.205 134.384 197.765 134.588 198.834L134.958 200.775L133.643 199.54C131.804 197.814 131.571 197.986 132.442 200.424C133.53 203.472 133.454 209.274 132.296 211.474L131.345 213.283L130.875 211.022C130.035 206.981 129.769 207.004 128.687 211.211C127.394 216.237 123.741 224.077 119.233 231.505C114.604 239.132 114.166 240.061 112.568 245.658C110.578 252.63 108.214 257.193 105.236 259.813C103.848 261.035 102.713 262.315 102.713 262.658C102.713 263.001 103.122 264.304 103.622 265.554C104.476 267.687 104.675 267.828 106.874 267.851C114.299 267.93 123.83 275.311 133.853 288.744C139.778 296.685 142.359 300.51 146.244 307.109C147.891 309.907 150.515 314.177 152.074 316.599L154.909 321.002L158.898 320.838L162.887 320.674L166.498 309.652C170.12 298.597 172.816 288.158 172.826 285.152C172.828 284.268 172.258 282.742 171.558 281.761C170.524 280.312 170.278 279.184 170.241 275.739C170.205 272.281 169.909 270.939 168.637 268.455C167.78 266.781 166.939 264.057 166.768 262.403C166.482 259.636 166.711 258.841 169.628 252.448C175.574 239.416 174.858 236.182 163.366 224.149C160.464 221.11 157.844 217.978 157.544 217.188C156.6 214.708 156.907 212.718 158.457 211.262C159.74 210.058 160.441 209.892 164.253 209.892C173.003 209.892 182.196 214.935 185.607 221.607C186.836 224.011 186.989 225.095 187.122 232.387C187.242 238.903 187.461 240.785 188.237 241.969C193.387 249.825 216.519 261.317 239.198 267.285L245.342 268.902L249.539 267.533C255.502 265.587 258.775 265.241 260.885 266.331C262.731 267.285 263.306 268.256 263.306 270.416C263.306 271.455 263.611 271.784 264.578 271.788C266.362 271.796 271.387 274.226 272.837 275.782C273.504 276.498 274.05 277.786 274.05 278.646C274.05 279.505 274.34 280.845 274.695 281.624C275.715 283.863 274.161 285.681 270.229 286.847C267.539 287.646 264.872 287.791 254.695 287.694C242.466 287.578 242.394 287.585 239.498 289.051C235.123 291.267 229.428 292.275 223.723 291.842C217.896 291.4 209.261 290.204 202.903 288.959L198.199 288.037L196.683 289.455C195.849 290.235 194.624 291.036 193.961 291.236C192.86 291.568 192.722 292.128 192.381 297.658C191.924 305.048 190.396 319.876 190.03 320.469C189.721 320.968 191.169 321.214 199.69 322.11C206.645 322.842 209.037 323.185 219.199 324.916C226.979 326.241 228.982 326.951 229.279 328.492C229.798 331.186 225.679 332.875 211.704 335.697C207.116 336.624 198.846 337.889 193.327 338.509C187.807 339.128 182.99 339.743 182.621 339.873C181.419 340.299 154.296 341.811 136.641 342.438C127.155 342.774 117.485 343.311 115.153 343.633C108.383 344.565 94.5704 347.408 86.5968 349.512C71.5525 353.483 64.7143 354.439 60.3353 353.184C57.7664 352.447 54.7417 349.445 54.3238 347.218L53.9879 345.428L47.8707 345.078C37.9292 344.51 25.4238 341.487 22.1888 338.871C20.0813 337.166 20.4602 334.977 23.0998 333.613C26.5763 331.816 38.0688 328.936 46.4485 327.761C54.3781 326.649 54.0823 326.775 54.0823 324.517C54.0823 318.03 58.5196 297.302 62.082 287.15C63.0297 284.449 64.6074 280.713 65.5879 278.848C67.2849 275.62 71.8409 270.453 74.0609 269.238C74.9996 268.724 74.856 268.426 72.524 266.063L69.9516 263.455L57.9174 263.141C49.3171 262.917 44.9376 262.564 42.5711 261.902C40.7492 261.393 39.1658 261.07 39.0522 261.183C38.9391 261.296 39.6544 262.37 40.6423 263.567L42.4388 265.746L40.7678 265.33C37.461 264.505 35.0837 263.021 31.8877 259.785L28.6363 256.493V259.051C28.6363 260.458 28.4593 261.609 28.2433 261.609C28.0267 261.609 27.179 260.966 26.3591 260.181C24.8912 258.775 24.8471 258.769 23.5007 259.795C18.766 263.401 17.8709 263.775 21.1438 260.78C23.27 258.834 24.5168 257.284 24.2737 256.892C24.0515 256.533 23.5934 254.715 23.2564 252.852L22.6429 249.464L21.5594 251.298C20.9634 252.305 20.2984 253.131 20.0819 253.131C19.5215 253.131 18.9006 249.027 19.1042 246.666C19.1986 245.571 19.09 244.666 18.8627 244.656C18.2492 244.628 13.3748 247.16 8.53781 250.019C6.19055 251.406 4.4263 252.288 4.61743 251.979C5.0647 251.255 12.1602 246.509 16.2514 244.196C19.2947 242.476 19.4542 242.268 20.3929 238.803C20.9295 236.821 21.9756 233.89 22.7169 232.291L24.065 229.382L22.5337 229.759C21.6917 229.966 19.2421 230.731 17.09 231.458C11.5569 233.328 11.8 232.679 17.4298 230.552C20.0168 229.574 22.8001 228.514 23.6149 228.197C25.1281 227.607 26.3744 225.622 26.3744 223.801C26.3744 222.512 19.0092 193.384 17.0798 187.042C15.6158 182.23 15.1736 176.5 16.1253 174.67C16.4877 173.973 15.8646 172.428 13.804 168.913C9.31082 161.249 5.54309 153.058 4.33072 148.32C2.10391 139.617 1.95407 135.778 2.33633 97.1309C2.57495 73.0204 2.47372 53.2102 2.04623 40.3266C0.68515 -0.688297 0.702698 2.22992 1.80536 1.01244C3.18567 -0.512513 3.87781 -0.376861 6.05032 1.84387ZM2.26846 2.54926C2.06036 3.37731 2.07394 8.6553 2.29843 14.2775C2.52295 19.9003 2.92896 29.969 3.20093 36.6527C3.47235 43.3364 3.58658 68.0629 3.45425 91.6014C3.21225 134.539 3.36264 139.234 5.23492 147.153C6.68872 153.301 12.0245 164.432 17.4004 172.528C19.526 175.73 19.9037 177.13 18.278 175.781C16.0393 173.925 16.2638 179.937 18.7603 188.725C20.4274 194.593 25.896 215.969 27.1904 221.677L27.5556 223.288L29.7921 220.166C32.3163 216.643 37.8455 212.686 42.773 210.877C46.9224 209.354 52.8949 208.479 59.1387 208.479C62.1764 208.479 64.2608 208.248 64.2608 207.913C64.2608 207.602 64.0352 207.348 63.7592 207.348C62.829 207.348 52.4521 197.135 49.8017 193.611C43.3786 185.07 40.5801 175.142 43.7133 172.011C44.9817 170.743 45.9249 171.01 44.7521 172.305C43.749 173.412 43.7642 173.435 45.5268 173.435C48.4452 173.435 53.1476 175.383 58.1582 178.667C63.6625 182.275 67.8741 186.347 71.6707 191.73C74.2746 195.423 77.8224 203.336 77.8405 205.493C77.8609 207.835 78.4014 207.967 85.454 207.349L92.1468 206.763L94.5897 204.512C95.9332 203.274 97.5471 202.261 98.1764 202.261C99.1089 202.261 99.3198 201.891 99.3198 200.259C99.3198 198.695 98.7917 197.674 96.9092 195.596C92.1338 190.326 83.7106 179.833 77.7579 171.739C75.9999 169.349 74.433 166.459 73.5231 163.928C72.9023 162.2 72.9232 162.117 73.7855 162.872C74.3007 163.323 75.3581 163.878 76.1356 164.106C77.4023 164.475 77.3135 164.272 75.2874 162.148C72.9288 159.675 70.5895 158.174 69.0955 158.174C68.0466 158.174 67.8735 161.559 68.8303 163.347C69.1668 163.975 69.2968 164.633 69.1198 164.81C68.9428 164.987 68.158 163.757 67.3754 162.077L65.9527 159.022L66.0963 161.943C66.2088 164.231 66.0867 164.735 65.5308 164.273C65.1406 163.95 64.6164 162.892 64.3648 161.922C63.9786 160.432 63.5652 160.099 61.6811 159.765C56.1339 158.781 46.6674 159.534 42.0005 161.33C39.9812 162.108 42.0786 159.404 45.6371 156.641C47.485 155.207 48.8885 153.924 48.7556 153.792C48.3344 153.371 41.7433 156.561 40.7362 157.673C39.6646 158.856 38.8147 159.061 38.8147 158.135C38.8147 157.281 41.9089 152.889 45.4482 148.719C47.1028 146.769 48.2388 145.174 47.973 145.174C47.0191 145.174 40.2521 151.742 37.7804 155.066L35.2596 158.457L35.6198 155.721C35.8177 154.216 36.4935 151.824 37.1211 150.405C37.7494 148.987 38.1571 147.72 38.0281 147.591C37.5735 147.136 34.4131 152.29 32.2694 156.982C31.0779 159.59 30.0143 161.459 29.9063 161.135C29.7983 160.811 30.5826 157.914 31.6496 154.697C41.2965 125.605 41.8846 122.967 41.888 108.718C41.8914 97.3626 41.1874 92.4661 37.3626 77.2454C30.0494 48.1436 8.85617 1.04409 3.07538 1.04409C2.83902 1.04409 2.47598 1.72122 2.26846 2.54926ZM75.6363 5.44204C75.34 5.99595 74.1813 10.8076 73.0611 16.1342C68.1795 39.359 59.9146 64.4857 51.8114 80.7396C50.3395 83.6929 47.8158 89.1416 46.2037 92.8482L43.2734 99.5873L43.0619 109.805C42.8154 121.725 42.1046 125.645 37.6758 139.522C36.0382 144.651 34.5635 149.23 34.3978 149.696C34.2327 150.162 35.1165 149.272 36.3623 147.718C40.8 142.18 42.0475 142.106 39.4921 147.532C36.4833 153.921 36.6699 154.144 41.1948 149.562L45.4001 145.303L47.5438 136.902C50.633 124.791 53.5672 115.491 57.5272 105.261C64.0623 88.3751 64.8884 86.1001 67.1497 78.7614C71.7781 63.7402 76.437 43.6569 78.0865 31.6206L78.8295 26.1962L78.8962 30.4772C78.933 32.8313 79.3288 37.2824 79.7761 40.3685C82.0442 56.017 82.3518 83.4007 80.3845 94.5874C77.1715 112.864 69.5852 126.713 51.9404 146.513C46.1816 152.976 46.0335 153.207 47.9018 152.805C48.9682 152.576 50.0353 152.275 50.2728 152.135C51.635 151.333 69.3336 130.637 71.6933 127.087C82.3416 111.068 85.07 97.1388 84.4554 61.9439C83.9521 33.1241 81.5992 11.5294 78.3879 6.25087C77.1371 4.19574 76.4172 3.98378 75.6363 5.44204ZM11.2928 21.8158C11.4319 22.0492 11.9872 24.2355 12.5261 26.675C13.1537 29.5135 14.7076 33.483 16.8417 37.6967C23.076 50.0082 28.3841 64.7858 32.2807 80.678C35.2602 92.8285 36.2113 100.036 36.2056 110.413C36.1977 123.849 34.3922 131.979 27.2322 150.814C23.5233 160.572 23.4871 160.719 24.315 162.825C25.8615 166.761 24.2895 165.005 22.5546 160.859C20.053 154.88 18.6297 149.916 17.2777 142.46C16.1977 136.502 16.0337 132.745 15.6198 104.479C15.0169 63.3315 13.9731 42.6678 11.757 28.0332C10.7918 21.6575 10.7336 20.8787 11.2928 21.8158ZM14.1919 44.0367C15.5049 61.1074 15.5847 63.1026 15.9042 86.957C16.5132 132.371 16.8163 138.227 19.055 147.808C20.0434 152.037 22.4653 159.305 22.8866 159.305C23.6347 159.305 31.467 137.339 33.2742 130.173C35.0809 123.012 35.1222 122.571 35.1307 110.413C35.1397 97.2524 34.8547 94.7264 31.9833 82.537C29.6219 72.514 27.2463 64.5772 24.0017 55.8701C21.0477 47.9446 14.1292 32.8776 13.6599 33.3473C13.5117 33.4954 13.7514 38.3054 14.1919 44.0367ZM72.1423 63.7831C68.7986 76.6525 65.7904 85.9221 61.0534 97.9567C58.7328 103.851 55.591 112.372 54.071 116.891C51.4082 124.808 45.995 144.609 46.4926 144.609C46.6261 144.609 47.666 144.111 48.8031 143.501C49.9403 142.892 51.0865 142.527 51.3494 142.689C51.6129 142.852 50.3073 144.686 48.4486 146.764C44.2585 151.45 41.3689 155.348 42.0854 155.348C42.7684 155.348 49.3771 148.557 54.4612 142.631C68.681 126.056 75.7556 113.35 78.8578 98.8147C81.3328 87.2181 81.6093 64.0838 79.5131 44.0005C79.1727 40.7364 78.7532 37.6842 78.5807 37.2179C78.4088 36.7516 77.4017 40.5669 76.3431 45.6962C75.2851 50.8255 73.3942 58.9646 72.1423 63.7831ZM74.8192 165.381C75.4672 167.243 80.8188 174.846 86.2117 181.567C90.978 187.507 91.6554 188.147 92.0507 187.078C92.5806 185.645 93.5198 185.548 95.2354 186.75C96.8634 187.889 96.8255 187.608 94.8023 183.532C90.6246 175.115 83.3238 167.414 77.5018 165.282C74.5828 164.214 74.4149 164.22 74.8192 165.381ZM44.7521 166.112C45.9961 166.73 46.5051 167.084 45.883 166.898C42.8414 165.988 38.8192 165.954 37.4847 166.828C35.0334 168.434 35.263 174.443 38.0123 180.658C40.0943 185.363 39.1206 184.963 36.8129 180.165L34.7999 175.979L35.0747 178.522C35.2262 179.921 35.496 181.701 35.6746 182.479C35.9093 183.502 35.7244 183.345 35.004 181.913C33.968 179.855 33.6983 173.078 34.4866 168.892C35.1889 165.157 40.1379 163.817 44.7521 166.112ZM43.4498 176.948C43.097 182.424 47.4754 190.425 55.1132 198.264C59.3095 202.57 60.3189 203.366 60.0616 202.164C59.5572 199.812 60.1922 198.87 62.2822 198.87C64.7148 198.87 67.2425 201.226 69.0526 205.182L70.4323 208.196L73.8494 208.004C77.9106 207.777 77.9966 207.505 75.8907 201.54C71.6916 189.648 58.8091 177.195 48.0273 174.608C44.1748 173.684 43.6421 173.956 43.4498 176.948ZM99.7213 182.41C97.3079 183.071 96.2487 183.63 96.3353 184.197C96.4037 184.651 97.2474 187.272 98.2092 190.021C99.2124 192.889 100.046 196.547 100.165 198.605C100.28 200.577 100.67 202.744 101.032 203.421C101.423 204.152 101.547 205.6 101.337 206.989C100.738 210.947 100.481 211.056 96.5123 209.053C94.5704 208.074 92.6331 207.406 92.2074 207.569C91.1256 207.985 74.5857 208.941 61.4346 209.348C54.8553 209.552 48.9264 210.033 46.7324 210.542C42.1086 211.613 36.3035 214.633 33.2703 217.547C30.7602 219.957 26.0945 226.474 26.5514 226.931C26.7041 227.083 30.862 226.058 35.7906 224.652C49.3268 220.791 64.1788 217.439 80.0837 214.657C83.9656 213.979 87.4009 213.134 87.7175 212.781C88.0342 212.428 88.2315 212.246 88.1569 212.376C88.0817 212.507 88.3039 212.955 88.65 213.372C89.1131 213.93 89.112 214.131 88.6449 214.131C87.5869 214.131 87.9358 215.26 89 215.279C89.9426 215.296 89.9426 215.333 89 216.048C87.5914 217.117 87.7763 217.698 89.4241 217.383C91.0086 217.081 91.3139 217.764 89.9381 218.534C89.1957 218.95 89.3382 219.162 90.749 219.746C93.4615 220.869 95.7783 220.005 99.1852 216.6C100.862 214.924 102.473 213.701 102.766 213.881C103.812 214.527 107.153 211.857 107.818 209.845C108.575 207.55 108.17 205.955 106.949 206.424C106.485 206.602 106.105 206.501 106.105 206.2C106.105 205.899 106.36 205.652 106.671 205.652C106.982 205.652 107.236 205.381 107.236 205.049C107.236 204.686 106.729 204.599 105.964 204.83C104.926 205.144 104.822 205.078 105.399 204.472C106.334 203.49 106.299 202.788 105.331 203.159C104.872 203.335 104.434 202.983 104.254 202.293C104.034 201.455 104.219 201.131 104.915 201.131C105.446 201.131 107.297 199.414 109.029 197.315C110.76 195.217 114.371 191.175 117.053 188.334L121.929 183.167L118.4 182.262C116.459 181.764 114.107 181.254 113.174 181.128C110.305 180.742 103.416 181.398 99.7213 182.41ZM116.654 190.533C113.076 194.341 109.602 198.157 108.934 199.011C106.844 201.687 109.095 200.893 113.025 197.57C114.973 195.923 118.334 193.189 120.494 191.497C124.42 188.42 124.421 188.419 122.898 187.883C120.38 186.998 121.137 186.25 124.185 186.61C125.731 186.793 127.143 186.706 127.323 186.415C127.615 185.942 124.476 183.616 123.538 183.611C123.329 183.61 120.231 186.724 116.654 190.533ZM127.593 187.222C127.593 187.345 127.975 187.591 128.441 187.77C128.908 187.949 129.29 187.849 129.29 187.548C129.29 187.247 128.908 187 128.441 187C127.975 187 127.593 187.1 127.593 187.222ZM119.086 193.981C115.638 196.733 112.897 199.059 112.995 199.151C113.549 199.67 121.897 196.923 125.937 194.893L130.655 192.522L128.527 190.572C127.357 189.5 126.164 188.703 125.878 188.801C125.591 188.898 122.535 191.23 119.086 193.981ZM126.222 195.869C123.902 197.016 122.132 198.16 122.288 198.412C122.444 198.664 121.983 198.874 121.265 198.879C120.547 198.883 117.561 200.236 114.629 201.885L109.3 204.882L109.153 207.669C109.072 209.203 109.372 212.29 109.818 214.531C110.264 216.771 110.629 221.378 110.629 224.767C110.629 230.293 110.493 231.13 109.308 232.876C108.27 234.404 107.909 235.905 107.625 239.878C106.973 249.015 104.743 253.642 99.8836 255.944C93.3185 259.053 85.1328 256.407 75.5701 248.083C72.6535 245.545 63.0784 237.832 60.0067 235.548C59.4181 235.111 52.6059 239.196 50.275 241.385C49.5699 242.047 48.9931 242.409 48.9931 242.19C48.9931 241.971 47.0208 243.109 44.6107 244.72C35.8307 250.586 29.7672 255.015 29.7672 255.563C29.7672 257.468 38.1446 264.728 39.1647 263.708C39.3293 263.544 38.1542 261.963 36.5528 260.196C33.2607 256.562 33.2109 255.466 36.4572 258.073C39.6375 260.628 43.6766 261.624 52.6687 262.073C60.7916 262.478 63.0903 262.495 71.8946 262.215L76.9838 262.054L72.1773 260.955C61.9859 258.625 66.1534 258.331 77.2665 260.596C86.7919 262.538 89.3404 262.831 93.9479 262.516C100.015 262.101 102.375 261.345 104.997 258.978C108.192 256.093 112.299 246.607 112.318 242.07C112.327 240.07 113.836 234.66 114.5 234.25C114.746 234.098 114.846 234.786 114.72 235.78C114.542 237.193 115.322 236.232 118.299 231.37C125.151 220.178 128.743 211.086 128.858 204.649C128.923 200.972 129.811 200.525 130.089 204.029C130.334 207.11 131.597 210.446 132.175 209.535C133.02 208.201 132.693 203.802 131.506 200.565C129.447 194.946 129.434 195.1 131.795 196.9L133.918 198.518L133.017 196.364C132.522 195.18 132.117 194.114 132.117 193.997C132.117 193.337 129.948 194.026 126.222 195.869ZM89.1414 197.454C89.1414 197.549 88.1869 198.19 87.0209 198.877C85.048 200.038 84.9716 200.046 85.9267 198.989C86.7947 198.027 89.1414 196.907 89.1414 197.454ZM91.686 198.992C90.753 199.321 88.9078 200.309 87.5863 201.189C86.2648 202.068 85.1831 202.537 85.1831 202.229C85.1831 201.296 90.3962 198.302 91.9382 198.349C93.3451 198.393 93.3389 198.409 91.686 198.992ZM112.179 200.889C109.552 201.784 108.094 202.939 108.455 203.84C108.562 204.108 110.304 203.358 112.326 202.175C116.304 199.845 116.264 199.498 112.179 200.889ZM96.1911 203.968C93.2552 205.782 93.3535 206.529 96.7707 208.379C100.214 210.244 100.451 210.09 100.451 205.983C100.451 202.427 99.4516 201.954 96.1911 203.968ZM159.259 211.841C156.246 213.952 157.287 216.607 163.775 223.356C171.326 231.209 173.089 233.783 173.905 238.149C174.611 241.927 173.669 245.752 170.18 253.259C167.447 259.141 167.093 260.298 167.412 262.293C168.695 270.309 177.615 279.653 187.998 283.855C197.21 287.583 213.891 290.625 225.419 290.679C233.243 290.716 233.787 290.643 237.294 289.104C239.316 288.217 244.284 285.501 248.335 283.07C259.169 276.567 263.247 272.586 262.426 269.317C261.392 265.196 254.924 265.954 241.252 271.796C228.659 277.177 222.71 278.104 217.22 275.536C215.665 274.809 210.448 271.283 205.628 267.698C193.382 258.595 190.604 257.36 185.96 258.96C183.175 259.919 182.88 259.736 185.243 258.515C187.532 257.331 191.281 257.454 194.273 258.81C195.647 259.433 199.299 261.781 202.389 264.026C212.997 271.735 214.963 273.092 217.446 274.414C218.813 275.143 220.399 275.739 220.969 275.739C221.875 275.739 221.758 275.291 220.037 272.16C217.755 268.01 217.365 265.993 219.199 267.826C219.821 268.448 220.648 268.961 221.037 268.967C221.425 268.973 225.306 269.602 229.66 270.367C237.279 271.704 237.677 271.721 240.263 270.81C241.74 270.289 242.949 269.688 242.949 269.473C242.949 269.258 241.994 268.906 240.828 268.69C237.118 268.004 220.725 262.4 214.336 259.632C201.469 254.06 190.725 247.288 188.042 243.06C186.439 240.533 186.402 240.3 186.402 232.783C186.402 225.642 186.297 224.882 184.939 222.156C184.133 220.541 182.416 218.313 181.122 217.204C177.564 214.156 171.421 211.339 167.169 210.806C162.871 210.267 161.192 210.487 159.259 211.841ZM104.615 214.333L102.843 215.223L103.561 218.774C104.459 223.222 105.046 229.956 104.437 228.824C104.186 228.359 103.682 226.198 103.318 224.022C102.953 221.846 102.401 219.103 102.091 217.926L101.527 215.786L98.5954 218.35C96.2295 220.419 95.253 220.913 93.5334 220.913C92.3617 220.913 91.4032 221.086 91.4032 221.296C91.4032 222.983 95.1342 235.474 95.7981 236.01C97.1083 237.066 101.28 237.492 103.418 236.786C105.389 236.136 108.306 233.458 109.43 231.266C110.56 229.063 110.008 216.961 108.561 212.2C108.241 211.149 108.204 211.151 107.31 212.28C106.803 212.92 105.59 213.844 104.615 214.333ZM72.1773 217.484C54.7134 221.007 28.3513 227.466 25.7467 228.86C24.7753 229.379 21.7732 236.441 21.0245 239.968L20.6394 241.783L28.172 238.19C40.4076 232.354 60.9567 224.28 76.4183 219.231C83.0411 217.069 85.7486 215.895 85.7486 215.186C85.7486 214.904 85.1763 214.806 84.4763 214.967C83.7762 215.127 78.242 216.26 72.1773 217.484ZM84.5605 217.608C83.5036 217.967 81.9718 218.724 81.1564 219.291C80.341 219.857 76.2815 222.134 72.1349 224.348C63.3272 229.053 57.8755 232.623 58.3431 233.38C58.7209 233.991 58.3069 234.19 66.8365 229.285C70.2751 227.308 76.3154 224.043 80.2596 222.03C84.2043 220.017 87.4348 218.052 87.4382 217.663C87.4467 216.79 86.9994 216.782 84.5605 217.608ZM81.8497 222.417C75.8393 225.624 63.1213 232.894 61.3446 234.138C60.5191 234.716 61.0172 235.297 65.2158 238.655L70.0342 242.51L72.1372 241.562C73.5412 240.929 75.4491 240.656 77.8739 240.741C80.3823 240.828 82.0329 240.579 83.204 239.937C85.6338 238.605 88.4798 238.781 91.8782 240.474C96.795 242.923 100.236 248.436 99.7869 253.144L99.5771 255.345L101.286 254.374C103.948 252.861 105.999 248.035 106.649 241.754C106.947 238.868 107.098 236.413 106.984 236.298C106.869 236.184 106.001 236.491 105.055 236.98C102.995 238.045 97.8971 238.134 95.931 237.14C94.7191 236.527 94.2289 235.322 92.4369 228.55C90.585 221.555 89.4999 219.218 88.1032 219.218C87.9618 219.218 85.148 220.658 81.8497 222.417ZM58.3233 226.836C47.6564 230.878 37.2732 235.291 27.6467 239.873L20.1542 243.44V247.155C20.1542 249.198 20.3657 250.87 20.6241 250.87C21.3134 250.87 22.3211 248.676 22.9267 245.856C23.9598 241.047 24.5717 242.076 24.2793 248.13C24.1069 251.692 24.2364 254.591 24.6101 255.544C25.1598 256.946 25.3447 257.035 26.3891 256.391C27.1779 255.906 27.4505 255.31 27.2333 254.544C27.0569 253.922 26.7934 252.65 26.6475 251.718C26.4027 250.147 26.4507 250.178 27.3035 252.141C27.8101 253.308 28.4593 254.261 28.7465 254.261C29.0338 254.261 31.2255 252.78 33.6175 250.969C36.0094 249.158 40.8928 245.677 44.4694 243.233C48.046 240.79 52.3854 237.364 54.1117 235.621C57.9581 231.74 63.0518 228.31 71.7532 223.742C75.4011 221.827 78.5128 220.053 78.6695 219.8C78.9929 219.277 70.741 222.131 58.3233 226.836ZM56.6122 234.935C56.7858 235.109 57.2422 234.935 57.6261 234.549C58.1803 233.99 58.1153 233.926 57.3095 234.232C56.7519 234.445 56.4381 234.761 56.6122 234.935ZM82.9789 240.696C82.4276 240.99 83.114 241.58 85.2408 242.643C88.3056 244.175 91.4032 246.683 91.4032 247.634C91.4032 247.915 90.602 247.47 89.6226 246.646C88.6432 245.823 86.2897 244.358 84.392 243.391C81.5223 241.929 80.2562 241.626 76.8656 241.589C73.8856 241.556 72.5517 241.781 71.9065 242.423C71.1069 243.22 71.466 243.679 75.7177 247.298C83.2814 253.735 88.892 256.534 94.1921 256.514C98.0057 256.5 98.6684 256.066 99.0812 253.316C99.399 251.196 99.1999 250.289 97.8349 247.637C94.6106 241.375 87.7379 238.164 82.9789 240.696ZM26.4044 258.839C27.179 260.286 27.5053 260.191 27.5053 258.518C27.5053 257.517 27.2684 257.214 26.6673 257.444C26.0334 257.687 25.9695 258.027 26.4044 258.839ZM91.2268 263.305H85.1056L87.6265 265.989C95.1003 273.949 102.02 285.663 108.029 300.527C110.555 306.775 115.192 320.578 115.962 324.142C116.269 325.561 116.705 325.986 118.144 326.274C119.134 326.472 120.886 327.391 122.039 328.317C123.349 329.369 124.789 330 125.882 330C126.843 330 128.546 330.383 129.667 330.851C132.08 331.858 138.495 336.534 140.846 338.998C142.294 340.516 142.893 340.739 145.511 340.739C147.164 340.739 148.516 340.526 148.516 340.265C148.516 339.495 142.341 318.144 141.069 314.515C135.216 297.819 126.855 285.098 115.854 276.149C110.767 272.012 105.964 269.099 105.672 269.975C105.547 270.348 105.247 270.652 105.004 270.652C104.619 270.652 102.334 265.92 101.403 263.194C101.131 262.398 100.76 262.327 99.2118 262.77C98.1866 263.064 94.5936 263.305 91.2268 263.305ZM71.911 263.278C71.8002 263.457 72.658 264.618 73.8177 265.856C75.7019 267.869 76.2244 268.115 78.717 268.163C82.1104 268.228 85.3279 269.795 88.0104 272.688L89.9896 274.822L88.084 273.282C85.493 271.188 83.6252 270.291 80.92 269.842C72.1117 268.38 66.1183 276.059 60.6553 295.804C56.2747 311.637 54.9345 320.911 54.9385 335.37C54.9413 348.409 55.2212 349.43 59.3344 351.421C63.7439 353.554 66.927 353.177 87.7277 348.061C99.8457 345.081 114.768 342.182 120.242 341.745C122.135 341.594 122.213 341.502 122.028 339.634C121.781 337.133 119.975 333.287 118.376 331.857C115.852 329.6 100.841 326.753 84.6176 325.452C76.6649 324.815 73.8472 324.348 77.9547 324.348H79.9621L80.3704 320.533C80.898 315.606 83.17 307.769 84.9586 304.707C85.7305 303.386 86.4605 302.304 86.5809 302.304C86.7014 302.304 86.2049 303.769 85.4777 305.558C84.0488 309.073 82.6837 315.226 82.1115 320.732L81.753 324.181L89.8296 324.505C97.0348 324.794 102.205 325.579 113.881 328.155C114.964 328.395 115.153 328.202 115.153 326.851C115.153 324.706 111.158 311.624 108.125 303.837C101.547 286.949 94.359 274.596 85.9148 265.667L83.0711 262.659L77.5922 262.805C74.5789 262.885 72.0224 263.098 71.911 263.278ZM108.678 269.422C108.973 269.678 110.615 270.865 112.326 272.061C124.101 280.291 133.938 293.265 139.971 308.522C141.507 312.408 144.376 321.269 146.347 328.214L149.929 340.841L156.715 340.491C169.509 339.831 181.597 338.963 183.538 338.564C185.784 338.102 185.825 338 187.548 328.587C188.999 320.66 190.761 306.096 191.249 297.999L191.627 291.714L188.986 291.318C184.646 290.668 181.223 289.461 177.694 287.336C175.859 286.232 174.296 285.397 174.219 285.48C174.143 285.563 173.644 287.793 173.11 290.435C171.703 297.399 168.181 308.845 163.37 322.087C158.67 335.024 157.163 337.98 158.729 331.19C159.224 329.044 159.155 328.543 158.227 327.516C156.533 325.642 150.796 316.854 145.827 308.522C137.865 295.17 127.938 282.045 121.768 276.71C116.949 272.543 115.048 271.299 111.609 270.062C108.221 268.843 107.939 268.781 108.678 269.422ZM221.642 272.489C223.54 275.435 223.574 275.456 226.325 275.376C229.061 275.296 235.966 273.093 235.365 272.492C235.105 272.232 222.72 269.825 220.455 269.595C220.045 269.554 220.56 270.808 221.642 272.489ZM261.737 273.992C260.411 275.784 260.818 276.304 263.547 276.304C264.251 276.304 266.329 276.827 268.166 277.467C273.357 279.272 273.484 279.301 273.484 278.64C273.484 277.208 270.195 274.469 267.259 273.456C263.216 272.061 263.161 272.066 261.737 273.992ZM171.114 278.49C172.8 284.746 182.243 290.435 190.944 290.435C193.598 290.435 194.56 290.173 195.789 289.116L197.323 287.797L192.287 286.228C189.517 285.364 186.105 284.077 184.706 283.368C181.339 281.66 175.859 277.591 173.396 274.97L171.417 272.863L170.942 274.476C170.652 275.461 170.719 277.023 171.114 278.49ZM255.84 279.33C253.882 280.683 250.371 282.908 248.039 284.275C244.042 286.619 243.897 286.772 245.495 286.957C246.427 287.064 252.025 287.047 257.934 286.918C266.614 286.728 269.14 286.489 271.086 285.67C273.658 284.587 274.727 282.606 273.521 281.153C272.047 279.378 265.118 277.047 260.93 276.917C259.992 276.888 258.025 277.82 255.84 279.33ZM116.058 284.121C121.768 288.263 127.102 296.202 128.993 303.378C129.952 307.018 129.395 306.583 127.618 302.304C125.753 297.811 120.96 290.677 116.871 286.309C114.922 284.226 113.445 282.522 113.589 282.522C113.734 282.522 114.845 283.241 116.058 284.121ZM156.724 323.641C157.268 324.497 158.236 325.772 158.876 326.476L160.039 327.757L161.062 325.063C161.625 323.582 162.086 322.306 162.086 322.228C162.087 322.15 160.658 322.087 158.912 322.087H155.737L156.724 323.641ZM189.472 324.772C189.266 325.938 188.616 329.284 188.027 332.208C187.438 335.133 187.057 337.626 187.179 337.749C187.302 337.871 189.277 337.768 191.567 337.519L195.732 337.065L196.218 330.709C196.485 327.214 196.557 323.971 196.377 323.503C196.141 322.888 195.189 322.652 192.948 322.652H189.846L189.472 324.772ZM199.75 324.207C199.186 326.075 197.589 336.284 197.825 336.519C198.151 336.845 209.366 335.142 211.009 334.518C212.36 334.005 213.163 332.088 213.903 327.607C214.327 325.041 214.431 325.092 206.697 324.099C203.466 323.684 200.648 323.316 200.435 323.281C200.223 323.246 199.915 323.663 199.75 324.207ZM197.223 328.163C197.265 330.883 197.414 332.473 197.554 331.696C197.693 330.919 198.137 328.693 198.539 326.75C199.23 323.411 199.212 323.217 198.208 323.217C197.244 323.217 197.153 323.674 197.223 328.163ZM214.187 330.141C213.206 333.685 213.199 333.957 214.087 333.957C216.098 333.957 226.705 330.652 227.595 329.749C228.464 328.867 228.456 328.746 227.476 328.02C226.897 327.591 224.989 327.067 223.235 326.856C221.482 326.645 219.029 326.3 217.785 326.089C216.541 325.878 215.461 325.846 215.384 326.016C215.307 326.187 214.769 328.043 214.187 330.141ZM115.857 328.16C115.73 328.546 116.275 329.109 117.067 329.41C119.756 330.432 122.168 334.629 123.341 340.332C123.629 341.731 123.886 341.888 125.683 341.767L127.7 341.632L127.338 339.372C126.874 336.468 125.055 332.368 123.466 330.638C120.667 327.594 116.49 326.233 115.857 328.16ZM49.178 333.694C48.8127 336.481 48.4949 339.969 48.4712 341.446L48.4277 344.13H51.3155C53.7165 344.13 54.1457 343.98 53.8601 343.236C53.6712 342.745 53.5169 339.089 53.5169 335.112V327.882L51.6791 328.255L49.8413 328.628L49.178 333.694ZM41.3593 329.885L36.2701 330.859L35.829 336.178C35.587 339.103 35.5961 341.705 35.8494 341.958C36.4341 342.542 41.0777 343.421 44.7521 343.643L47.5795 343.813L47.9436 338.664C48.1438 335.832 48.4842 332.47 48.6996 331.193C49.1707 328.408 49.1243 328.4 41.3593 329.885ZM126.176 333.533C126.945 335.165 127.843 337.581 128.171 338.902L128.768 341.304L133.977 341.265C141.627 341.206 141.969 340.935 138.27 337.854C132.056 332.679 129.6 331.322 125.196 330.631C124.966 330.595 125.407 331.9 126.176 333.533ZM33.7673 334.098C33.7905 335.73 34.0133 338.21 34.2621 339.609L34.715 342.152L34.7908 339.609C34.8321 338.21 35.0266 335.73 35.2228 334.098C35.5254 331.58 35.4388 331.13 34.6523 331.13C33.9059 331.13 33.7334 331.708 33.7673 334.098ZM24.57 334.292C20.3488 336.186 21.5181 338.204 27.9854 340.185C30.0539 340.818 32.2106 341.48 32.7783 341.655C33.7091 341.941 33.7764 341.705 33.4637 339.236C33.2737 337.732 32.9881 335.445 32.8303 334.156L32.5425 331.812L29.5998 332.584C27.9815 333.008 25.7179 333.777 24.57 334.292ZM13.7927 337.066C16.5788 339.062 14.5669 341.441 9.12875 342.581C5.1405 343.417 3.19019 342.642 3.19019 340.219C3.19019 338.295 3.64426 337.919 6.8222 337.213C11.5179 336.17 12.5125 336.149 13.7927 337.066ZM10.9315 338.232C12.1653 339.167 11.9527 339.207 9.49573 338.503C7.18011 337.839 4.50659 338.31 4.06497 339.461C3.10651 341.957 7.91241 342.695 12.059 340.689C13.4014 340.039 14.4995 339.264 14.4995 338.966C14.4995 338.295 11.0084 336.776 10.3716 337.17C10.1166 337.328 10.3688 337.805 10.9315 338.232ZM212.187 343.467C214.51 345.149 217.503 348.702 217.503 349.777C217.503 350.126 216.294 350.97 214.817 351.651C212.41 352.762 211.201 352.891 203.179 352.891C195.177 352.891 194.148 352.782 193.475 351.863C191.877 349.679 194.259 345.536 197.459 344.935C198.478 344.744 199.887 343.976 200.59 343.229C201.708 342.038 202.37 341.87 205.924 341.87C209.48 341.87 210.255 342.067 212.187 343.467ZM201.888 343.424C200.942 344.367 201.019 344.427 203.51 344.718C206.011 345.009 208.455 346.487 208.455 347.708C208.455 348.025 207.866 347.731 207.147 347.055C206.023 346 205.183 345.826 201.209 345.826C197.354 345.826 196.394 346.013 195.464 346.942C194.234 348.171 193.392 350.74 194.014 351.364C194.635 351.986 207.894 352.453 210.623 351.949C213.693 351.38 216.089 350.255 216.089 349.381C216.089 348.47 211.35 343.564 209.905 342.979C207.716 342.093 202.959 342.357 201.888 343.424ZM41.8303 354.116C42.4088 354.694 42.2782 356 41.642 356C41.331 356 41.1405 355.682 41.2179 355.293C41.4464 354.153 36.33 354.043 35.2076 355.165C34.4487 355.923 34.2909 355.94 34.2909 355.258C34.2909 354.806 34.8632 354.283 35.5632 354.095C37.2806 353.635 41.3633 353.649 41.8303 354.116Z" fill="#F64A25" fill-opacity="0.4"/>
<path fill-rule="evenodd" clip-rule="evenodd" d="M5.05032 2.84387C9.90317 7.80534 18.0165 23.5975 25.8545 43.3394C32.8154 60.8724 37.3103 75.6059 40.3016 90.6915C41.0622 94.5276 41.7741 97.755 41.8832 97.8647C41.9929 97.9738 42.9548 96.1074 44.0213 93.7165C45.0878 91.3262 47.5436 86.0607 49.4797 82.0154C58.2965 63.5905 67.6149 35.3365 70.9132 17.0223C72.0464 10.7326 73.2277 6.50535 74.2399 5.12226C74.884 4.24165 75.2413 4.17157 76.3977 4.69835C79.0831 5.92148 80.8785 11.7268 82.196 23.4511C83.919 38.7803 84.7486 53.498 84.7474 68.7396C84.7452 93.5329 83.1647 104.863 78.0529 116.713C73.9091 126.322 69.8796 132.008 57.4342 145.814C52.2692 151.543 51.3859 152.684 51.3859 153.631C51.3859 154.058 50.6859 154.824 49.8309 155.332C48.9759 155.841 47.5571 157.011 46.6784 157.932L45.0804 159.608L51.2021 159.339C54.569 159.191 58.7229 159.294 60.4334 159.567C62.9622 159.971 63.9133 159.88 65.5226 159.081C69.2604 157.225 70.0289 157.551 76.9213 163.929C79.3025 166.132 82.7853 169.282 84.6609 170.928C86.536 172.574 89.5415 176.086 91.3402 178.733C94.0477 182.717 94.8082 183.487 95.7582 183.207C96.3899 183.021 98.6874 182.472 100.864 181.988C105.567 180.94 114.613 181.244 118.875 182.592L121.618 183.459L127.074 178.888C132.099 174.679 137.529 170.697 139.599 169.703C140.066 169.479 139.709 169.88 138.806 170.594C133.55 174.751 129.56 178.099 126.624 180.815L123.301 183.892L125.473 185.112L127.646 186.333L132.891 182.831C138.807 178.882 145.726 175.102 150.343 173.296C154.655 171.61 153.801 172.212 146.918 175.711C143.67 177.362 138.151 180.594 134.653 182.891C129.068 186.56 128.386 187.177 129.054 187.958C130.868 190.082 130.824 190.456 128.801 190.074L126.876 189.709L128.836 191.342L130.796 192.975L133.642 191.811C138.331 189.894 148.788 186.418 150.908 186.072C151.997 185.894 150.852 186.474 148.364 187.36C139.267 190.601 131.682 193.752 131.682 194.288C131.682 194.591 132.028 195.526 132.45 196.365C132.872 197.205 133.384 198.765 133.588 199.834L133.958 201.775L132.643 200.54C130.804 198.814 130.571 198.986 131.442 201.424C132.53 204.472 132.454 210.274 131.296 212.474L130.345 214.283L129.875 212.022C129.035 207.981 128.769 208.004 127.687 212.211C126.394 217.237 122.741 225.077 118.233 232.505C113.604 240.132 113.166 241.061 111.568 246.658C109.578 253.63 107.214 258.193 104.236 260.813C102.848 262.035 101.713 263.315 101.713 263.658C101.713 264.001 102.122 265.304 102.622 266.554C103.476 268.687 103.675 268.828 105.874 268.851C113.299 268.93 122.83 276.311 132.853 289.744C138.778 297.685 141.359 301.51 145.244 308.109C146.891 310.907 149.515 315.177 151.074 317.599L153.909 322.002L157.898 321.838L161.887 321.674L165.498 310.652C169.12 299.597 171.816 289.158 171.826 286.152C171.828 285.268 171.258 283.742 170.558 282.761C169.524 281.312 169.278 280.184 169.241 276.739C169.205 273.281 168.909 271.939 167.637 269.455C166.78 267.781 165.939 265.057 165.768 263.403C165.482 260.636 165.711 259.841 168.628 253.448C174.574 240.416 173.858 237.182 162.366 225.149C159.464 222.11 156.844 218.978 156.544 218.188C155.6 215.708 155.907 213.718 157.457 212.262C158.74 211.058 159.441 210.892 163.253 210.892C172.003 210.892 181.196 215.935 184.607 222.607C185.836 225.011 185.989 226.095 186.122 233.387C186.242 239.903 186.461 241.785 187.237 242.969C192.387 250.825 215.519 262.317 238.198 268.285L244.342 269.902L248.539 268.533C254.502 266.587 257.775 266.241 259.885 267.331C261.731 268.285 262.306 269.256 262.306 271.416C262.306 272.455 262.611 272.784 263.578 272.788C265.362 272.796 270.387 275.226 271.837 276.782C272.504 277.498 273.05 278.786 273.05 279.646C273.05 280.505 273.34 281.845 273.695 282.624C274.715 284.863 273.161 286.681 269.229 287.847C266.539 288.646 263.872 288.791 253.695 288.694C241.466 288.578 241.394 288.585 238.498 290.051C234.123 292.267 228.428 293.275 222.723 292.842C216.896 292.4 208.261 291.204 201.903 289.959L197.199 289.037L195.683 290.455C194.849 291.235 193.624 292.036 192.961 292.236C191.86 292.568 191.722 293.128 191.381 298.658C190.924 306.048 189.396 320.876 189.03 321.469C188.721 321.968 190.169 322.214 198.69 323.11C205.645 323.842 208.037 324.185 218.199 325.916C225.979 327.241 227.982 327.951 228.279 329.492C228.798 332.186 224.679 333.875 210.704 336.697C206.116 337.624 197.846 338.889 192.327 339.509C186.807 340.128 181.99 340.743 181.621 340.873C180.419 341.299 153.296 342.811 135.641 343.438C126.155 343.774 116.485 344.311 114.153 344.633C107.383 345.565 93.5704 348.408 85.5968 350.512C70.5525 354.483 63.7143 355.439 59.3353 354.184C56.7664 353.447 53.7417 350.445 53.3238 348.218L52.9879 346.428L46.8707 346.078C36.9292 345.51 24.4238 342.487 21.1888 339.871C19.0813 338.166 19.4602 335.977 22.0998 334.613C25.5763 332.816 37.0688 329.936 45.4485 328.761C53.3781 327.649 53.0823 327.775 53.0823 325.517C53.0823 319.03 57.5196 298.302 61.082 288.15C62.0297 285.449 63.6074 281.713 64.5879 279.848C66.2849 276.62 70.8409 271.453 73.0609 270.238C73.9996 269.724 73.856 269.426 71.524 267.063L68.9516 264.455L56.9174 264.141C48.3171 263.917 43.9376 263.564 41.5711 262.902C39.7492 262.393 38.1658 262.07 38.0522 262.183C37.9391 262.296 38.6544 263.37 39.6423 264.567L41.4388 266.746L39.7678 266.33C36.461 265.505 34.0837 264.021 30.8877 260.785L27.6363 257.493V260.051C27.6363 261.458 27.4593 262.609 27.2433 262.609C27.0267 262.609 26.179 261.966 25.3591 261.181C23.8912 259.775 23.8471 259.769 22.5007 260.795C17.766 264.401 16.8709 264.775 20.1438 261.78C22.27 259.834 23.5168 258.284 23.2737 257.892C23.0515 257.533 22.5934 255.715 22.2564 253.852L21.6429 250.464L20.5594 252.298C19.9634 253.305 19.2984 254.131 19.0819 254.131C18.5215 254.131 17.9006 250.027 18.1042 247.666C18.1986 246.571 18.09 245.666 17.8627 245.656C17.2492 245.628 12.3748 248.16 7.53781 251.019C5.19055 252.406 3.4263 253.288 3.61743 252.979C4.0647 252.255 11.1602 247.509 15.2514 245.196C18.2947 243.476 18.4542 243.268 19.3929 239.803C19.9295 237.821 20.9756 234.89 21.7169 233.291L23.065 230.382L21.5337 230.759C20.6917 230.966 18.2421 231.731 16.09 232.458C10.5569 234.328 10.8 233.679 16.4298 231.552C19.0168 230.574 21.8001 229.514 22.6149 229.197C24.1281 228.607 25.3744 226.622 25.3744 224.801C25.3744 223.512 18.0092 194.384 16.0798 188.042C14.6158 183.23 14.1736 177.5 15.1253 175.67C15.4877 174.973 14.8646 173.428 12.804 169.913C8.31082 162.249 4.54309 154.058 3.33072 149.32C1.10391 140.617 0.954071 136.778 1.33633 98.1309C1.57495 74.0204 1.47372 54.2102 1.04623 41.3266C-0.31485 0.311703 -0.297302 3.22992 0.805359 2.01244C2.18567 0.487487 2.87781 0.623139 5.05032 2.84387ZM1.26846 3.54926C1.06036 4.37731 1.07394 9.6553 1.29843 15.2775C1.52295 20.9003 1.92896 30.969 2.20093 37.6527C2.47235 44.3364 2.58658 69.0629 2.45425 92.6014C2.21225 135.539 2.36264 140.234 4.23492 148.153C5.68872 154.301 11.0245 165.432 16.4004 173.528C18.526 176.73 18.9037 178.13 17.278 176.781C15.0393 174.925 15.2638 180.937 17.7603 189.725C19.4274 195.593 24.896 216.969 26.1904 222.677L26.5556 224.288L28.7921 221.166C31.3163 217.643 36.8455 213.686 41.773 211.877C45.9224 210.354 51.8949 209.479 58.1387 209.479C61.1764 209.479 63.2608 209.248 63.2608 208.913C63.2608 208.602 63.0352 208.348 62.7592 208.348C61.829 208.348 51.4521 198.135 48.8017 194.611C42.3786 186.07 39.5801 176.142 42.7133 173.011C43.9817 171.743 44.9249 172.01 43.7521 173.305C42.749 174.412 42.7642 174.435 44.5268 174.435C47.4452 174.435 52.1476 176.383 57.1582 179.667C62.6625 183.275 66.8741 187.347 70.6707 192.73C73.2746 196.423 76.8224 204.336 76.8405 206.493C76.8609 208.835 77.4014 208.967 84.454 208.349L91.1468 207.763L93.5897 205.512C94.9332 204.274 96.5471 203.261 97.1764 203.261C98.1089 203.261 98.3198 202.891 98.3198 201.259C98.3198 199.695 97.7917 198.674 95.9092 196.596C91.1338 191.326 82.7106 180.833 76.7579 172.739C74.9999 170.349 73.433 167.459 72.5231 164.928C71.9023 163.2 71.9232 163.117 72.7855 163.872C73.3007 164.323 74.3581 164.878 75.1356 165.106C76.4023 165.475 76.3135 165.272 74.2874 163.148C71.9288 160.675 69.5895 159.174 68.0955 159.174C67.0466 159.174 66.8735 162.559 67.8303 164.347C68.1668 164.975 68.2968 165.633 68.1198 165.81C67.9428 165.987 67.158 164.757 66.3754 163.077L64.9527 160.022L65.0963 162.943C65.2088 165.231 65.0867 165.735 64.5308 165.273C64.1406 164.95 63.6164 163.892 63.3648 162.922C62.9786 161.432 62.5652 161.099 60.6811 160.765C55.1339 159.781 45.6674 160.534 41.0005 162.33C38.9812 163.108 41.0786 160.404 44.6371 157.641C46.485 156.207 47.8885 154.924 47.7556 154.792C47.3344 154.371 40.7433 157.561 39.7362 158.673C38.6646 159.856 37.8147 160.061 37.8147 159.135C37.8147 158.281 40.9089 153.889 44.4482 149.719C46.1028 147.769 47.2388 146.174 46.973 146.174C46.0191 146.174 39.2521 152.742 36.7804 156.066L34.2596 159.457L34.6198 156.721C34.8177 155.216 35.4935 152.824 36.1211 151.405C36.7494 149.987 37.1571 148.72 37.0281 148.591C36.5735 148.136 33.4131 153.29 31.2694 157.982C30.0779 160.59 29.0143 162.459 28.9063 162.135C28.7983 161.811 29.5826 158.914 30.6496 155.697C40.2965 126.605 40.8846 123.967 40.888 109.718C40.8914 98.3626 40.1874 93.4661 36.3626 78.2454C29.0494 49.1436 7.85617 2.04409 2.07538 2.04409C1.83902 2.04409 1.47598 2.72122 1.26846 3.54926ZM74.6363 6.44204C74.34 6.99595 73.1813 11.8076 72.0611 17.1342C67.1795 40.359 58.9146 65.4857 50.8114 81.7396C49.3395 84.6929 46.8158 90.1416 45.2037 93.8482L42.2734 100.587L42.0619 110.805C41.8154 122.725 41.1046 126.645 36.6758 140.522C35.0382 145.651 33.5635 150.23 33.3978 150.696C33.2327 151.162 34.1165 150.272 35.3623 148.718C39.8 143.18 41.0475 143.106 38.4921 148.532C35.4833 154.921 35.6699 155.144 40.1948 150.562L44.4001 146.303L46.5438 137.902C49.633 125.791 52.5672 116.491 56.5272 106.261C63.0623 89.3751 63.8884 87.1001 66.1497 79.7614C70.7781 64.7402 75.437 44.6569 77.0865 32.6206L77.8295 27.1962L77.8962 31.4772C77.933 33.8313 78.3288 38.2824 78.7761 41.3685C81.0442 57.017 81.3518 84.4007 79.3845 95.5874C76.1715 113.864 68.5852 127.713 50.9404 147.513C45.1816 153.976 45.0335 154.207 46.9018 153.805C47.9682 153.576 49.0353 153.275 49.2728 153.135C50.635 152.333 68.3336 131.637 70.6933 128.087C81.3416 112.068 84.07 98.1388 83.4554 62.9439C82.9521 34.1241 80.5992 12.5294 77.3879 7.25087C76.1371 5.19574 75.4172 4.98378 74.6363 6.44204ZM10.2928 22.8158C10.4319 23.0492 10.9872 25.2355 11.5261 27.675C12.1537 30.5135 13.7076 34.483 15.8417 38.6967C22.076 51.0082 27.3841 65.7858 31.2807 81.678C34.2602 93.8285 35.2113 101.036 35.2056 111.413C35.1977 124.849 33.3922 132.979 26.2322 151.814C22.5233 161.572 22.4871 161.719 23.315 163.825C24.8615 167.761 23.2895 166.005 21.5546 161.859C19.053 155.88 17.6297 150.916 16.2777 143.46C15.1977 137.502 15.0337 133.745 14.6198 105.479C14.0169 64.3315 12.9731 43.6678 10.757 29.0332C9.79178 22.6575 9.73355 21.8787 10.2928 22.8158ZM13.1919 45.0367C14.5049 62.1074 14.5847 64.1026 14.9042 87.957C15.5132 133.371 15.8163 139.227 18.055 148.808C19.0434 153.037 21.4653 160.305 21.8866 160.305C22.6347 160.305 30.467 138.339 32.2742 131.173C34.0809 124.012 34.1222 123.571 34.1307 111.413C34.1397 98.2524 33.8547 95.7264 30.9833 83.537C28.6219 73.514 26.2463 65.5772 23.0017 56.8701C20.0477 48.9446 13.1292 33.8776 12.6599 34.3473C12.5117 34.4954 12.7514 39.3054 13.1919 45.0367ZM71.1423 64.7831C67.7986 77.6525 64.7904 86.9221 60.0534 98.9567C57.7328 104.851 54.591 113.372 53.071 117.891C50.4082 125.808 44.995 145.609 45.4926 145.609C45.6261 145.609 46.666 145.111 47.8031 144.501C48.9403 143.892 50.0865 143.527 50.3494 143.689C50.6129 143.852 49.3073 145.686 47.4486 147.764C43.2585 152.45 40.3689 156.348 41.0854 156.348C41.7684 156.348 48.3771 149.557 53.4612 143.631C67.681 127.056 74.7556 114.35 77.8578 99.8147C80.3328 88.2181 80.6093 65.0838 78.5131 45.0005C78.1727 41.7364 77.7532 38.6842 77.5807 38.2179C77.4088 37.7516 76.4017 41.5669 75.3431 46.6962C74.2851 51.8255 72.3942 59.9646 71.1423 64.7831ZM73.8192 166.381C74.4672 168.243 79.8188 175.846 85.2117 182.567C89.978 188.507 90.6554 189.147 91.0507 188.078C91.5806 186.645 92.5198 186.548 94.2354 187.75C95.8634 188.889 95.8255 188.608 93.8023 184.532C89.6246 176.115 82.3238 168.414 76.5018 166.282C73.5828 165.214 73.4149 165.22 73.8192 166.381ZM43.7521 167.112C44.9961 167.73 45.5051 168.084 44.883 167.898C41.8414 166.988 37.8192 166.954 36.4847 167.828C34.0334 169.434 34.263 175.443 37.0123 181.658C39.0943 186.363 38.1206 185.963 35.8129 181.165L33.7999 176.979L34.0747 179.522C34.2262 180.921 34.496 182.701 34.6746 183.479C34.9093 184.502 34.7244 184.345 34.004 182.913C32.968 180.855 32.6983 174.078 33.4866 169.892C34.1889 166.157 39.1379 164.817 43.7521 167.112ZM42.4498 177.948C42.097 183.424 46.4754 191.425 54.1132 199.264C58.3095 203.57 59.3189 204.366 59.0616 203.164C58.5572 200.812 59.1922 199.87 61.2822 199.87C63.7148 199.87 66.2425 202.226 68.0526 206.182L69.4323 209.196L72.8494 209.004C76.9106 208.777 76.9966 208.505 74.8907 202.54C70.6916 190.648 57.8091 178.195 47.0273 175.608C43.1748 174.684 42.6421 174.956 42.4498 177.948ZM98.7213 183.41C96.3079 184.071 95.2487 184.63 95.3353 185.197C95.4037 185.651 96.2474 188.272 97.2092 191.021C98.2124 193.889 99.0464 197.547 99.1652 199.605C99.28 201.577 99.6696 203.744 100.032 204.421C100.423 205.152 100.547 206.6 100.337 207.989C99.738 211.947 99.4813 212.056 95.5123 210.053C93.5704 209.074 91.6331 208.406 91.2074 208.569C90.1256 208.985 73.5857 209.941 60.4346 210.348C53.8553 210.552 47.9264 211.033 45.7324 211.542C41.1086 212.613 35.3035 215.633 32.2703 218.547C29.7602 220.957 25.0945 227.474 25.5514 227.931C25.7041 228.083 29.862 227.058 34.7906 225.652C48.3268 221.791 63.1788 218.439 79.0837 215.657C82.9656 214.979 86.4009 214.134 86.7175 213.781C87.0342 213.428 87.2315 213.246 87.1569 213.376C87.0817 213.507 87.3039 213.955 87.65 214.372C88.1131 214.93 88.112 215.131 87.6449 215.131C86.5869 215.131 86.9358 216.26 88 216.279C88.9426 216.296 88.9426 216.333 88 217.048C86.5914 218.117 86.7763 218.698 88.4241 218.383C90.0086 218.081 90.3139 218.764 88.9381 219.534C88.1957 219.95 88.3382 220.162 89.749 220.746C92.4615 221.869 94.7783 221.005 98.1852 217.6C99.8618 215.924 101.473 214.701 101.766 214.881C102.812 215.527 106.153 212.857 106.818 210.845C107.575 208.55 107.17 206.955 105.949 207.424C105.485 207.602 105.105 207.501 105.105 207.2C105.105 206.899 105.36 206.652 105.671 206.652C105.982 206.652 106.236 206.381 106.236 206.049C106.236 205.686 105.729 205.599 104.964 205.83C103.926 206.144 103.822 206.078 104.399 205.472C105.334 204.49 105.299 203.788 104.331 204.159C103.872 204.335 103.434 203.983 103.254 203.293C103.034 202.455 103.219 202.131 103.915 202.131C104.446 202.131 106.297 200.414 108.029 198.315C109.76 196.217 113.371 192.175 116.053 189.334L120.929 184.167L117.4 183.262C115.459 182.764 113.107 182.254 112.174 182.128C109.305 181.742 102.416 182.398 98.7213 183.41ZM115.654 191.533C112.076 195.341 108.602 199.157 107.934 200.011C105.844 202.687 108.095 201.893 112.025 198.57C113.973 196.923 117.334 194.189 119.494 192.497C123.42 189.42 123.421 189.419 121.898 188.883C119.38 187.998 120.137 187.25 123.185 187.61C124.731 187.793 126.143 187.706 126.323 187.415C126.615 186.942 123.476 184.616 122.538 184.611C122.329 184.61 119.231 187.724 115.654 191.533ZM126.593 188.222C126.593 188.345 126.975 188.591 127.441 188.77C127.908 188.949 128.29 188.849 128.29 188.548C128.29 188.247 127.908 188 127.441 188C126.975 188 126.593 188.1 126.593 188.222ZM118.086 194.981C114.638 197.733 111.897 200.059 111.995 200.151C112.549 200.67 120.897 197.923 124.937 195.893L129.655 193.522L127.527 191.572C126.357 190.5 125.164 189.703 124.878 189.801C124.591 189.898 121.535 192.23 118.086 194.981ZM125.222 196.869C122.902 198.016 121.132 199.16 121.288 199.412C121.444 199.664 120.983 199.874 120.265 199.879C119.547 199.883 116.561 201.236 113.629 202.885L108.3 205.882L108.153 208.669C108.072 210.203 108.372 213.29 108.818 215.531C109.264 217.771 109.629 222.378 109.629 225.767C109.629 231.293 109.493 232.13 108.308 233.876C107.27 235.404 106.909 236.905 106.625 240.878C105.973 250.015 103.743 254.642 98.8836 256.944C92.3185 260.053 84.1328 257.407 74.5701 249.083C71.6535 246.545 62.0784 238.832 59.0067 236.548C58.4181 236.111 51.6059 240.196 49.275 242.385C48.5699 243.047 47.9931 243.409 47.9931 243.19C47.9931 242.971 46.0208 244.109 43.6107 245.72C34.8307 251.586 28.7672 256.015 28.7672 256.563C28.7672 258.468 37.1446 265.728 38.1647 264.708C38.3293 264.544 37.1542 262.963 35.5528 261.196C32.2607 257.562 32.2109 256.466 35.4572 259.073C38.6375 261.628 42.6766 262.624 51.6687 263.073C59.7916 263.478 62.0903 263.495 70.8946 263.215L75.9838 263.054L71.1773 261.955C60.9859 259.625 65.1534 259.331 76.2665 261.596C85.7919 263.538 88.3404 263.831 92.9479 263.516C99.0153 263.101 101.375 262.345 103.997 259.978C107.192 257.093 111.299 247.607 111.318 243.07C111.327 241.07 112.836 235.66 113.5 235.25C113.746 235.098 113.846 235.786 113.72 236.78C113.542 238.193 114.322 237.232 117.299 232.37C124.151 221.178 127.743 212.086 127.858 205.649C127.923 201.972 128.811 201.525 129.089 205.029C129.334 208.11 130.597 211.446 131.175 210.535C132.02 209.201 131.693 204.802 130.506 201.565C128.447 195.946 128.434 196.1 130.795 197.9L132.918 199.518L132.017 197.364C131.522 196.18 131.117 195.114 131.117 194.997C131.117 194.337 128.948 195.026 125.222 196.869ZM88.1414 198.454C88.1414 198.549 87.1869 199.19 86.0209 199.877C84.048 201.038 83.9716 201.046 84.9267 199.989C85.7947 199.027 88.1414 197.907 88.1414 198.454ZM90.686 199.992C89.753 200.321 87.9078 201.309 86.5863 202.189C85.2648 203.068 84.1831 203.537 84.1831 203.229C84.1831 202.296 89.3962 199.302 90.9382 199.349C92.3451 199.393 92.3389 199.409 90.686 199.992ZM111.179 201.889C108.552 202.784 107.094 203.939 107.455 204.84C107.562 205.108 109.304 204.358 111.326 203.175C115.304 200.845 115.264 200.498 111.179 201.889ZM95.1911 204.968C92.2552 206.782 92.3535 207.529 95.7707 209.379C99.2144 211.244 99.4507 211.09 99.4507 206.983C99.4507 203.427 98.4516 202.954 95.1911 204.968ZM158.259 212.841C155.246 214.952 156.287 217.607 162.775 224.356C170.326 232.209 172.089 234.783 172.905 239.149C173.611 242.927 172.669 246.752 169.18 254.259C166.447 260.141 166.093 261.298 166.412 263.293C167.695 271.309 176.615 280.653 186.998 284.855C196.21 288.583 212.891 291.625 224.419 291.679C232.243 291.716 232.787 291.643 236.294 290.104C238.316 289.217 243.284 286.501 247.335 284.07C258.169 277.567 262.247 273.586 261.426 270.317C260.392 266.196 253.924 266.954 240.252 272.796C227.659 278.177 221.71 279.104 216.22 276.536C214.665 275.809 209.448 272.283 204.628 268.698C192.382 259.595 189.604 258.36 184.96 259.96C182.175 260.919 181.88 260.736 184.243 259.515C186.532 258.331 190.281 258.454 193.273 259.81C194.647 260.433 198.299 262.781 201.389 265.026C211.997 272.735 213.963 274.092 216.446 275.414C217.813 276.143 219.399 276.739 219.969 276.739C220.875 276.739 220.758 276.291 219.037 273.16C216.755 269.01 216.365 266.993 218.199 268.826C218.821 269.448 219.648 269.961 220.037 269.967C220.425 269.973 224.306 270.602 228.66 271.367C236.279 272.704 236.677 272.721 239.263 271.81C240.74 271.289 241.949 270.688 241.949 270.473C241.949 270.258 240.994 269.906 239.828 269.69C236.118 269.004 219.725 263.4 213.336 260.632C200.469 255.06 189.725 248.288 187.042 244.06C185.439 241.533 185.402 241.3 185.402 233.783C185.402 226.642 185.297 225.882 183.939 223.156C183.133 221.541 181.416 219.313 180.122 218.204C176.564 215.156 170.421 212.339 166.169 211.806C161.871 211.267 160.192 211.487 158.259 212.841ZM103.615 215.333L101.843 216.223L102.561 219.774C103.459 224.222 104.046 230.956 103.437 229.824C103.186 229.359 102.682 227.198 102.318 225.022C101.953 222.846 101.401 220.103 101.091 218.926L100.527 216.786L97.5954 219.35C95.2295 221.419 94.253 221.913 92.5334 221.913C91.3617 221.913 90.4032 222.086 90.4032 222.296C90.4032 223.983 94.1342 236.474 94.7981 237.01C96.1083 238.066 100.28 238.492 102.418 237.786C104.389 237.136 107.306 234.458 108.43 232.266C109.56 230.063 109.008 217.961 107.561 213.2C107.241 212.149 107.204 212.151 106.31 213.28C105.803 213.92 104.59 214.844 103.615 215.333ZM71.1773 218.484C53.7134 222.007 27.3513 228.466 24.7467 229.86C23.7753 230.379 20.7732 237.441 20.0245 240.968L19.6394 242.783L27.172 239.19C39.4076 233.354 59.9567 225.28 75.4183 220.231C82.0411 218.069 84.7486 216.895 84.7486 216.186C84.7486 215.904 84.1763 215.806 83.4763 215.967C82.7762 216.127 77.242 217.26 71.1773 218.484ZM83.5605 218.608C82.5036 218.967 80.9718 219.724 80.1564 220.291C79.341 220.857 75.2815 223.134 71.1349 225.348C62.3272 230.053 56.8755 233.623 57.3431 234.38C57.7209 234.991 57.3069 235.19 65.8365 230.285C69.2751 228.308 75.3154 225.043 79.2596 223.03C83.2043 221.017 86.4348 219.052 86.4382 218.663C86.4467 217.79 85.9994 217.782 83.5605 218.608ZM80.8497 223.417C74.8393 226.624 62.1213 233.894 60.3446 235.138C59.5191 235.716 60.0172 236.297 64.2158 239.655L69.0342 243.51L71.1372 242.562C72.5412 241.929 74.4491 241.656 76.8739 241.741C79.3823 241.828 81.0329 241.579 82.204 240.937C84.6338 239.605 87.4798 239.781 90.8782 241.474C95.795 243.923 99.2364 249.436 98.7869 254.144L98.5771 256.345L100.286 255.374C102.948 253.861 104.999 249.035 105.649 242.754C105.947 239.868 106.098 237.413 105.984 237.298C105.869 237.184 105.001 237.491 104.055 237.98C101.995 239.045 96.8971 239.134 94.931 238.14C93.7191 237.527 93.2289 236.322 91.4369 229.55C89.585 222.555 88.4999 220.218 87.1032 220.218C86.9618 220.218 84.148 221.658 80.8497 223.417ZM57.3233 227.836C46.6564 231.878 36.2732 236.291 26.6467 240.873L19.1542 244.44V248.155C19.1542 250.198 19.3657 251.87 19.6241 251.87C20.3134 251.87 21.3211 249.676 21.9267 246.856C22.9598 242.047 23.5717 243.076 23.2793 249.13C23.1069 252.692 23.2364 255.591 23.6101 256.544C24.1598 257.946 24.3447 258.035 25.3891 257.391C26.1779 256.906 26.4505 256.31 26.2333 255.544C26.0569 254.922 25.7934 253.65 25.6475 252.718C25.4027 251.147 25.4507 251.178 26.3035 253.141C26.8101 254.308 27.4593 255.261 27.7465 255.261C28.0338 255.261 30.2255 253.78 32.6175 251.969C35.0094 250.158 39.8928 246.677 43.4694 244.233C47.046 241.79 51.3854 238.364 53.1117 236.621C56.9581 232.74 62.0518 229.31 70.7532 224.742C74.4011 222.827 77.5128 221.053 77.6695 220.8C77.9929 220.277 69.741 223.131 57.3233 227.836ZM55.6122 235.935C55.7858 236.109 56.2422 235.935 56.6261 235.549C57.1803 234.99 57.1153 234.926 56.3095 235.232C55.7519 235.445 55.4381 235.761 55.6122 235.935ZM81.9789 241.696C81.4276 241.99 82.114 242.58 84.2408 243.643C87.3056 245.175 90.4032 247.683 90.4032 248.634C90.4032 248.915 89.602 248.47 88.6226 247.646C87.6432 246.823 85.2897 245.358 83.392 244.391C80.5223 242.929 79.2562 242.626 75.8656 242.589C72.8856 242.556 71.5517 242.781 70.9065 243.423C70.1069 244.22 70.466 244.679 74.7177 248.298C82.2814 254.735 87.892 257.534 93.1921 257.514C97.0057 257.5 97.6684 257.066 98.0812 254.316C98.399 252.196 98.1999 251.289 96.8349 248.637C93.6106 242.375 86.7379 239.164 81.9789 241.696ZM25.4044 259.839C26.179 261.286 26.5053 261.191 26.5053 259.518C26.5053 258.517 26.2684 258.214 25.6673 258.444C25.0334 258.687 24.9695 259.027 25.4044 259.839ZM90.2268 264.305H84.1056L86.6265 266.989C94.1003 274.949 101.02 286.663 107.029 301.527C109.555 307.775 114.192 321.578 114.962 325.142C115.269 326.561 115.705 326.986 117.144 327.274C118.134 327.472 119.886 328.391 121.039 329.317C122.349 330.369 123.789 331 124.882 331C125.843 331 127.546 331.383 128.667 331.851C131.08 332.858 137.495 337.534 139.846 339.998C141.294 341.516 141.893 341.739 144.511 341.739C146.164 341.739 147.516 341.526 147.516 341.265C147.516 340.495 141.341 319.144 140.069 315.515C134.216 298.819 125.855 286.098 114.854 277.149C109.767 273.012 104.964 270.099 104.672 270.975C104.547 271.348 104.247 271.652 104.004 271.652C103.619 271.652 101.334 266.92 100.403 264.194C100.131 263.398 99.7601 263.327 98.2118 263.77C97.1866 264.064 93.5936 264.305 90.2268 264.305ZM70.911 264.278C70.8002 264.457 71.658 265.618 72.8177 266.856C74.7019 268.869 75.2244 269.115 77.717 269.163C81.1104 269.228 84.3279 270.795 87.0104 273.688L88.9896 275.822L87.084 274.282C84.493 272.188 82.6252 271.291 79.92 270.842C71.1117 269.38 65.1183 277.059 59.6553 296.804C55.2747 312.637 53.9345 321.911 53.9385 336.37C53.9413 349.409 54.2212 350.43 58.3344 352.421C62.7439 354.554 65.927 354.177 86.7277 349.061C98.8457 346.081 113.768 343.182 119.242 342.745C121.135 342.594 121.213 342.502 121.028 340.634C120.781 338.133 118.975 334.287 117.376 332.857C114.852 330.6 99.8415 327.753 83.6176 326.452C75.6649 325.815 72.8472 325.348 76.9547 325.348H78.9621L79.3704 321.533C79.898 316.606 82.17 308.769 83.9586 305.707C84.7305 304.386 85.4605 303.304 85.5809 303.304C85.7014 303.304 85.2049 304.769 84.4777 306.558C83.0488 310.073 81.6837 316.226 81.1115 321.732L80.753 325.181L88.8296 325.505C96.0348 325.794 101.205 326.579 112.881 329.155C113.964 329.395 114.153 329.202 114.153 327.851C114.153 325.706 110.158 312.624 107.125 304.837C100.547 287.949 93.359 275.596 84.9148 266.667L82.0711 263.659L76.5922 263.805C73.5789 263.885 71.0224 264.098 70.911 264.278ZM107.678 270.422C107.973 270.678 109.615 271.865 111.326 273.061C123.101 281.291 132.938 294.265 138.971 309.522C140.507 313.408 143.376 322.269 145.347 329.214L148.929 341.841L155.715 341.491C168.509 340.831 180.597 339.963 182.538 339.564C184.784 339.102 184.825 339 186.548 329.587C187.999 321.66 189.761 307.096 190.249 298.999L190.627 292.714L187.986 292.318C183.646 291.668 180.223 290.461 176.694 288.336C174.859 287.232 173.296 286.397 173.219 286.48C173.143 286.563 172.644 288.793 172.11 291.435C170.703 298.399 167.181 309.845 162.37 323.087C157.67 336.024 156.163 338.98 157.729 332.19C158.224 330.044 158.155 329.543 157.227 328.516C155.533 326.642 149.796 317.854 144.827 309.522C136.865 296.17 126.938 283.045 120.768 277.71C115.949 273.543 114.048 272.299 110.609 271.062C107.221 269.843 106.939 269.781 107.678 270.422ZM220.642 273.489C222.54 276.435 222.574 276.456 225.325 276.376C228.061 276.296 234.966 274.093 234.365 273.492C234.105 273.232 221.72 270.825 219.455 270.595C219.045 270.554 219.56 271.808 220.642 273.489ZM260.737 274.992C259.411 276.784 259.818 277.304 262.547 277.304C263.251 277.304 265.329 277.827 267.166 278.467C272.357 280.272 272.484 280.301 272.484 279.64C272.484 278.208 269.195 275.469 266.259 274.456C262.216 273.061 262.161 273.066 260.737 274.992ZM170.114 279.49C171.8 285.746 181.243 291.435 189.944 291.435C192.598 291.435 193.56 291.173 194.789 290.116L196.323 288.797L191.287 287.228C188.517 286.364 185.105 285.077 183.706 284.368C180.339 282.66 174.859 278.591 172.396 275.97L170.417 273.863L169.942 275.476C169.652 276.461 169.719 278.023 170.114 279.49ZM254.84 280.33C252.882 281.683 249.371 283.908 247.039 285.275C243.042 287.619 242.897 287.772 244.495 287.957C245.427 288.064 251.025 288.047 256.934 287.918C265.614 287.728 268.14 287.489 270.086 286.67C272.658 285.587 273.727 283.606 272.521 282.153C271.047 280.378 264.118 278.047 259.93 277.917C258.992 277.888 257.025 278.82 254.84 280.33ZM115.058 285.121C120.768 289.263 126.102 297.202 127.993 304.378C128.952 308.018 128.395 307.583 126.618 303.304C124.753 298.811 119.96 291.677 115.871 287.309C113.922 285.226 112.445 283.522 112.589 283.522C112.734 283.522 113.845 284.241 115.058 285.121ZM155.724 324.641C156.268 325.497 157.236 326.772 157.876 327.476L159.039 328.757L160.062 326.063C160.625 324.582 161.086 323.306 161.086 323.228C161.087 323.15 159.658 323.087 157.912 323.087H154.737L155.724 324.641ZM188.472 325.772C188.266 326.938 187.616 330.284 187.027 333.208C186.438 336.133 186.057 338.626 186.179 338.749C186.302 338.871 188.277 338.768 190.567 338.519L194.732 338.065L195.218 331.709C195.485 328.214 195.557 324.971 195.377 324.503C195.141 323.888 194.189 323.652 191.948 323.652H188.846L188.472 325.772ZM198.75 325.207C198.186 327.075 196.589 337.284 196.825 337.519C197.151 337.845 208.366 336.142 210.009 335.518C211.36 335.005 212.163 333.088 212.903 328.607C213.327 326.041 213.431 326.092 205.697 325.099C202.466 324.684 199.648 324.316 199.435 324.281C199.223 324.246 198.915 324.663 198.75 325.207ZM196.223 329.163C196.265 331.883 196.414 333.473 196.554 332.696C196.693 331.919 197.137 329.693 197.539 327.75C198.23 324.411 198.212 324.217 197.208 324.217C196.244 324.217 196.153 324.674 196.223 329.163ZM213.187 331.141C212.206 334.685 212.199 334.957 213.087 334.957C215.098 334.957 225.705 331.652 226.595 330.749C227.464 329.867 227.456 329.746 226.476 329.02C225.897 328.591 223.989 328.067 222.235 327.856C220.482 327.645 218.029 327.3 216.785 327.089C215.541 326.878 214.461 326.846 214.384 327.016C214.307 327.187 213.769 329.043 213.187 331.141ZM114.857 329.16C114.73 329.546 115.275 330.109 116.067 330.41C118.756 331.432 121.168 335.629 122.341 341.332C122.629 342.731 122.886 342.888 124.683 342.767L126.7 342.632L126.338 340.372C125.874 337.468 124.055 333.368 122.466 331.638C119.667 328.594 115.49 327.233 114.857 329.16ZM48.178 334.694C47.8127 337.481 47.4949 340.969 47.4712 342.446L47.4277 345.13H50.3155C52.7165 345.13 53.1457 344.98 52.8601 344.236C52.6712 343.745 52.5169 340.089 52.5169 336.112V328.882L50.6791 329.255L48.8413 329.628L48.178 334.694ZM40.3593 330.885L35.2701 331.859L34.829 337.178C34.587 340.103 34.5961 342.705 34.8494 342.958C35.4341 343.542 40.0777 344.421 43.7521 344.643L46.5795 344.813L46.9436 339.664C47.1438 336.832 47.4842 333.47 47.6996 332.193C48.1707 329.408 48.1243 329.4 40.3593 330.885ZM125.176 334.533C125.945 336.165 126.843 338.581 127.171 339.902L127.768 342.304L132.977 342.265C140.627 342.206 140.969 341.935 137.27 338.854C131.056 333.679 128.6 332.322 124.196 331.631C123.966 331.595 124.407 332.9 125.176 334.533ZM32.7673 335.098C32.7905 336.73 33.0133 339.21 33.2621 340.609L33.715 343.152L33.7908 340.609C33.8321 339.21 34.0266 336.73 34.2228 335.098C34.5254 332.58 34.4388 332.13 33.6523 332.13C32.9059 332.13 32.7334 332.708 32.7673 335.098ZM23.57 335.292C19.3488 337.186 20.5181 339.204 26.9854 341.185C29.0539 341.818 31.2106 342.48 31.7783 342.655C32.7091 342.941 32.7764 342.705 32.4637 340.236C32.2737 338.732 31.9881 336.445 31.8303 335.156L31.5425 332.812L28.5998 333.584C26.9815 334.008 24.7179 334.777 23.57 335.292ZM12.7927 338.066C15.5788 340.062 13.5669 342.441 8.12875 343.581C4.1405 344.417 2.19019 343.642 2.19019 341.219C2.19019 339.295 2.64426 338.919 5.8222 338.213C10.5179 337.17 11.5125 337.149 12.7927 338.066ZM9.93146 339.232C11.1653 340.167 10.9527 340.207 8.49573 339.503C6.18011 338.839 3.50659 339.31 3.06497 340.461C2.10651 342.957 6.91241 343.695 11.059 341.689C12.4014 341.039 13.4995 340.264 13.4995 339.966C13.4995 339.295 10.0084 337.776 9.37164 338.17C9.11661 338.328 9.3688 338.805 9.93146 339.232ZM211.187 344.467C213.51 346.149 216.503 349.702 216.503 350.777C216.503 351.126 215.294 351.97 213.817 352.651C211.41 353.762 210.201 353.891 202.179 353.891C194.177 353.891 193.148 353.782 192.475 352.863C190.877 350.679 193.259 346.536 196.459 345.935C197.478 345.744 198.887 344.976 199.59 344.229C200.708 343.038 201.37 342.87 204.924 342.87C208.48 342.87 209.255 343.067 211.187 344.467ZM200.888 344.424C199.942 345.367 200.019 345.427 202.51 345.718C205.011 346.009 207.455 347.487 207.455 348.708C207.455 349.025 206.866 348.731 206.147 348.055C205.023 347 204.183 346.826 200.209 346.826C196.354 346.826 195.394 347.013 194.464 347.942C193.234 349.171 192.392 351.74 193.014 352.364C193.635 352.986 206.894 353.453 209.623 352.949C212.693 352.38 215.089 351.255 215.089 350.381C215.089 349.47 210.35 344.564 208.905 343.979C206.716 343.093 201.959 343.357 200.888 344.424ZM40.8303 355.116C41.4088 355.694 41.2782 357 40.642 357C40.331 357 40.1405 356.682 40.2179 356.293C40.4464 355.153 35.33 355.043 34.2076 356.165C33.4487 356.923 33.2909 356.94 33.2909 356.258C33.2909 355.806 33.8632 355.283 34.5632 355.095C36.2806 354.635 40.3633 354.649 40.8303 355.116Z" fill="#121931"/>
</svg>
