<svg width="506" height="361" viewBox="0 0 506 361" fill="none" xmlns="http://www.w3.org/2000/svg">
<path fill-rule="evenodd" clip-rule="evenodd" d="M148.552 0.717486C144.23 1.09643 140.641 1.45957 140.576 1.52422C140.467 1.63314 148.143 93.5636 148.301 94.0436C148.348 94.1876 149.05 94.2049 150.419 94.096C156.222 93.6337 165.122 92.865 165.164 92.8223C165.191 92.7955 164.299 82.0199 163.181 68.8765L161.15 44.9796L161.582 44.1653C162.278 42.856 163.923 41.1958 165.093 40.6227C166.578 39.8951 169.133 39.5434 170.629 39.8608C173.868 40.5481 175.564 42.7683 176.337 47.3326C176.571 48.7104 180.178 89.9918 180.178 91.2854C180.178 91.5849 179.723 91.6101 190.651 90.7063C194.185 90.4142 197.107 90.1446 197.144 90.1076C197.232 90.0197 193.748 48.6788 193.446 46.2268C192.075 35.092 187.682 28.0451 180.742 25.8496C175.937 24.3297 170.57 24.857 166.276 27.2706C164.803 28.0985 161.801 30.7918 160.694 32.2795C160.447 32.6113 160.216 32.8451 160.182 32.7992C160.147 32.7531 159.629 26.8224 159.032 19.6198C158.434 12.4173 157.863 5.77592 157.763 4.86131C157.664 3.94669 157.52 2.47334 157.445 1.58741C157.32 0.105111 157.273 -0.0214799 156.86 0.00242476C156.612 0.0165597 152.874 0.338338 148.552 0.717486ZM271.201 1.69716C267.205 2.04243 263.91 2.34446 263.879 2.36815C263.848 2.39185 264.124 5.97568 264.492 10.3321C264.861 14.6886 265.103 18.3124 265.031 18.3847C264.959 18.457 263.281 18.656 261.304 18.8266C259.326 18.9975 257.669 19.1756 257.622 19.2226C257.525 19.3188 258.394 30.3038 258.573 31.2375L258.688 31.8382L260.689 31.7029C261.79 31.6287 263.491 31.51 264.469 31.4391L266.247 31.3105L266.482 34.0915C269.48 69.5997 269.378 68.5437 270.089 71.3786C270.967 74.8778 272.321 77.5188 274.283 79.5563C277.106 82.4872 280.456 83.7508 285.382 83.7425C289.133 83.7363 291.698 83.2819 294.917 82.054C296.626 81.4019 296.629 81.3992 296.627 80.6509C296.623 79.5428 295.608 68.3115 295.502 68.2055C295.47 68.1741 294.801 68.2984 294.013 68.4816C292.025 68.9443 289.327 68.9187 288.493 68.4296C287.486 67.8386 286.71 66.7099 286.356 65.3245C286.04 64.0808 283.052 30.1323 283.243 29.9415C283.294 29.8901 285.213 29.6835 287.507 29.4825C289.801 29.2815 291.733 29.0618 291.8 28.9946C291.974 28.8202 290.931 16.6503 290.724 16.4432C290.67 16.3894 288.736 16.4944 286.425 16.6767C284.114 16.859 282.181 16.9654 282.129 16.9134C282.077 16.8614 281.867 14.7832 281.662 12.2952C281.313 8.06453 281.004 4.67485 280.732 2.10707L280.616 1.01577L279.541 1.04259C278.95 1.05756 275.197 1.3521 271.201 1.69716ZM122.833 7.76416C118.637 8.13126 115.144 8.49211 115.07 8.56591C114.996 8.63949 114.256 19.0143 113.424 31.6206C111.778 56.5696 111.27 64.0237 111.202 64.2511C111.178 64.3324 108.599 55.1654 105.47 43.8802C98.3846 18.3215 96.138 10.3299 96 10.1916C95.9146 10.1062 81.5994 11.1919 81.4307 11.2964C81.4066 11.3114 80.3554 21.4218 79.0948 33.7639C75.8134 65.8903 75.6834 67.1176 75.5633 67.1157C75.5035 67.1149 73.2645 57.9247 70.5878 46.6928C65.1119 23.7158 62.5375 13.0573 62.442 12.9677C62.3785 12.908 45.1912 14.3344 45.1034 14.4065C45.0789 14.4269 50.2659 33.8953 56.6303 57.6696L68.2019 100.896L70.2715 100.826C72.6281 100.746 85.7035 99.6499 85.8016 99.5236C85.8369 99.478 87.1582 87.7013 88.7374 73.3534C90.3167 59.0054 91.6682 47.1962 91.7409 47.1108C91.8793 46.9481 92.165 47.9257 100.958 78.654L106.43 97.7777L107.341 97.7201C108.889 97.622 115.727 97.0761 120.025 96.7074L124.117 96.3563L124.23 95.508C124.485 93.5964 132.227 8.41167 132.227 7.52117C132.227 6.91919 132.602 6.90962 122.833 7.76416ZM319.463 12.7567C309.927 14.3282 303.134 20.0884 301.271 28.1817C300.731 30.5291 300.781 34.5985 301.38 37.0806C302.855 43.188 306.993 47.375 314.705 50.5637C315.685 50.9686 318.394 51.9506 320.725 52.7457C330.739 56.1613 333.232 57.9062 333.242 61.505C333.252 65.3106 330.656 67.2123 325.483 67.1895C322.68 67.1772 321.326 66.6977 319.768 65.1676C318.619 64.0374 317.973 62.6807 317.692 60.8047C317.61 60.2571 317.417 59.7605 317.263 59.7013C316.988 59.5957 301.597 60.8265 301.458 60.9653C301.3 61.1239 301.876 63.9931 302.351 65.4091C303.554 68.999 305.223 71.5782 308.11 74.3087C311.112 77.1478 314.367 78.8868 318.489 79.8523C320.108 80.2312 321.042 80.2998 324.652 80.3048C328.258 80.3098 329.262 80.2393 331.232 79.8421C340.91 77.8898 347.085 72.8314 349.177 65.1426C349.815 62.7973 349.826 58.2281 349.199 55.6826C348.263 51.8851 346.934 49.5073 344.421 47.1326C341.001 43.902 337.568 42.2763 327.351 39.0493C320.614 36.9214 317.732 35.0997 317.204 32.6367C316.9 31.2159 316.911 30.8153 317.285 29.5515C317.704 28.1397 319.119 26.5751 320.524 25.9697C322.939 24.9294 326.026 25.2437 327.728 26.7029C328.951 27.751 329.564 29.0532 330.146 31.8347C330.243 32.2968 330.357 32.3901 330.729 32.3115C330.983 32.2577 332.078 32.1575 333.163 32.0889C334.248 32.0203 337.779 31.7358 341.01 31.4564C344.242 31.177 346.94 30.9486 347.007 30.9486C347.074 30.9486 347.066 30.4202 346.99 29.7743C346.682 27.1527 345.664 24.1068 344.338 21.8409C343.275 20.0264 339.816 16.6831 337.858 15.5791C335.977 14.5184 333.181 13.4227 331.145 12.9477C329.157 12.4844 321.842 12.3647 319.463 12.7567ZM226.2 20.5762C221.64 21.0822 216.352 23.0796 213.183 25.4923C209.74 28.1141 207.127 31.699 205.918 35.4595C205.256 37.5178 204.706 41.661 204.96 42.6747L205.108 43.2647L207.225 43.1204C208.39 43.0412 212.048 42.7487 215.356 42.4708C218.663 42.1929 221.475 41.9655 221.604 41.9655C221.75 41.9655 221.887 41.317 221.964 40.2506C222.186 37.2089 223.08 35.5755 225.088 34.5409C225.951 34.0961 226.515 33.9747 228.025 33.9088C229.752 33.8335 229.979 33.8718 231.033 34.4145C233.367 35.6164 234.16 37.4982 234.663 43.0275C234.842 44.9912 234.963 46.619 234.932 46.645C234.9 46.671 233.126 46.8506 230.989 47.0439C221.516 47.9015 215.704 50.1243 211.418 54.5294C207.548 58.5077 205.915 63.2456 206.184 69.7157C206.461 76.3772 208.738 81.3385 213.13 84.8473C215.02 86.3575 216.44 87.1324 218.684 87.8776C221.22 88.7199 223.569 89.0302 226.249 88.8766C231.199 88.5931 235.065 86.5762 237.815 82.8435C238.665 81.6905 238.719 81.6535 238.884 82.116C238.98 82.3841 239.314 83.3185 239.626 84.1926C240.547 86.7676 239.543 86.5811 248.481 85.8374C258.093 85.0375 257.605 85.1113 257.605 84.4588C257.605 84.1749 257.337 83.4074 257.011 82.7533C255.944 80.616 255.12 77.6732 254.613 74.1848C254.438 72.9844 253.637 64.2852 252.832 54.8532C252.028 45.4213 251.229 37.0494 251.058 36.2492C250.065 31.6127 248.424 28.5783 245.308 25.6197C242.722 23.1646 239.614 21.6486 235.563 20.8668C233.426 20.4546 228.635 20.306 226.2 20.5762ZM235.809 57.0878C235.809 57.1736 235.909 58.2726 236.03 59.5302C236.151 60.7878 236.421 63.7811 236.63 66.182C237.002 70.4665 237.002 70.5592 236.612 71.2026C235.281 73.3989 232.026 75.0481 228.993 75.063C227.375 75.071 226.253 74.6639 225.256 73.7065C224.016 72.5167 223.433 71.0697 223.161 68.5055C222.789 65.0042 223.602 62.1392 225.565 60.0378C226.739 58.7813 227.798 58.1286 229.421 57.6625C231.145 57.1672 235.809 56.7475 235.809 57.0878ZM289.157 118.447C289.157 118.894 282.396 210.311 282.131 213.455C282.017 214.808 282.035 215.478 282.187 215.583C282.31 215.667 282.965 215.737 283.643 215.739C284.322 215.741 285.91 215.836 287.172 215.95C290.06 216.212 300.905 216.991 301.643 216.99C302.164 216.989 302.201 216.92 302.341 215.69C302.422 214.976 302.536 214.312 302.593 214.215C302.651 214.119 303.084 214.412 303.556 214.866C305.648 216.882 308.558 218.302 311.783 218.884C313.733 219.235 318.951 219.238 320.605 218.889C324.941 217.972 328.026 216.304 330.895 213.322C332.808 211.335 333.883 209.769 335.242 206.985C337.935 201.471 339.331 194.807 340.136 183.627C341.131 169.816 339.435 160.273 334.953 154.458C331.276 149.687 326.007 147.097 318.974 146.602C315.721 146.373 312.851 146.929 310.049 148.332C309.266 148.723 308.606 149.014 308.582 148.978C308.557 148.942 308.934 143.628 309.418 137.168C309.903 130.709 310.356 124.535 310.425 123.449C310.494 122.363 310.603 121.03 310.667 120.487C310.782 119.513 310.776 119.5 310.193 119.5C309.869 119.5 305.232 119.172 299.89 118.772C294.548 118.372 289.947 118.045 289.667 118.045C289.3 118.045 289.157 118.158 289.157 118.447ZM238.012 119.254C237.803 119.592 202.389 209.327 202.389 209.518C202.389 209.626 202.624 209.714 202.911 209.714C203.199 209.714 205.137 209.853 207.219 210.024C215.384 210.693 225.648 211.395 225.809 211.295C225.902 211.237 227.32 207.257 228.96 202.449L231.941 193.708L232.785 193.712C234.711 193.722 252.482 195.148 252.627 195.304C252.714 195.398 252.938 196.364 253.125 197.45C253.766 201.167 256.099 213.472 256.177 213.546C256.384 213.742 279.557 215.447 279.725 215.279C279.809 215.194 263.708 146.358 258.407 124.137L257.554 120.563L256.49 120.443C255.55 120.338 238.766 119.084 238.299 119.084C238.199 119.084 238.07 119.16 238.012 119.254ZM300.415 121.134C304.609 121.451 308.087 121.758 308.143 121.814C308.2 121.87 308.153 122.987 308.039 124.294C307.926 125.601 307.416 132.517 306.905 139.663C306.395 146.808 305.929 153.066 305.87 153.57L305.762 154.485L306.956 153.351C310.634 149.856 314.737 148.464 319.76 149.006C329.795 150.088 335.561 155.938 337.391 166.893C338.367 172.734 338.342 179.755 337.311 189.551C335.909 202.865 331.793 211.394 325.08 214.891C320.25 217.408 312.748 217.58 308.15 215.28C305.976 214.192 303.029 211.374 301.687 209.099C301.482 208.751 301.262 208.467 301.199 208.467C301.136 208.467 300.886 209.782 300.644 211.389C300.402 212.996 300.148 214.366 300.081 214.433C300.013 214.501 297.785 214.396 295.128 214.2C292.472 214.004 289.041 213.752 287.504 213.64C285.967 213.529 284.665 213.392 284.609 213.336C284.507 213.234 291.206 121.287 291.35 120.799C291.451 120.458 291.541 120.461 300.415 121.134ZM247.952 122.117C252.062 122.417 255.491 122.723 255.571 122.797C255.652 122.871 257.822 131.864 260.393 142.782C262.965 153.699 267.724 173.904 270.969 187.68C274.213 201.456 276.84 212.757 276.806 212.794C276.771 212.83 273.535 212.61 269.613 212.306C265.691 212.001 261.523 211.702 260.35 211.641C259.177 211.58 258.182 211.472 258.139 211.401C258.096 211.331 257.58 208.654 256.992 205.453C256.405 202.251 255.635 198.112 255.282 196.254L254.639 192.877L253.994 192.875C253.639 192.874 248.352 192.5 242.244 192.044C236.136 191.588 230.952 191.216 230.723 191.217C230.362 191.218 229.917 192.365 227.298 200.05L224.288 208.882L223.666 208.881C223.323 208.88 220.614 208.692 217.646 208.464C214.677 208.235 210.801 207.946 209.031 207.822C207.262 207.698 205.776 207.558 205.729 207.513C205.682 207.468 211.603 192.346 218.887 173.91C241.572 116.492 239.517 121.579 240.028 121.575C240.276 121.573 243.842 121.817 247.952 122.117ZM474.871 144.392C474.803 145.049 474.552 148.44 474.311 151.927C474.071 155.414 473.829 158.49 473.773 158.763C473.672 159.254 473.648 159.259 471.866 159.13C470.873 159.058 469.165 158.938 468.07 158.864L466.079 158.73L465.94 160.473C465.618 164.528 464.771 175.749 464.769 175.987C464.768 176.155 465.08 176.246 465.65 176.245C466.135 176.243 467.874 176.355 469.513 176.493L472.494 176.743L472.368 178.106C472.298 178.856 472.192 180.171 472.13 181.028C472.069 181.886 471.555 188.915 470.988 196.648C470.421 204.382 469.958 211.444 469.959 212.342C469.966 219.104 472.142 224.599 476.123 227.906C481.117 232.054 490.297 233.31 498.062 230.908L499.358 230.507L499.719 225.671C500.386 216.749 500.674 212.55 500.624 212.5C500.597 212.473 499.594 212.687 498.396 212.975C496.418 213.452 496.048 213.481 494.381 213.295C491.913 213.019 491.87 212.966 491.805 210.175C491.751 207.875 493.845 178.656 494.08 178.421C494.152 178.348 496.105 178.436 498.419 178.614C500.733 178.793 502.666 178.9 502.714 178.851C502.824 178.741 503.994 163.561 503.998 162.191L504 161.542L500.938 161.298C499.254 161.163 497.282 161.002 496.556 160.94L495.236 160.827L495.36 159.339C496.219 148.969 496.465 144.821 496.223 144.74C495.982 144.66 476.365 143.197 475.528 143.197C475.029 143.197 474.984 143.277 474.871 144.392ZM486.289 146.278C490.42 146.586 493.837 146.885 493.884 146.941C493.931 146.997 493.891 147.977 493.795 149.121C493.296 155.115 492.801 162.816 492.91 162.924C493.038 163.053 494.898 163.22 499.09 163.481L501.549 163.634L501.414 165.731C501.148 169.859 500.649 176.346 500.593 176.402C500.562 176.434 498.599 176.31 496.232 176.127C493.865 175.944 491.902 175.826 491.869 175.865C491.743 176.016 489.411 208.464 489.407 210.13C489.399 212.965 490.072 214.43 491.734 215.192C492.547 215.565 493.089 215.63 495.437 215.633L498.187 215.638L498.082 216.262C498.025 216.605 497.839 218.99 497.67 221.562C497.501 224.135 497.304 226.819 497.233 227.527L497.104 228.815L495.676 229.14C490.819 230.246 485.234 229.866 480.992 228.14C478.051 226.943 475.486 224.458 474.096 221.458C473.09 219.287 472.698 217.665 472.413 214.495C472.197 212.089 472.251 210.924 473.148 198.801C473.681 191.598 474.251 184.022 474.414 181.964C474.577 179.906 474.769 177.413 474.841 176.424L474.973 174.627L474.177 174.502C473.74 174.433 472.038 174.286 470.395 174.175C468.753 174.063 467.381 173.945 467.348 173.912C467.228 173.791 468.204 161.512 468.345 161.371C468.425 161.29 470.134 161.341 472.142 161.483C474.15 161.626 475.823 161.708 475.858 161.667C475.928 161.587 477.023 146.941 477.018 146.159C477.014 145.566 476.723 145.562 486.289 146.278ZM245.201 147.706C244.861 148.712 242.507 155.605 239.968 163.023C236.711 172.539 235.424 176.553 235.596 176.66C235.729 176.742 236.743 176.867 237.848 176.936C238.953 177.005 242.505 177.259 245.742 177.5C248.978 177.741 251.675 177.889 251.735 177.829C251.834 177.73 250.308 169.211 247.952 156.708C247.446 154.021 246.787 150.513 246.487 148.913C246.188 147.312 245.914 145.974 245.88 145.939C245.846 145.904 245.54 146.699 245.201 147.706ZM367.939 151.01C366.915 151.169 365.187 151.577 364.099 151.916C354.675 154.854 348.233 162.381 345.41 173.753C344.288 178.272 343.542 185.456 343.542 191.737C343.542 201.737 346.396 209.799 351.924 215.418C354.199 217.729 356.074 219.098 358.799 220.435C362.849 222.423 367.252 223.325 372.811 223.305C376.996 223.291 379.474 222.873 382.657 221.644C386.422 220.19 388.891 218.533 391.822 215.493C395.694 211.476 398.35 206.407 399.863 200.145C401.583 193.027 402.158 180.926 401.068 174.792C398.652 161.193 390.137 152.707 377.174 150.979C374.45 150.616 370.383 150.629 367.939 151.01ZM378.243 153.469C387.762 155.188 394.898 161.524 397.693 170.739C399.348 176.196 399.695 180.791 399.068 188.927C398.677 193.997 398.455 195.696 397.796 198.673C395.454 209.245 389.719 216.63 381.581 219.557C373.866 222.331 363.823 221.207 357.261 216.835C353.966 214.639 350.501 210.59 348.895 207.056C346.944 202.766 345.825 197.144 345.826 191.629C345.826 189.196 346.38 181.846 346.782 178.95C348.84 164.104 356.801 154.901 369.074 153.18C370.949 152.917 376.082 153.079 378.243 153.469ZM409.552 154.905C409.552 155.056 408.805 165.268 407.891 177.598C405.896 204.535 405.835 207.158 407.086 212.09C408.349 217.071 410.815 221.042 414.319 223.738C417.616 226.276 422.157 227.519 427.461 227.336C430.894 227.217 432.673 226.785 435.447 225.394L437.575 224.328V225.714V227.099L440.948 227.353C451.232 228.127 458.006 228.61 458.037 228.57C458.078 228.521 462.604 167.541 462.975 162.051C463.206 158.631 463.202 158.559 462.796 158.477C462.187 158.355 441.688 156.882 441.635 156.956C441.61 156.991 440.821 167.543 439.88 180.405C438.94 193.266 438.116 204.297 438.048 204.917C437.894 206.323 437.034 207.36 435.325 208.201C434.293 208.708 433.917 208.778 432.236 208.772C429.977 208.763 429.452 208.493 428.675 206.941C427.618 204.83 427.62 204.759 429.264 182.691C431.013 159.215 431.216 156.299 431.11 156.193C431.018 156.101 411.441 154.629 410.313 154.629C409.819 154.629 409.552 154.726 409.552 154.905ZM245.987 158.994C246.56 162.195 247.217 165.722 248.641 173.233C248.857 174.377 249.014 175.338 248.989 175.37C248.939 175.433 240.861 174.837 239.373 174.66C238.765 174.588 238.507 174.469 238.575 174.292C238.63 174.148 240.079 169.922 241.794 164.901C245.322 154.573 245.207 154.893 245.281 155.159C245.311 155.268 245.629 156.994 245.987 158.994ZM420.832 157.684L428.687 158.254L428.548 160.339C428.472 161.486 427.763 171.209 426.972 181.946C426.182 192.683 425.537 202.13 425.539 202.94C425.546 205.963 426.516 208.703 428.019 209.951C429.767 211.402 433.6 211.599 436.217 210.372C437.6 209.724 439.464 208.07 440.017 207C440.187 206.669 440.883 198.32 442.011 183.05C442.964 170.157 443.792 159.56 443.85 159.501C443.954 159.396 460.627 160.585 460.717 160.703C460.741 160.735 460.687 161.603 460.596 162.632C460.505 163.661 459.422 178.285 458.189 195.129C456.957 211.974 455.896 225.839 455.834 225.941C455.768 226.047 453.461 225.95 450.435 225.715C447.529 225.49 444.358 225.254 443.387 225.191C442.417 225.128 441.225 225.028 440.738 224.969L439.854 224.862L439.985 221.913L440.117 218.964L439.106 219.923C435.438 223.4 432.232 224.811 427.507 225.029C422.22 225.273 417.723 223.799 414.469 220.755C410.522 217.063 408.534 211.443 408.506 203.894C408.5 202.307 409.197 191.536 410.109 179.105L411.723 157.124L412.35 157.118C412.695 157.115 416.512 157.37 420.832 157.684ZM310.018 163.013C308.583 163.493 307.415 164.189 306.494 165.111C304.8 166.807 304.998 165.571 303.776 182.094L302.667 197.087L303.093 197.921C304.311 200.312 306.725 201.868 309.75 202.212C315.221 202.835 318.208 200.556 319.461 194.805C320.796 188.678 321.702 173.279 320.937 169.7C320.266 166.554 318.529 164.238 316.172 163.345C314.688 162.784 311.258 162.598 310.018 163.013ZM315.207 165.451C315.681 165.59 316.401 166.062 316.889 166.553C319.061 168.744 319.399 173.359 318.315 186.017C317.556 194.882 316.414 198.442 313.977 199.551C312.337 200.296 308.429 199.918 306.888 198.863C306.537 198.623 305.974 198.03 305.637 197.545L305.024 196.663L306.082 182.35C306.708 173.886 307.24 167.853 307.383 167.587C307.791 166.832 309.33 165.649 310.323 165.328C311.377 164.988 313.833 165.05 315.207 165.451ZM371.98 167.284C368.339 168.078 365.615 171.567 364.307 177.114C362.885 183.142 362.417 195.282 363.455 199.217C364.909 204.725 368.199 207.389 372.835 206.813C374.851 206.563 376.166 205.903 377.479 204.484C380.112 201.636 381.348 197.222 382.04 188.2C382.553 181.511 382.361 177.132 381.418 173.961C380.611 171.248 378.657 168.815 376.488 167.824C375.308 167.284 373.16 167.027 371.98 167.284ZM375.615 170.003C378.177 171.101 379.705 174.709 379.999 180.352C380.135 182.983 379.673 190.13 379.124 193.877C378.346 199.18 376.66 202.819 374.41 204.048C373.378 204.612 370.285 204.558 369.158 203.956C365.713 202.116 364.615 196.955 365.432 186.433C365.964 179.584 366.639 176.303 368.117 173.382C369.818 170.022 372.665 168.739 375.615 170.003ZM87.8056 251.508C82.0623 252.177 78.064 256.791 78.0525 262.762C78.0461 266.066 79.1382 268.857 81.2492 270.931C83.5453 273.186 86.0545 274.144 89.6821 274.149C93.2165 274.155 95.5767 273.231 97.8923 270.935C100.281 268.566 101.154 266.307 101.145 262.512C101.136 259.022 100.16 256.775 97.595 254.342C95.2029 252.072 91.6896 251.055 87.8056 251.508ZM2.9061 252.871C2.9061 253.429 2.25222 273.81 1.45305 298.161C0.653872 322.513 0 342.967 0 343.614V344.792L1.50494 344.911C2.33256 344.977 4.78468 345.078 6.95387 345.137C15.6142 345.371 18.4554 345.463 20.352 345.572L22.3333 345.686L22.9264 326.808C23.2525 316.426 23.5483 307.896 23.5836 307.852C23.6187 307.809 28.2518 307.928 33.8791 308.116C39.5063 308.304 44.3755 308.456 44.6995 308.454L45.2886 308.451L45.1632 312.14C45.0941 314.17 44.8554 321.816 44.6324 329.133C44.4095 336.45 44.1807 343.291 44.1241 344.336L44.0209 346.234L45.7262 346.36C46.6642 346.429 49.44 346.54 51.8946 346.606C54.3492 346.673 58.5526 346.805 61.2356 346.9C63.9185 346.995 66.1515 347.037 66.1977 346.992C66.3275 346.867 69.3264 254.331 69.2045 254.209C69.0885 254.093 47.2799 253.345 47.1715 253.453C47.1356 253.489 46.844 261.482 46.5239 271.216C46.2036 280.95 45.8858 288.969 45.8175 289.038C45.6828 289.173 24.4511 288.504 24.2968 288.36C24.2451 288.312 24.422 281.705 24.6898 273.678C24.9573 265.65 25.2193 257.664 25.2716 255.93L25.3667 252.777L24.2559 252.663C23.6448 252.6 19.5954 252.45 15.257 252.33C10.9186 252.211 6.36497 252.055 5.13756 251.985L2.9061 251.857V252.871ZM92.4844 254.102C94.9664 254.745 96.987 256.483 98.1536 258.978C98.5889 259.909 98.7033 260.512 98.7703 262.225C98.8971 265.478 98.1891 267.435 96.1702 269.41C92.1085 273.384 84.1406 272.369 81.5187 267.545C78.7216 262.399 81.0763 255.86 86.3337 254.176C87.8112 253.702 90.8032 253.667 92.4844 254.102ZM19.201 254.793L22.9374 254.925L22.8766 257.004C22.8432 258.147 22.5856 266.183 22.3041 274.861C22.0228 283.54 21.8167 290.663 21.846 290.691C21.8754 290.719 25.6359 290.851 30.2026 290.983C34.7694 291.116 40.6542 291.3 43.2801 291.394C45.9059 291.487 48.0809 291.54 48.1133 291.512C48.1457 291.484 48.4344 283.497 48.7545 273.763C49.0748 264.03 49.3966 256.006 49.4696 255.933C49.6071 255.795 66.6654 256.266 66.8282 256.412C66.9178 256.492 64.1161 344.448 64.0196 344.583C63.927 344.713 46.9164 344.126 46.6883 343.985C46.5218 343.882 46.6289 338.716 47.0785 325.159C47.4194 314.884 47.6384 306.418 47.5651 306.347C47.4213 306.209 21.5414 305.334 21.398 305.463C21.3505 305.505 21.0366 313.982 20.7005 324.3C20.3643 334.618 20.0589 343.093 20.022 343.133C19.9068 343.258 2.60303 342.696 2.45461 342.563C2.37739 342.493 2.95924 322.84 3.74762 298.889C4.53579 274.937 5.18281 255.118 5.1851 254.846L5.18946 254.352L10.327 254.507C13.1528 254.592 17.146 254.721 19.201 254.793ZM238.092 260.467C238.092 260.963 237.438 281.293 236.639 305.644C235.84 329.996 235.186 350.5 235.186 351.21V352.499L235.861 352.608C236.631 352.731 256.792 353.403 256.881 353.308C256.949 353.236 258.008 320.746 258.077 316.619L258.124 313.874L260.382 322.231C261.624 326.828 264.039 335.78 265.749 342.125C267.46 348.47 268.877 353.682 268.898 353.706C268.962 353.779 285.516 354.319 285.606 354.252C285.651 354.218 288.753 344.623 292.499 332.931C296.5 320.443 299.313 311.973 299.316 312.4C299.319 312.8 299.185 314.991 299.018 317.269C298.851 319.547 298.618 324.364 298.499 327.974C298.092 340.442 297.665 353.871 297.666 354.215C297.667 354.495 297.957 354.586 299.172 354.687C300.85 354.827 319.298 355.455 319.377 355.375C319.404 355.347 320.108 334.483 320.941 309.009C322.099 273.585 322.398 262.658 322.21 262.542C321.99 262.406 300.928 261.66 297.736 261.674L296.456 261.681L287.565 288.391C282.676 303.082 278.622 315.102 278.556 315.102C278.491 315.102 275.57 304.182 272.065 290.834C264.809 263.207 264.132 260.661 264.018 260.561C263.973 260.522 258.892 260.336 252.727 260.148C246.561 259.961 240.747 259.753 239.805 259.686L238.092 259.564V260.467ZM408.25 264.48C404.186 265.064 399.659 266.785 396.814 268.828C395.19 269.995 392.442 272.837 391.309 274.523C389.371 277.404 387.901 281.239 387.229 285.169C386.971 286.682 386.459 292.468 386.575 292.576C386.626 292.623 406.02 293.281 407.283 293.278L408.232 293.276L408.462 290.73C408.731 287.745 408.898 287.109 409.808 285.59C410.745 284.027 411.942 283.215 413.28 283.235C415.97 283.275 417.265 285.638 417.258 290.489C417.251 295.2 416.157 297.179 409.459 304.603C402.973 311.792 401.405 316.157 400.743 328.873L400.637 330.9H401.756C403.238 330.9 414.82 331.272 417.877 331.417L420.286 331.532L420.43 329.397C420.813 323.741 421.616 320.804 423.494 318.194C423.875 317.665 425.914 315.341 428.026 313.031C432.397 308.249 434.361 305.73 435.932 302.892C438.13 298.917 439.027 295.139 439.026 289.846C439.025 282.058 437.114 276.528 432.786 271.785C429.649 268.348 424.348 265.645 418.893 264.699C416.156 264.224 410.797 264.114 408.25 264.48ZM416.106 266.689C427.849 267.868 435.144 274.727 436.55 285.913C436.858 288.363 436.703 293.438 436.259 295.466C435.727 297.895 434.695 300.448 433.317 302.746C431.702 305.44 430.597 306.816 426.189 311.624C422.084 316.103 421.137 317.274 420.33 318.875C419.487 320.547 418.77 323.16 418.484 325.602C418.042 329.373 418.184 329.029 417.067 329.033C416.53 329.036 413.159 328.924 409.575 328.785L403.059 328.532L403.198 326.252C403.723 317.596 405.606 312.405 410.021 307.451C418.71 297.699 419.6 296.09 419.587 290.158C419.579 286.435 418.993 284.374 417.436 282.599C416.245 281.24 413.85 280.533 412.038 281.005C409.052 281.782 406.759 284.999 406.241 289.138C406.123 290.078 406.002 290.872 405.972 290.902C405.921 290.953 400.663 290.776 392.561 290.45L388.959 290.305L389.105 288.725C389.302 286.592 389.725 284.233 390.257 282.3C391.224 278.787 393.852 274.368 396.221 272.269C401.167 267.889 408.253 265.901 416.106 266.689ZM78.257 278.357C78.257 279.94 76.2524 342.1 76.1025 345.168L75.9996 347.276L77.2839 347.399C77.9905 347.466 80.7168 347.578 83.3427 347.647C85.9685 347.717 90.2654 347.847 92.8913 347.938C95.5171 348.029 97.6768 348.091 97.6905 348.076C97.7992 347.959 99.9755 277.967 99.8738 277.865C99.8009 277.791 95.6313 277.627 90.6079 277.5C85.5845 277.372 80.7504 277.212 79.8657 277.144L78.257 277.019V278.357ZM135.86 278.107C133.922 278.496 130.794 280.076 129.971 281.08C129.47 281.691 129.321 281.461 129.321 280.077V278.726L128.024 278.724C127.31 278.723 122.718 278.582 117.82 278.41C112.92 278.239 108.885 278.126 108.852 278.16C108.76 278.252 106.485 348.22 106.572 348.306C106.708 348.443 127.852 349.07 127.981 348.941C128.049 348.872 128.427 338.728 128.82 326.399C129.513 304.672 129.548 303.954 129.978 303.094C130.523 302.002 131.76 300.857 133.032 300.268C133.887 299.873 134.344 299.826 137.209 299.837C140.244 299.849 141.975 300.095 144.497 300.874C144.867 300.988 144.812 301.705 145.405 289.119C145.575 285.518 145.748 281.898 145.789 281.076L145.864 279.581L144.811 279.127C142.479 278.123 138.205 277.635 135.86 278.107ZM169.28 279.444C156.577 281.443 148.459 291.169 146.457 306.788C145.93 310.901 145.63 320.226 145.912 323.711C146.621 332.451 149.572 339.254 154.805 344.213C158.992 348.182 163.543 350.315 170.14 351.402C173.224 351.91 179.694 351.911 182.431 351.403C189.259 350.136 194.885 346.971 199.418 341.844L200.493 340.628L198.813 337.895C197.889 336.392 196.64 334.366 196.039 333.395C195.437 332.423 194.226 330.433 193.348 328.973C192.469 327.514 191.684 326.278 191.603 326.228C191.522 326.178 190.716 326.893 189.813 327.816C186.623 331.076 183.774 332.5 179.464 332.989C177.287 333.236 174.269 332.971 172.833 332.406C170.546 331.506 169.115 329.912 168.34 327.4C167.907 325.998 167.439 323.424 167.589 323.274C167.639 323.224 175.214 323.434 184.423 323.739C193.631 324.045 201.225 324.236 201.297 324.164C201.368 324.092 201.52 320.926 201.634 317.128C201.926 307.426 201.557 303.086 199.97 297.538C197.03 287.264 190.014 281.02 179.651 279.456C177.155 279.079 171.638 279.073 169.28 279.444ZM92.7499 279.899L97.5906 280.039L97.4634 283.799C97.3934 285.868 96.915 300.606 96.4004 316.551C95.8856 332.496 95.4322 345.574 95.3928 345.613C95.3531 345.653 91.5283 345.567 86.8927 345.423L78.4646 345.161L78.4656 344.423C78.466 344.016 78.9329 329.513 79.5029 312.192C80.0729 294.872 80.5393 280.428 80.5397 280.096L80.5404 279.492L84.2249 279.626C86.2513 279.699 90.0877 279.822 92.7499 279.899ZM140.648 280.402C141.326 280.523 142.236 280.715 142.671 280.829L143.463 281.035L143.345 283.154C143.28 284.32 143.132 287.659 143.016 290.574C142.899 293.489 142.754 296.355 142.693 296.941L142.583 298.008L141.816 297.815C141.394 297.709 139.599 297.567 137.826 297.5C135.135 297.398 134.397 297.437 133.363 297.736C130.751 298.491 128.945 299.956 127.796 302.252L127.243 303.358L126.555 324.921C126.177 336.78 125.818 346.534 125.756 346.596C125.694 346.658 122.805 346.612 119.335 346.495C110.89 346.209 109.165 346.122 109.019 345.976C108.897 345.854 110.734 286.631 110.985 282.593L111.112 280.535L116.013 280.672C118.709 280.748 122.292 280.869 123.976 280.942L127.038 281.074V282.674C127.038 283.554 127.098 285.118 127.171 286.151L127.304 288.027L128.308 286.524C131.622 281.561 135.737 279.52 140.648 280.402ZM178.523 281.644C182.249 282.101 186.165 283.459 188.708 285.176C191.546 287.091 194.368 290.32 195.939 293.449C197.317 296.195 198.512 300.514 199.111 304.917C199.406 307.089 199.419 321.496 199.126 321.763C199.037 321.845 192.518 321.698 184.641 321.437C176.763 321.176 169.15 320.93 167.723 320.89L165.129 320.819L165.203 322.668C165.423 328.162 167.381 332.267 170.597 333.984C175.868 336.797 185.021 335.388 189.878 331.015C190.456 330.495 191.009 330.069 191.107 330.069C191.204 330.069 192.089 331.401 193.072 333.031C194.055 334.66 195.484 337.008 196.249 338.248L197.639 340.503L196.066 342.033C192.321 345.674 187.465 348.094 181.839 349.121C178.99 349.641 173.212 349.591 170.007 349.018C164.35 348.008 159.93 345.878 156.314 342.418C151.519 337.832 148.889 331.617 148.217 323.29C147.981 320.356 148.228 311.423 148.641 307.985C149.22 303.161 150.513 298.454 152.245 294.866C156.544 285.96 163.783 281.528 174.164 281.448C175.594 281.437 177.555 281.525 178.523 281.644ZM353.253 285.177C349.402 285.514 344.924 286.896 341.985 288.654C334.193 293.314 329.255 302.866 328.204 315.31C327.824 319.81 327.694 327.667 327.958 330.276C329.114 341.737 334.264 350.118 342.845 354.502C350.393 358.359 361.794 358.977 369.751 355.962C372.011 355.106 374.648 353.696 376.605 352.299C378.424 351 382.359 347.127 382.359 346.635C382.359 346.493 381.149 344.414 379.671 342.016C378.192 339.618 376.538 336.907 375.995 335.993C375.452 335.078 374.694 333.833 374.31 333.227L373.613 332.123L371.587 334.058C367.838 337.639 364.537 339.007 359.644 339.007C356.902 339.007 355.591 338.757 353.929 337.917C351.704 336.794 350.502 334.79 349.868 331.15C349.698 330.175 349.598 329.34 349.644 329.294C349.69 329.247 357.264 329.458 366.474 329.762C375.684 330.067 383.277 330.258 383.347 330.188C383.511 330.024 383.782 322.717 383.798 318.012C383.857 301.068 378.184 290.663 366.687 286.631C363.185 285.403 357.587 284.797 353.253 285.177ZM172.142 295.855C169.244 296.792 167.602 298.879 166.584 302.924C166.108 304.812 165.514 308.595 165.669 308.749C165.714 308.795 169.605 308.956 174.314 309.109L182.877 309.386L182.873 306.476C182.867 301.97 182.085 299.309 180.234 297.504C178.752 296.058 177.725 295.674 175.196 295.62C173.802 295.59 172.701 295.675 172.142 295.855ZM177.65 298.51C179.346 299.353 180.313 301.528 180.53 304.989L180.658 307.035L177.149 306.892C175.218 306.814 173.032 306.717 172.29 306.678C171.548 306.639 170.321 306.601 169.564 306.593L168.187 306.58L168.472 305.08C169.276 300.856 170.68 298.582 172.8 298.07C174.161 297.742 176.538 297.957 177.65 298.51ZM359.6 304.487C361.346 305.333 362.343 307.559 362.578 311.13L362.706 313.085L361.479 312.958C360.804 312.888 358.034 312.768 355.322 312.69L350.392 312.55V312.048C350.392 311.044 351.078 308.52 351.736 307.099C352.899 304.591 354.187 303.827 357.049 303.946C358.157 303.993 358.91 304.152 359.6 304.487ZM408.722 335.878C404.028 336.385 400.236 339.655 399.039 344.227C398.571 346.016 398.577 349.128 399.052 350.751C400.22 354.739 403.405 357.86 407.215 358.749C408.643 359.082 411.91 359.084 413.315 358.752C416.292 358.049 418.951 355.97 420.396 353.218C421.376 351.35 421.792 349.575 421.796 347.248C421.8 344.996 421.382 343.279 420.397 341.501C418.161 337.467 413.737 335.336 408.722 335.878ZM413.438 338.559C414.704 338.952 416.24 339.93 417.069 340.871C421.549 345.956 419.57 354.383 413.446 356.291C411.945 356.759 409.1 356.799 407.509 356.375C405.057 355.722 402.95 353.919 401.807 351.497C401.27 350.358 401.164 349.855 401.084 348.052C400.941 344.831 401.64 342.796 403.606 340.715C405.504 338.705 407.707 337.952 410.938 338.207C411.945 338.286 413.07 338.444 413.438 338.559Z" fill="#F64A25" fill-opacity="0.4"/>
<path fill-rule="evenodd" clip-rule="evenodd" d="M150.552 2.71749C146.23 3.09643 142.641 3.45957 142.576 3.52422C142.467 3.63314 150.143 95.5636 150.301 96.0436C150.348 96.1876 151.05 96.2049 152.419 96.096C158.222 95.6337 167.122 94.865 167.164 94.8223C167.191 94.7955 166.299 84.0199 165.181 70.8765L163.15 46.9796L163.582 46.1653C164.278 44.856 165.923 43.1958 167.093 42.6227C168.578 41.8951 171.133 41.5434 172.629 41.8608C175.868 42.5481 177.564 44.7683 178.337 49.3326C178.571 50.7104 182.178 91.9918 182.178 93.2854C182.178 93.5849 181.723 93.6101 192.651 92.7063C196.185 92.4142 199.107 92.1446 199.144 92.1076C199.232 92.0197 195.748 50.6788 195.446 48.2268C194.075 37.092 189.682 30.0451 182.742 27.8496C177.937 26.3297 172.57 26.857 168.276 29.2706C166.803 30.0985 163.801 32.7918 162.694 34.2795C162.447 34.6113 162.216 34.8451 162.182 34.7992C162.147 34.7531 161.629 28.8224 161.032 21.6198C160.434 14.4173 159.863 7.77592 159.763 6.86131C159.664 5.94669 159.52 4.47334 159.445 3.58741C159.32 2.10511 159.273 1.97852 158.86 2.00242C158.612 2.01656 154.874 2.33834 150.552 2.71749ZM273.201 3.69716C269.205 4.04243 265.91 4.34446 265.879 4.36815C265.848 4.39185 266.124 7.97568 266.492 12.3321C266.861 16.6886 267.103 20.3124 267.031 20.3847C266.959 20.457 265.281 20.656 263.304 20.8266C261.326 20.9975 259.669 21.1756 259.622 21.2226C259.525 21.3188 260.394 32.3038 260.573 33.2375L260.688 33.8382L262.689 33.7029C263.79 33.6287 265.491 33.51 266.469 33.4391L268.247 33.3105L268.482 36.0915C271.48 71.5997 271.378 70.5437 272.089 73.3786C272.967 76.8778 274.321 79.5188 276.283 81.5563C279.106 84.4872 282.456 85.7508 287.382 85.7425C291.133 85.7363 293.698 85.2819 296.917 84.054C298.626 83.4019 298.629 83.3992 298.627 82.6509C298.623 81.5428 297.608 70.3115 297.502 70.2055C297.47 70.1741 296.801 70.2984 296.013 70.4816C294.025 70.9443 291.327 70.9187 290.493 70.4296C289.486 69.8386 288.71 68.7099 288.356 67.3245C288.04 66.0808 285.052 32.1323 285.243 31.9415C285.294 31.8901 287.213 31.6835 289.507 31.4825C291.801 31.2815 293.733 31.0618 293.8 30.9946C293.974 30.8202 292.931 18.6503 292.724 18.4432C292.67 18.3894 290.736 18.4944 288.425 18.6767C286.114 18.859 284.181 18.9654 284.129 18.9134C284.077 18.8614 283.867 16.7832 283.662 14.2952C283.313 10.0645 283.004 6.67485 282.732 4.10707L282.616 3.01577L281.541 3.04259C280.95 3.05756 277.197 3.3521 273.201 3.69716ZM124.833 9.76416C120.637 10.1313 117.144 10.4921 117.07 10.5659C116.996 10.6395 116.256 21.0143 115.424 33.6206C113.778 58.5696 113.27 66.0237 113.202 66.2511C113.178 66.3324 110.599 57.1654 107.47 45.8802C100.385 20.3215 98.138 12.3299 98 12.1916C97.9146 12.1062 83.5994 13.1919 83.4307 13.2964C83.4066 13.3114 82.3554 23.4218 81.0948 35.7639C77.8134 67.8903 77.6834 69.1176 77.5633 69.1157C77.5035 69.1149 75.2645 59.9247 72.5878 48.6928C67.1119 25.7158 64.5375 15.0573 64.442 14.9677C64.3785 14.908 47.1912 16.3344 47.1034 16.4065C47.0789 16.4269 52.2659 35.8953 58.6303 59.6696L70.2019 102.896L72.2715 102.826C74.6281 102.746 87.7035 101.65 87.8016 101.524C87.8369 101.478 89.1582 89.7013 90.7374 75.3534C92.3167 61.0054 93.6682 49.1962 93.7409 49.1108C93.8793 48.9481 94.165 49.9257 102.958 80.654L108.43 99.7777L109.341 99.7201C110.889 99.622 117.727 99.0761 122.025 98.7074L126.117 98.3563L126.23 97.508C126.485 95.5964 134.227 10.4117 134.227 9.52117C134.227 8.91919 134.602 8.90962 124.833 9.76416ZM321.463 14.7567C311.927 16.3282 305.134 22.0884 303.271 30.1817C302.731 32.5291 302.781 36.5985 303.38 39.0806C304.855 45.188 308.993 49.375 316.705 52.5637C317.685 52.9686 320.394 53.9506 322.725 54.7457C332.739 58.1613 335.232 59.9062 335.242 63.505C335.252 67.3106 332.656 69.2123 327.483 69.1895C324.68 69.1772 323.326 68.6977 321.768 67.1676C320.619 66.0374 319.973 64.6807 319.692 62.8047C319.61 62.2571 319.417 61.7605 319.263 61.7013C318.988 61.5957 303.597 62.8265 303.458 62.9653C303.3 63.1239 303.876 65.9931 304.351 67.4091C305.554 70.999 307.223 73.5782 310.11 76.3087C313.112 79.1478 316.367 80.8868 320.489 81.8523C322.108 82.2312 323.042 82.2998 326.652 82.3048C330.258 82.3098 331.262 82.2393 333.232 81.8421C342.91 79.8898 349.085 74.8314 351.177 67.1426C351.815 64.7973 351.826 60.2281 351.199 57.6826C350.263 53.8851 348.934 51.5073 346.421 49.1326C343.001 45.902 339.568 44.2763 329.351 41.0493C322.614 38.9214 319.732 37.0997 319.204 34.6367C318.9 33.2159 318.911 32.8153 319.285 31.5515C319.704 30.1397 321.119 28.5751 322.524 27.9697C324.939 26.9294 328.026 27.2437 329.728 28.7029C330.951 29.751 331.564 31.0532 332.146 33.8347C332.243 34.2968 332.357 34.3901 332.729 34.3115C332.983 34.2577 334.078 34.1575 335.163 34.0889C336.248 34.0203 339.779 33.7358 343.01 33.4564C346.242 33.177 348.94 32.9486 349.007 32.9486C349.074 32.9486 349.066 32.4202 348.99 31.7743C348.682 29.1527 347.664 26.1068 346.338 23.8409C345.275 22.0264 341.816 18.6831 339.858 17.5791C337.977 16.5184 335.181 15.4227 333.145 14.9477C331.157 14.4844 323.842 14.3647 321.463 14.7567ZM228.2 22.5762C223.64 23.0822 218.352 25.0796 215.183 27.4923C211.74 30.1141 209.127 33.699 207.918 37.4595C207.256 39.5178 206.706 43.661 206.96 44.6747L207.108 45.2647L209.225 45.1204C210.39 45.0412 214.048 44.7487 217.356 44.4708C220.663 44.1929 223.475 43.9655 223.604 43.9655C223.75 43.9655 223.887 43.317 223.964 42.2506C224.186 39.2089 225.08 37.5755 227.088 36.5409C227.951 36.0961 228.515 35.9747 230.025 35.9088C231.752 35.8335 231.979 35.8718 233.033 36.4145C235.367 37.6164 236.16 39.4982 236.663 45.0275C236.842 46.9912 236.963 48.619 236.932 48.645C236.9 48.671 235.126 48.8506 232.989 49.0439C223.516 49.9015 217.704 52.1243 213.418 56.5294C209.548 60.5077 207.915 65.2456 208.184 71.7157C208.461 78.3772 210.738 83.3385 215.13 86.8473C217.02 88.3575 218.44 89.1324 220.684 89.8776C223.22 90.7199 225.569 91.0302 228.249 90.8766C233.199 90.5931 237.065 88.5762 239.815 84.8435C240.665 83.6905 240.719 83.6535 240.884 84.116C240.98 84.3841 241.314 85.3185 241.626 86.1926C242.547 88.7676 241.543 88.5811 250.481 87.8374C260.093 87.0375 259.605 87.1113 259.605 86.4588C259.605 86.1749 259.337 85.4074 259.011 84.7533C257.944 82.616 257.12 79.6732 256.613 76.1848C256.438 74.9844 255.637 66.2852 254.832 56.8532C254.028 47.4213 253.229 39.0494 253.058 38.2492C252.065 33.6127 250.424 30.5783 247.308 27.6197C244.722 25.1646 241.614 23.6486 237.563 22.8668C235.426 22.4546 230.635 22.306 228.2 22.5762ZM237.809 59.0878C237.809 59.1736 237.909 60.2726 238.03 61.5302C238.151 62.7878 238.421 65.7811 238.63 68.182C239.002 72.4665 239.002 72.5592 238.612 73.2026C237.281 75.3989 234.026 77.0481 230.993 77.063C229.375 77.071 228.253 76.6639 227.256 75.7065C226.016 74.5167 225.433 73.0697 225.161 70.5055C224.789 67.0042 225.602 64.1392 227.565 62.0378C228.739 60.7813 229.798 60.1286 231.421 59.6625C233.145 59.1672 237.809 58.7475 237.809 59.0878ZM291.157 120.447C291.157 120.894 284.396 212.311 284.131 215.455C284.017 216.808 284.035 217.478 284.187 217.583C284.31 217.667 284.965 217.737 285.643 217.739C286.322 217.741 287.91 217.836 289.172 217.95C292.06 218.212 302.905 218.991 303.643 218.99C304.164 218.989 304.201 218.92 304.341 217.69C304.422 216.976 304.536 216.312 304.593 216.215C304.651 216.119 305.084 216.412 305.556 216.866C307.648 218.882 310.558 220.302 313.783 220.884C315.733 221.235 320.951 221.238 322.605 220.889C326.941 219.972 330.026 218.304 332.895 215.322C334.808 213.335 335.883 211.769 337.242 208.985C339.935 203.471 341.331 196.807 342.136 185.627C343.131 171.816 341.435 162.273 336.953 156.458C333.276 151.687 328.007 149.097 320.974 148.602C317.721 148.373 314.851 148.929 312.049 150.332C311.266 150.723 310.606 151.014 310.582 150.978C310.557 150.942 310.934 145.628 311.418 139.168C311.903 132.709 312.356 126.535 312.425 125.449C312.494 124.363 312.603 123.03 312.667 122.487C312.782 121.513 312.776 121.5 312.193 121.5C311.869 121.5 307.232 121.172 301.89 120.772C296.548 120.372 291.947 120.045 291.667 120.045C291.3 120.045 291.157 120.158 291.157 120.447ZM240.012 121.254C239.803 121.592 204.389 211.327 204.389 211.518C204.389 211.626 204.624 211.714 204.911 211.714C205.199 211.714 207.137 211.853 209.219 212.024C217.384 212.693 227.648 213.395 227.809 213.295C227.902 213.237 229.32 209.257 230.96 204.449L233.941 195.708L234.785 195.712C236.711 195.722 254.482 197.148 254.627 197.304C254.714 197.398 254.938 198.364 255.125 199.45C255.766 203.167 258.099 215.472 258.177 215.546C258.384 215.742 281.557 217.447 281.725 217.279C281.809 217.194 265.708 148.358 260.407 126.137L259.554 122.563L258.49 122.443C257.55 122.338 240.766 121.084 240.299 121.084C240.199 121.084 240.07 121.16 240.012 121.254ZM302.415 123.134C306.609 123.451 310.087 123.758 310.143 123.814C310.2 123.87 310.153 124.987 310.039 126.294C309.926 127.601 309.416 134.517 308.905 141.663C308.395 148.808 307.929 155.066 307.87 155.57L307.762 156.485L308.956 155.351C312.634 151.856 316.737 150.464 321.76 151.006C331.795 152.088 337.561 157.938 339.391 168.893C340.367 174.734 340.342 181.755 339.311 191.551C337.909 204.865 333.793 213.394 327.08 216.891C322.25 219.408 314.748 219.58 310.15 217.28C307.976 216.192 305.029 213.374 303.687 211.099C303.482 210.751 303.262 210.467 303.199 210.467C303.136 210.467 302.886 211.782 302.644 213.389C302.402 214.996 302.148 216.366 302.081 216.433C302.013 216.501 299.785 216.396 297.128 216.2C294.472 216.004 291.041 215.752 289.504 215.64C287.967 215.529 286.665 215.392 286.609 215.336C286.507 215.234 293.206 123.287 293.35 122.799C293.451 122.458 293.541 122.461 302.415 123.134ZM249.952 124.117C254.062 124.417 257.491 124.723 257.571 124.797C257.652 124.871 259.822 133.864 262.393 144.782C264.965 155.699 269.724 175.904 272.969 189.68C276.213 203.456 278.84 214.757 278.806 214.794C278.771 214.83 275.535 214.61 271.613 214.306C267.691 214.001 263.523 213.702 262.35 213.641C261.177 213.58 260.182 213.472 260.139 213.401C260.096 213.331 259.58 210.654 258.992 207.453C258.405 204.251 257.635 200.112 257.282 198.254L256.639 194.877L255.994 194.875C255.639 194.874 250.352 194.5 244.244 194.044C238.136 193.588 232.952 193.216 232.723 193.217C232.362 193.218 231.917 194.365 229.298 202.05L226.288 210.882L225.666 210.881C225.323 210.88 222.614 210.692 219.646 210.464C216.677 210.235 212.801 209.946 211.031 209.822C209.262 209.698 207.776 209.558 207.729 209.513C207.682 209.468 213.603 194.346 220.887 175.91C243.572 118.492 241.517 123.579 242.028 123.575C242.276 123.573 245.842 123.817 249.952 124.117ZM476.871 146.392C476.803 147.049 476.552 150.44 476.311 153.927C476.071 157.414 475.829 160.49 475.773 160.763C475.672 161.254 475.648 161.259 473.866 161.13C472.873 161.058 471.165 160.938 470.07 160.864L468.079 160.73L467.94 162.473C467.618 166.528 466.771 177.749 466.769 177.987C466.768 178.155 467.08 178.246 467.65 178.245C468.135 178.243 469.874 178.355 471.513 178.493L474.494 178.743L474.368 180.106C474.298 180.856 474.192 182.171 474.13 183.028C474.069 183.886 473.555 190.915 472.988 198.648C472.421 206.382 471.958 213.444 471.959 214.342C471.966 221.104 474.142 226.599 478.123 229.906C483.117 234.054 492.297 235.31 500.062 232.908L501.358 232.507L501.719 227.671C502.386 218.749 502.674 214.55 502.624 214.5C502.597 214.473 501.594 214.687 500.396 214.975C498.418 215.452 498.048 215.481 496.381 215.295C493.913 215.019 493.87 214.966 493.805 212.175C493.751 209.875 495.845 180.656 496.08 180.421C496.152 180.348 498.105 180.436 500.419 180.614C502.733 180.793 504.666 180.9 504.714 180.851C504.824 180.741 505.994 165.561 505.998 164.191L506 163.542L502.938 163.298C501.254 163.163 499.282 163.002 498.556 162.94L497.236 162.827L497.36 161.339C498.219 150.969 498.465 146.821 498.223 146.74C497.982 146.66 478.365 145.197 477.528 145.197C477.029 145.197 476.984 145.277 476.871 146.392ZM488.289 148.278C492.42 148.586 495.837 148.885 495.884 148.941C495.931 148.997 495.891 149.977 495.795 151.121C495.296 157.115 494.801 164.816 494.91 164.924C495.038 165.053 496.898 165.22 501.09 165.481L503.549 165.634L503.414 167.731C503.148 171.859 502.649 178.346 502.593 178.402C502.562 178.434 500.599 178.31 498.232 178.127C495.865 177.944 493.902 177.826 493.869 177.865C493.743 178.016 491.411 210.464 491.407 212.13C491.399 214.965 492.072 216.43 493.734 217.192C494.547 217.565 495.089 217.63 497.437 217.633L500.187 217.638L500.082 218.262C500.025 218.605 499.839 220.99 499.67 223.562C499.501 226.135 499.304 228.819 499.233 229.527L499.104 230.815L497.676 231.14C492.819 232.246 487.234 231.866 482.992 230.14C480.051 228.943 477.486 226.458 476.096 223.458C475.09 221.287 474.698 219.665 474.413 216.495C474.197 214.089 474.251 212.924 475.148 200.801C475.681 193.598 476.251 186.022 476.414 183.964C476.577 181.906 476.769 179.413 476.841 178.424L476.973 176.627L476.177 176.502C475.74 176.433 474.038 176.286 472.395 176.175C470.753 176.063 469.381 175.945 469.348 175.912C469.228 175.791 470.204 163.512 470.345 163.371C470.425 163.29 472.134 163.341 474.142 163.483C476.15 163.626 477.823 163.708 477.858 163.667C477.928 163.587 479.023 148.941 479.018 148.159C479.014 147.566 478.723 147.562 488.289 148.278ZM247.201 149.706C246.861 150.712 244.507 157.605 241.968 165.023C238.711 174.539 237.424 178.553 237.596 178.66C237.729 178.742 238.743 178.867 239.848 178.936C240.953 179.005 244.505 179.259 247.742 179.5C250.978 179.741 253.675 179.889 253.735 179.829C253.834 179.73 252.308 171.211 249.952 158.708C249.446 156.021 248.787 152.513 248.487 150.913C248.188 149.312 247.914 147.974 247.88 147.939C247.846 147.904 247.54 148.699 247.201 149.706ZM369.939 153.01C368.915 153.169 367.187 153.577 366.099 153.916C356.675 156.854 350.233 164.381 347.41 175.753C346.288 180.272 345.542 187.456 345.542 193.737C345.542 203.737 348.396 211.799 353.924 217.418C356.199 219.729 358.074 221.098 360.799 222.435C364.849 224.423 369.252 225.325 374.811 225.305C378.996 225.291 381.474 224.873 384.657 223.644C388.422 222.19 390.891 220.533 393.822 217.493C397.694 213.476 400.35 208.407 401.863 202.145C403.583 195.027 404.158 182.926 403.068 176.792C400.652 163.193 392.137 154.707 379.174 152.979C376.45 152.616 372.383 152.629 369.939 153.01ZM380.243 155.469C389.762 157.188 396.898 163.524 399.693 172.739C401.348 178.196 401.695 182.791 401.068 190.927C400.677 195.997 400.455 197.696 399.796 200.673C397.454 211.245 391.719 218.63 383.581 221.557C375.866 224.331 365.823 223.207 359.261 218.835C355.966 216.639 352.501 212.59 350.895 209.056C348.944 204.766 347.825 199.144 347.826 193.629C347.826 191.196 348.38 183.846 348.782 180.95C350.84 166.104 358.801 156.901 371.074 155.18C372.949 154.917 378.082 155.079 380.243 155.469ZM411.552 156.905C411.552 157.056 410.805 167.268 409.891 179.598C407.896 206.535 407.835 209.158 409.086 214.09C410.349 219.071 412.815 223.042 416.319 225.738C419.616 228.276 424.157 229.519 429.461 229.336C432.894 229.217 434.673 228.785 437.447 227.394L439.575 226.328V227.714V229.099L442.948 229.353C453.232 230.127 460.006 230.61 460.037 230.57C460.078 230.521 464.604 169.541 464.975 164.051C465.206 160.631 465.202 160.559 464.796 160.477C464.187 160.355 443.688 158.882 443.635 158.956C443.61 158.991 442.821 169.543 441.88 182.405C440.94 195.266 440.116 206.297 440.048 206.917C439.894 208.323 439.034 209.36 437.325 210.201C436.293 210.708 435.917 210.778 434.236 210.772C431.977 210.763 431.452 210.493 430.675 208.941C429.618 206.83 429.62 206.759 431.264 184.691C433.013 161.215 433.216 158.299 433.11 158.193C433.018 158.101 413.441 156.629 412.313 156.629C411.819 156.629 411.552 156.726 411.552 156.905ZM247.987 160.994C248.56 164.195 249.217 167.722 250.641 175.233C250.857 176.377 251.014 177.338 250.989 177.37C250.939 177.433 242.861 176.837 241.373 176.66C240.765 176.588 240.507 176.469 240.575 176.292C240.63 176.148 242.079 171.922 243.794 166.901C247.322 156.573 247.207 156.893 247.281 157.159C247.311 157.268 247.629 158.994 247.987 160.994ZM422.832 159.684L430.687 160.254L430.548 162.339C430.472 163.486 429.763 173.209 428.972 183.946C428.182 194.683 427.537 204.13 427.539 204.94C427.546 207.963 428.516 210.703 430.019 211.951C431.767 213.402 435.6 213.599 438.217 212.372C439.6 211.724 441.464 210.07 442.017 209C442.187 208.669 442.883 200.32 444.011 185.05C444.964 172.157 445.792 161.56 445.85 161.501C445.954 161.396 462.627 162.585 462.717 162.703C462.741 162.735 462.687 163.603 462.596 164.632C462.505 165.661 461.422 180.285 460.189 197.129C458.957 213.974 457.896 227.839 457.834 227.941C457.768 228.047 455.461 227.95 452.435 227.715C449.529 227.49 446.358 227.254 445.387 227.191C444.417 227.128 443.225 227.028 442.738 226.969L441.854 226.862L441.985 223.913L442.117 220.964L441.106 221.923C437.438 225.4 434.232 226.811 429.507 227.029C424.22 227.273 419.723 225.799 416.469 222.755C412.522 219.063 410.534 213.443 410.506 205.894C410.5 204.307 411.197 193.536 412.109 181.105L413.723 159.124L414.35 159.118C414.695 159.115 418.512 159.37 422.832 159.684ZM312.018 165.013C310.583 165.493 309.415 166.189 308.494 167.111C306.8 168.807 306.998 167.571 305.776 184.094L304.667 199.087L305.093 199.921C306.311 202.312 308.725 203.868 311.75 204.212C317.221 204.835 320.208 202.556 321.461 196.805C322.796 190.678 323.702 175.279 322.937 171.7C322.266 168.554 320.529 166.238 318.172 165.345C316.688 164.784 313.258 164.598 312.018 165.013ZM317.207 167.451C317.681 167.59 318.401 168.062 318.889 168.553C321.061 170.744 321.399 175.359 320.315 188.017C319.556 196.882 318.414 200.442 315.977 201.551C314.337 202.296 310.429 201.918 308.888 200.863C308.537 200.623 307.974 200.03 307.637 199.545L307.024 198.663L308.082 184.35C308.708 175.886 309.24 169.853 309.383 169.587C309.791 168.832 311.33 167.649 312.323 167.328C313.377 166.988 315.833 167.05 317.207 167.451ZM373.98 169.284C370.339 170.078 367.615 173.567 366.307 179.114C364.885 185.142 364.417 197.282 365.455 201.217C366.909 206.725 370.199 209.389 374.835 208.813C376.851 208.563 378.166 207.903 379.479 206.484C382.112 203.636 383.348 199.222 384.04 190.2C384.553 183.511 384.361 179.132 383.418 175.961C382.611 173.248 380.657 170.815 378.488 169.824C377.308 169.284 375.16 169.027 373.98 169.284ZM377.615 172.003C380.177 173.101 381.705 176.709 381.999 182.352C382.135 184.983 381.673 192.13 381.124 195.877C380.346 201.18 378.66 204.819 376.41 206.048C375.378 206.612 372.285 206.558 371.158 205.956C367.713 204.116 366.615 198.955 367.432 188.433C367.964 181.584 368.639 178.303 370.117 175.382C371.818 172.022 374.665 170.739 377.615 172.003ZM89.8056 253.508C84.0623 254.177 80.064 258.791 80.0525 264.762C80.0461 268.066 81.1382 270.857 83.2492 272.931C85.5453 275.186 88.0545 276.144 91.6821 276.149C95.2165 276.155 97.5767 275.231 99.8923 272.935C102.281 270.566 103.154 268.307 103.145 264.512C103.136 261.022 102.16 258.775 99.595 256.342C97.2029 254.072 93.6896 253.055 89.8056 253.508ZM4.9061 254.871C4.9061 255.429 4.25222 275.81 3.45305 300.161C2.65387 324.513 2 344.967 2 345.614V346.792L3.50494 346.911C4.33256 346.977 6.78468 347.078 8.95387 347.137C17.6142 347.371 20.4554 347.463 22.352 347.572L24.3333 347.686L24.9264 328.808C25.2525 318.426 25.5483 309.896 25.5836 309.852C25.6187 309.809 30.2518 309.928 35.8791 310.116C41.5063 310.304 46.3755 310.456 46.6995 310.454L47.2886 310.451L47.1632 314.14C47.0941 316.17 46.8554 323.816 46.6324 331.133C46.4095 338.45 46.1807 345.291 46.1241 346.336L46.0209 348.234L47.7262 348.36C48.6642 348.429 51.44 348.54 53.8946 348.606C56.3492 348.673 60.5526 348.805 63.2356 348.9C65.9185 348.995 68.1515 349.037 68.1977 348.992C68.3275 348.867 71.3264 256.331 71.2045 256.209C71.0885 256.093 49.2799 255.345 49.1715 255.453C49.1356 255.489 48.844 263.482 48.5239 273.216C48.2036 282.95 47.8858 290.969 47.8175 291.038C47.6828 291.173 26.4511 290.504 26.2968 290.36C26.2451 290.312 26.422 283.705 26.6898 275.678C26.9573 267.65 27.2193 259.664 27.2716 257.93L27.3667 254.777L26.2559 254.663C25.6448 254.6 21.5954 254.45 17.257 254.33C12.9186 254.211 8.36497 254.055 7.13756 253.985L4.9061 253.857V254.871ZM94.4844 256.102C96.9664 256.745 98.987 258.483 100.154 260.978C100.589 261.909 100.703 262.512 100.77 264.225C100.897 267.478 100.189 269.435 98.1702 271.41C94.1085 275.384 86.1406 274.369 83.5187 269.545C80.7216 264.399 83.0763 257.86 88.3337 256.176C89.8112 255.702 92.8032 255.667 94.4844 256.102ZM21.201 256.793L24.9374 256.925L24.8766 259.004C24.8432 260.147 24.5856 268.183 24.3041 276.861C24.0228 285.54 23.8167 292.663 23.846 292.691C23.8754 292.719 27.6359 292.851 32.2026 292.983C36.7694 293.116 42.6542 293.3 45.2801 293.394C47.9059 293.487 50.0809 293.54 50.1133 293.512C50.1457 293.484 50.4344 285.497 50.7545 275.763C51.0748 266.03 51.3966 258.006 51.4696 257.933C51.6071 257.795 68.6654 258.266 68.8282 258.412C68.9178 258.492 66.1161 346.448 66.0196 346.583C65.927 346.713 48.9164 346.126 48.6883 345.985C48.5218 345.882 48.6289 340.716 49.0785 327.159C49.4194 316.884 49.6384 308.418 49.5651 308.347C49.4213 308.209 23.5414 307.334 23.398 307.463C23.3505 307.505 23.0366 315.982 22.7005 326.3C22.3643 336.618 22.0589 345.093 22.022 345.133C21.9068 345.258 4.60303 344.696 4.45461 344.563C4.37739 344.493 4.95924 324.84 5.74762 300.889C6.53579 276.937 7.18281 257.118 7.1851 256.846L7.18946 256.352L12.327 256.507C15.1528 256.592 19.146 256.721 21.201 256.793ZM240.092 262.467C240.092 262.963 239.438 283.293 238.639 307.644C237.84 331.996 237.186 352.5 237.186 353.21V354.499L237.861 354.608C238.631 354.731 258.792 355.403 258.881 355.308C258.949 355.236 260.008 322.746 260.077 318.619L260.124 315.874L262.382 324.231C263.624 328.828 266.039 337.78 267.749 344.125C269.46 350.47 270.877 355.682 270.898 355.706C270.962 355.779 287.516 356.319 287.606 356.252C287.651 356.218 290.753 346.623 294.499 334.931C298.5 322.443 301.313 313.973 301.316 314.4C301.319 314.8 301.185 316.991 301.018 319.269C300.851 321.547 300.618 326.364 300.499 329.974C300.092 342.442 299.665 355.871 299.666 356.215C299.667 356.495 299.957 356.586 301.172 356.687C302.85 356.827 321.298 357.455 321.377 357.375C321.404 357.347 322.108 336.483 322.941 311.009C324.099 275.585 324.398 264.658 324.21 264.542C323.99 264.406 302.928 263.66 299.736 263.674L298.456 263.681L289.565 290.391C284.676 305.082 280.622 317.102 280.556 317.102C280.491 317.102 277.57 306.182 274.065 292.834C266.809 265.207 266.132 262.661 266.018 262.561C265.973 262.522 260.892 262.336 254.727 262.148C248.561 261.961 242.747 261.753 241.805 261.686L240.092 261.564V262.467ZM410.25 266.48C406.186 267.064 401.659 268.785 398.814 270.828C397.19 271.995 394.442 274.837 393.309 276.523C391.371 279.404 389.901 283.239 389.229 287.169C388.971 288.682 388.459 294.468 388.575 294.576C388.626 294.623 408.02 295.281 409.283 295.278L410.232 295.276L410.462 292.73C410.731 289.745 410.898 289.109 411.808 287.59C412.745 286.027 413.942 285.215 415.28 285.235C417.97 285.275 419.265 287.638 419.258 292.489C419.251 297.2 418.157 299.179 411.459 306.603C404.973 313.792 403.405 318.157 402.743 330.873L402.637 332.9H403.756C405.238 332.9 416.82 333.272 419.877 333.417L422.286 333.532L422.43 331.397C422.813 325.741 423.616 322.804 425.494 320.194C425.875 319.665 427.914 317.341 430.026 315.031C434.397 310.249 436.361 307.73 437.932 304.892C440.13 300.917 441.027 297.139 441.026 291.846C441.025 284.058 439.114 278.528 434.786 273.785C431.649 270.348 426.348 267.645 420.893 266.699C418.156 266.224 412.797 266.114 410.25 266.48ZM418.106 268.689C429.849 269.868 437.144 276.727 438.55 287.913C438.858 290.363 438.703 295.438 438.259 297.466C437.727 299.895 436.695 302.448 435.317 304.746C433.702 307.44 432.597 308.816 428.189 313.624C424.084 318.103 423.137 319.274 422.33 320.875C421.487 322.547 420.77 325.16 420.484 327.602C420.042 331.373 420.184 331.029 419.067 331.033C418.53 331.036 415.159 330.924 411.575 330.785L405.059 330.532L405.198 328.252C405.723 319.596 407.606 314.405 412.021 309.451C420.71 299.699 421.6 298.09 421.587 292.158C421.579 288.435 420.993 286.374 419.436 284.599C418.245 283.24 415.85 282.533 414.038 283.005C411.052 283.782 408.759 286.999 408.241 291.138C408.123 292.078 408.002 292.872 407.972 292.902C407.921 292.953 402.663 292.776 394.561 292.45L390.959 292.305L391.105 290.725C391.302 288.592 391.725 286.233 392.257 284.3C393.224 280.787 395.852 276.368 398.221 274.269C403.167 269.889 410.253 267.901 418.106 268.689ZM80.257 280.357C80.257 281.94 78.2524 344.1 78.1025 347.168L77.9996 349.276L79.2839 349.399C79.9905 349.466 82.7168 349.578 85.3427 349.647C87.9685 349.717 92.2654 349.847 94.8913 349.938C97.5171 350.029 99.6768 350.091 99.6905 350.076C99.7992 349.959 101.976 279.967 101.874 279.865C101.801 279.791 97.6313 279.627 92.6079 279.5C87.5845 279.372 82.7504 279.212 81.8657 279.144L80.257 279.019V280.357ZM137.86 280.107C135.922 280.496 132.794 282.076 131.971 283.08C131.47 283.691 131.321 283.461 131.321 282.077V280.726L130.024 280.724C129.31 280.723 124.718 280.582 119.82 280.41C114.92 280.239 110.885 280.126 110.852 280.16C110.76 280.252 108.485 350.22 108.572 350.306C108.708 350.443 129.852 351.07 129.981 350.941C130.049 350.872 130.427 340.728 130.82 328.399C131.513 306.672 131.548 305.954 131.978 305.094C132.523 304.002 133.76 302.857 135.032 302.268C135.887 301.873 136.344 301.826 139.209 301.837C142.244 301.849 143.975 302.095 146.497 302.874C146.867 302.988 146.812 303.705 147.405 291.119C147.575 287.518 147.748 283.898 147.789 283.076L147.864 281.581L146.811 281.127C144.479 280.123 140.205 279.635 137.86 280.107ZM171.28 281.444C158.577 283.443 150.459 293.169 148.457 308.788C147.93 312.901 147.63 322.226 147.912 325.711C148.621 334.451 151.572 341.254 156.805 346.213C160.992 350.182 165.543 352.315 172.14 353.402C175.224 353.91 181.694 353.911 184.431 353.403C191.259 352.136 196.885 348.971 201.418 343.844L202.493 342.628L200.813 339.895C199.889 338.392 198.64 336.366 198.039 335.395C197.437 334.423 196.226 332.433 195.348 330.973C194.469 329.514 193.684 328.278 193.603 328.228C193.522 328.178 192.716 328.893 191.813 329.816C188.623 333.076 185.774 334.5 181.464 334.989C179.287 335.236 176.269 334.971 174.833 334.406C172.546 333.506 171.115 331.912 170.34 329.4C169.907 327.998 169.439 325.424 169.589 325.274C169.639 325.224 177.214 325.434 186.423 325.739C195.631 326.045 203.225 326.236 203.297 326.164C203.368 326.092 203.52 322.926 203.634 319.128C203.926 309.426 203.557 305.086 201.97 299.538C199.03 289.264 192.014 283.02 181.651 281.456C179.155 281.079 173.638 281.073 171.28 281.444ZM94.7499 281.899L99.5906 282.039L99.4634 285.799C99.3934 287.868 98.915 302.606 98.4004 318.551C97.8856 334.496 97.4322 347.574 97.3928 347.613C97.3531 347.653 93.5283 347.567 88.8927 347.423L80.4646 347.161L80.4656 346.423C80.466 346.016 80.9329 331.513 81.5029 314.192C82.0729 296.872 82.5393 282.428 82.5397 282.096L82.5404 281.492L86.2249 281.626C88.2513 281.699 92.0877 281.822 94.7499 281.899ZM142.648 282.402C143.326 282.523 144.236 282.715 144.671 282.829L145.463 283.035L145.345 285.154C145.28 286.32 145.132 289.659 145.016 292.574C144.899 295.489 144.754 298.355 144.693 298.941L144.583 300.008L143.816 299.815C143.394 299.709 141.599 299.567 139.826 299.5C137.135 299.398 136.397 299.437 135.363 299.736C132.751 300.491 130.945 301.956 129.796 304.252L129.243 305.358L128.555 326.921C128.177 338.78 127.818 348.534 127.756 348.596C127.694 348.658 124.805 348.612 121.335 348.495C112.89 348.209 111.165 348.122 111.019 347.976C110.897 347.854 112.734 288.631 112.985 284.593L113.112 282.535L118.013 282.672C120.709 282.748 124.292 282.869 125.976 282.942L129.038 283.074V284.674C129.038 285.554 129.098 287.118 129.171 288.151L129.304 290.027L130.308 288.524C133.622 283.561 137.737 281.52 142.648 282.402ZM180.523 283.644C184.249 284.101 188.165 285.459 190.708 287.176C193.546 289.091 196.368 292.32 197.939 295.449C199.317 298.195 200.512 302.514 201.111 306.917C201.406 309.089 201.419 323.496 201.126 323.763C201.037 323.845 194.518 323.698 186.641 323.437C178.763 323.176 171.15 322.93 169.723 322.89L167.129 322.819L167.203 324.668C167.423 330.162 169.381 334.267 172.597 335.984C177.868 338.797 187.021 337.388 191.878 333.015C192.456 332.495 193.009 332.069 193.107 332.069C193.204 332.069 194.089 333.401 195.072 335.031C196.055 336.66 197.484 339.008 198.249 340.248L199.639 342.503L198.066 344.033C194.321 347.674 189.465 350.094 183.839 351.121C180.99 351.641 175.212 351.591 172.007 351.018C166.35 350.008 161.93 347.878 158.314 344.418C153.519 339.832 150.889 333.617 150.217 325.29C149.981 322.356 150.228 313.423 150.641 309.985C151.22 305.161 152.513 300.454 154.245 296.866C158.544 287.96 165.783 283.528 176.164 283.448C177.594 283.437 179.555 283.525 180.523 283.644ZM355.253 287.177C351.402 287.514 346.924 288.896 343.985 290.654C336.193 295.314 331.255 304.866 330.204 317.31C329.824 321.81 329.694 329.667 329.958 332.276C331.114 343.737 336.264 352.118 344.845 356.502C352.393 360.359 363.794 360.977 371.751 357.962C374.011 357.106 376.648 355.696 378.605 354.299C380.424 353 384.359 349.127 384.359 348.635C384.359 348.493 383.149 346.414 381.671 344.016C380.192 341.618 378.538 338.907 377.995 337.993C377.452 337.078 376.694 335.833 376.31 335.227L375.613 334.123L373.587 336.058C369.838 339.639 366.537 341.007 361.644 341.007C358.902 341.007 357.591 340.757 355.929 339.917C353.704 338.794 352.502 336.79 351.868 333.15C351.698 332.175 351.598 331.34 351.644 331.294C351.69 331.247 359.264 331.458 368.474 331.762C377.684 332.067 385.277 332.258 385.347 332.188C385.511 332.024 385.782 324.717 385.798 320.012C385.857 303.068 380.184 292.663 368.687 288.631C365.185 287.403 359.587 286.797 355.253 287.177ZM174.142 297.855C171.244 298.792 169.602 300.879 168.584 304.924C168.108 306.812 167.514 310.595 167.669 310.749C167.714 310.795 171.605 310.956 176.314 311.109L184.877 311.386L184.873 308.476C184.867 303.97 184.085 301.309 182.234 299.504C180.752 298.058 179.725 297.674 177.196 297.62C175.802 297.59 174.701 297.675 174.142 297.855ZM179.65 300.51C181.346 301.353 182.313 303.528 182.53 306.989L182.658 309.035L179.149 308.892C177.218 308.814 175.032 308.717 174.29 308.678C173.548 308.639 172.321 308.601 171.564 308.593L170.187 308.58L170.472 307.08C171.276 302.856 172.68 300.582 174.8 300.07C176.161 299.742 178.538 299.957 179.65 300.51ZM361.6 306.487C363.346 307.333 364.343 309.559 364.578 313.13L364.706 315.085L363.479 314.958C362.804 314.888 360.034 314.768 357.322 314.69L352.392 314.55V314.048C352.392 313.044 353.078 310.52 353.736 309.099C354.899 306.591 356.187 305.827 359.049 305.946C360.157 305.993 360.91 306.152 361.6 306.487ZM410.722 337.878C406.028 338.385 402.236 341.655 401.039 346.227C400.571 348.016 400.577 351.128 401.052 352.751C402.22 356.739 405.405 359.86 409.215 360.749C410.643 361.082 413.91 361.084 415.315 360.752C418.292 360.049 420.951 357.97 422.396 355.218C423.376 353.35 423.792 351.575 423.796 349.248C423.8 346.996 423.382 345.279 422.397 343.501C420.161 339.467 415.737 337.336 410.722 337.878ZM415.438 340.559C416.704 340.952 418.24 341.93 419.069 342.871C423.549 347.956 421.57 356.383 415.446 358.291C413.945 358.759 411.1 358.799 409.509 358.375C407.057 357.722 404.95 355.919 403.807 353.497C403.27 352.358 403.164 351.855 403.084 350.052C402.941 346.831 403.64 344.796 405.606 342.715C407.504 340.705 409.707 339.952 412.938 340.207C413.945 340.286 415.07 340.444 415.438 340.559Z" fill="#121931"/>
</svg>
