<svg width="299" height="368" viewBox="0 0 299 368" fill="none" xmlns="http://www.w3.org/2000/svg">
<path d="M13.168 359V334.729H17.1523V359H13.168ZM30.3838 334.729C32.4756 334.729 34.2021 334.983 35.5635 335.492C36.9359 336.001 37.9541 336.776 38.6182 337.816C39.2933 338.857 39.6309 340.179 39.6309 341.784C39.6309 342.979 39.4095 343.998 38.9668 344.839C38.5241 345.68 37.943 346.377 37.2236 346.931C36.5042 347.484 35.735 347.927 34.916 348.259L41.8057 359H37.3066L31.4463 349.271H27.5449V359H23.5605V334.729H30.3838ZM30.1182 338.049H27.5449V345.984H30.3008C32.1491 345.984 33.4883 345.641 34.3184 344.955C35.1595 344.269 35.5801 343.256 35.5801 341.917C35.5801 340.511 35.1318 339.515 34.2354 338.929C33.3499 338.342 31.9775 338.049 30.1182 338.049ZM60.3164 359L57.9424 352.26H48.6621L46.2881 359H42.0879L51.1191 334.629H55.5352L64.5498 359H60.3164ZM56.9131 348.84L54.6055 342.199C54.5169 341.911 54.3896 341.507 54.2236 340.987C54.0576 340.456 53.8916 339.919 53.7256 339.377C53.5596 338.824 53.4212 338.359 53.3105 337.982C53.1999 338.436 53.0615 338.945 52.8955 339.51C52.7406 340.063 52.5856 340.583 52.4307 341.07C52.2868 341.557 52.1761 341.934 52.0986 342.199L49.7744 348.84H56.9131ZM86.2646 359H81.6826L74.1289 347.977L71.7383 349.919V359H67.7539V334.729H71.7383V346.333C72.2253 345.735 72.7178 345.138 73.2158 344.54C73.7139 343.942 74.2119 343.345 74.71 342.747L81.5498 334.729H86.0488L76.9844 345.354L86.2646 359ZM89.4688 359V334.729H93.4531V355.613H103.763V359H89.4688ZM107.963 359V334.729H111.947V359H107.963ZM132.367 352.393C132.367 353.831 132.013 355.071 131.305 356.111C130.607 357.152 129.6 357.949 128.283 358.502C126.977 359.055 125.417 359.332 123.602 359.332C122.716 359.332 121.869 359.282 121.062 359.183C120.254 359.083 119.49 358.939 118.771 358.751C118.062 358.552 117.415 358.314 116.828 358.037V354.285C117.813 354.717 118.914 355.11 120.132 355.464C121.349 355.807 122.589 355.979 123.851 355.979C124.88 355.979 125.732 355.846 126.407 355.58C127.093 355.303 127.603 354.916 127.935 354.418C128.267 353.909 128.433 353.317 128.433 352.642C128.433 351.922 128.239 351.313 127.852 350.815C127.464 350.317 126.878 349.864 126.092 349.454C125.317 349.034 124.343 348.585 123.17 348.109C122.373 347.788 121.609 347.423 120.879 347.014C120.16 346.604 119.518 346.123 118.953 345.569C118.389 345.016 117.94 344.363 117.608 343.61C117.287 342.847 117.127 341.95 117.127 340.921C117.127 339.549 117.453 338.375 118.106 337.401C118.771 336.427 119.7 335.68 120.896 335.16C122.102 334.64 123.507 334.38 125.112 334.38C126.385 334.38 127.58 334.513 128.698 334.778C129.827 335.044 130.934 335.42 132.019 335.907L130.757 339.111C129.761 338.702 128.792 338.375 127.852 338.132C126.922 337.888 125.97 337.767 124.996 337.767C124.155 337.767 123.441 337.894 122.854 338.148C122.268 338.403 121.82 338.763 121.51 339.228C121.211 339.681 121.062 340.224 121.062 340.854C121.062 341.563 121.233 342.16 121.576 342.647C121.93 343.123 122.473 343.561 123.203 343.959C123.945 344.357 124.896 344.8 126.059 345.287C127.398 345.84 128.532 346.422 129.462 347.03C130.403 347.639 131.122 348.369 131.62 349.222C132.118 350.063 132.367 351.12 132.367 352.393ZM167.43 346.831C167.43 348.701 167.192 350.406 166.716 351.944C166.251 353.472 165.548 354.789 164.607 355.896C163.667 356.991 162.488 357.838 161.071 358.436C159.655 359.033 157.994 359.332 156.091 359.332C154.154 359.332 152.472 359.033 151.044 358.436C149.627 357.838 148.449 356.986 147.508 355.879C146.578 354.772 145.881 353.45 145.416 351.911C144.951 350.373 144.719 348.668 144.719 346.798C144.719 344.297 145.128 342.116 145.947 340.257C146.777 338.386 148.034 336.937 149.716 335.907C151.409 334.867 153.545 334.347 156.124 334.347C158.647 334.347 160.745 334.861 162.416 335.891C164.087 336.92 165.338 338.37 166.168 340.24C167.009 342.1 167.43 344.297 167.43 346.831ZM148.902 346.831C148.902 348.701 149.157 350.323 149.666 351.695C150.175 353.057 150.955 354.108 152.007 354.85C153.069 355.58 154.431 355.945 156.091 355.945C157.762 355.945 159.123 355.58 160.175 354.85C161.226 354.108 162.001 353.057 162.499 351.695C162.997 350.323 163.246 348.701 163.246 346.831C163.246 343.987 162.676 341.762 161.536 340.157C160.407 338.541 158.603 337.733 156.124 337.733C154.464 337.733 153.097 338.099 152.023 338.829C150.961 339.56 150.175 340.605 149.666 341.967C149.157 343.317 148.902 344.938 148.902 346.831ZM176.594 359H172.643V334.729H186.355V338.082H176.594V345.652H185.725V348.989H176.594V359ZM194.723 359H190.771V334.729H204.484V338.082H194.723V345.652H203.854V348.989H194.723V359ZM208.9 359V334.729H212.885V359H208.9ZM229.636 337.767C228.474 337.767 227.433 337.977 226.515 338.397C225.607 338.818 224.838 339.427 224.207 340.224C223.576 341.009 223.095 341.967 222.763 343.096C222.431 344.214 222.265 345.475 222.265 346.881C222.265 348.762 222.53 350.384 223.062 351.745C223.593 353.095 224.401 354.136 225.485 354.866C226.57 355.586 227.942 355.945 229.603 355.945C230.632 355.945 231.633 355.846 232.607 355.646C233.581 355.447 234.589 355.176 235.629 354.833V358.22C234.644 358.607 233.648 358.889 232.641 359.066C231.633 359.243 230.471 359.332 229.154 359.332C226.675 359.332 224.617 358.817 222.979 357.788C221.352 356.759 220.134 355.309 219.326 353.438C218.529 351.568 218.131 349.377 218.131 346.864C218.131 345.027 218.385 343.345 218.895 341.817C219.404 340.29 220.145 338.973 221.119 337.866C222.093 336.748 223.294 335.891 224.722 335.293C226.16 334.684 227.804 334.38 229.652 334.38C230.87 334.38 232.065 334.518 233.238 334.795C234.423 335.061 235.518 335.442 236.525 335.94L235.131 339.228C234.29 338.829 233.41 338.486 232.491 338.198C231.573 337.91 230.621 337.767 229.636 337.767ZM240.842 359V334.729H244.826V359H240.842ZM266.275 359L263.901 352.26H254.621L252.247 359H248.047L257.078 334.629H261.494L270.509 359H266.275ZM262.872 348.84L260.564 342.199C260.476 341.911 260.349 341.507 260.183 340.987C260.017 340.456 259.851 339.919 259.685 339.377C259.519 338.824 259.38 338.359 259.27 337.982C259.159 338.436 259.021 338.945 258.854 339.51C258.7 340.063 258.545 340.583 258.39 341.07C258.246 341.557 258.135 341.934 258.058 342.199L255.733 348.84H262.872ZM273.713 359V334.729H277.697V355.613H288.007V359H273.713Z" fill="#121931"/>
<path fill-rule="evenodd" clip-rule="evenodd" d="M134.574 81.1747C125.857 86.2695 118.59 90.57 118.425 90.7316C118.104 91.044 149.365 109.327 150.22 109.327C150.84 109.327 182.314 91.8654 182.314 91.521C182.314 91.3389 151.776 72.5323 150.616 72.0004C150.51 71.9517 143.291 76.0802 134.574 81.1747ZM79.4789 113.131C76.3907 114.972 69.8118 118.888 64.8592 121.834C55.3691 127.479 54.0935 128.559 53.1993 131.704C52.9272 132.661 52.9334 140.818 53.2198 157.647C53.4494 171.147 53.8607 195.205 54.134 211.107C54.4085 227.073 54.7873 240.169 54.9798 240.351C55.1719 240.532 76.6674 253.127 102.748 268.34L150.168 296L164.405 287.954C172.235 283.53 192.558 272.033 209.567 262.407C226.575 252.782 242.118 244.016 244.106 242.928L247.721 240.951L247.468 186.446L247.215 131.941L246.249 129.927C245.717 128.82 244.639 127.418 243.853 126.811C241.652 125.112 219.793 111.94 218.264 111.392C216.461 110.746 214.064 110.752 212.203 111.409C211.367 111.704 203.039 116.413 193.696 121.874C184.353 127.335 163.727 139.382 147.86 148.646L119.011 165.488L118.723 202.349C118.565 222.623 118.392 239.211 118.338 239.211C118.018 239.211 112.999 236.844 107.774 234.229C101.139 230.908 93.45 226.573 88.4285 223.323L85.2031 221.236L85.435 206.353C85.5626 198.168 85.7814 181.505 85.9217 169.325L86.1764 147.18L87.1815 146.483C87.7343 146.099 94.3619 142.174 101.909 137.759C109.457 133.345 116.046 129.472 116.553 129.152C117.465 128.576 117.443 128.553 114.04 126.548C112.152 125.435 105.009 121.192 98.1664 117.119C91.3243 113.046 85.5839 109.729 85.4099 109.748C85.2363 109.768 82.5671 111.29 79.4789 113.131ZM214.76 185.189L214.735 222.396L183.059 241.337C165.637 251.755 151.21 260.337 151 260.407C150.748 260.492 150.616 247.465 150.616 222.482V184.427L182.411 166.229C199.898 156.22 214.336 148.02 214.495 148.006C214.655 147.994 214.774 164.726 214.76 185.189Z" fill="#121931"/>
</svg>
