<svg width="306" height="368" viewBox="0 0 306 368" fill="none" xmlns="http://www.w3.org/2000/svg">
<path d="M281 56H25V312H281V56Z" fill="white"/>
<path d="M48.7241 72H41V79.7241H48.7241V72Z" fill="black"/>
<path d="M56.4483 72H48.7241V79.7241H56.4483V72Z" fill="black"/>
<path d="M64.1724 72H56.4483V79.7241H64.1724V72Z" fill="black"/>
<path d="M71.8966 72H64.1724V79.7241H71.8966V72Z" fill="black"/>
<path d="M79.6207 72H71.8966V79.7241H79.6207V72Z" fill="black"/>
<path d="M87.3448 72H79.6207V79.7241H87.3448V72Z" fill="black"/>
<path d="M95.069 72H87.3448V79.7241H95.069V72Z" fill="black"/>
<path d="M110.517 72H102.793V79.7241H110.517V72Z" fill="black"/>
<path d="M125.966 72H118.241V79.7241H125.966V72Z" fill="black"/>
<path d="M133.69 72H125.966V79.7241H133.69V72Z" fill="black"/>
<path d="M141.414 72H133.69V79.7241H141.414V72Z" fill="black"/>
<path d="M149.138 72H141.414V79.7241H149.138V72Z" fill="black"/>
<path d="M180.034 72H172.31V79.7241H180.034V72Z" fill="black"/>
<path d="M187.759 72H180.034V79.7241H187.759V72Z" fill="black"/>
<path d="M195.483 72H187.759V79.7241H195.483V72Z" fill="black"/>
<path d="M203.207 72H195.483V79.7241H203.207V72Z" fill="black"/>
<path d="M218.655 72H210.931V79.7241H218.655V72Z" fill="black"/>
<path d="M226.379 72H218.655V79.7241H226.379V72Z" fill="black"/>
<path d="M234.103 72H226.379V79.7241H234.103V72Z" fill="black"/>
<path d="M241.828 72H234.103V79.7241H241.828V72Z" fill="black"/>
<path d="M249.552 72H241.828V79.7241H249.552V72Z" fill="black"/>
<path d="M257.276 72H249.552V79.7241H257.276V72Z" fill="black"/>
<path d="M265 72H257.276V79.7241H265V72Z" fill="black"/>
<path d="M48.7241 79.7241H41V87.4483H48.7241V79.7241Z" fill="black"/>
<path d="M95.069 79.7241H87.3448V87.4483H95.069V79.7241Z" fill="black"/>
<path d="M125.966 79.7241H118.241V87.4483H125.966V79.7241Z" fill="black"/>
<path d="M141.414 79.7241H133.69V87.4483H141.414V79.7241Z" fill="black"/>
<path d="M149.138 79.7241H141.414V87.4483H149.138V79.7241Z" fill="black"/>
<path d="M187.759 79.7241H180.034V87.4483H187.759V79.7241Z" fill="black"/>
<path d="M195.483 79.7241H187.759V87.4483H195.483V79.7241Z" fill="black"/>
<path d="M203.207 79.7241H195.483V87.4483H203.207V79.7241Z" fill="black"/>
<path d="M218.655 79.7241H210.931V87.4483H218.655V79.7241Z" fill="black"/>
<path d="M265 79.7241H257.276V87.4483H265V79.7241Z" fill="black"/>
<path d="M48.7241 87.4483H41V95.1724H48.7241V87.4483Z" fill="black"/>
<path d="M64.1724 87.4483H56.4483V95.1724H64.1724V87.4483Z" fill="black"/>
<path d="M71.8966 87.4483H64.1724V95.1724H71.8966V87.4483Z" fill="black"/>
<path d="M79.6207 87.4483H71.8966V95.1724H79.6207V87.4483Z" fill="black"/>
<path d="M95.069 87.4483H87.3448V95.1724H95.069V87.4483Z" fill="black"/>
<path d="M118.241 87.4483H110.517V95.1724H118.241V87.4483Z" fill="black"/>
<path d="M133.69 87.4483H125.966V95.1724H133.69V87.4483Z" fill="black"/>
<path d="M149.138 87.4483H141.414V95.1724H149.138V87.4483Z" fill="black"/>
<path d="M156.862 87.4483H149.138V95.1724H156.862V87.4483Z" fill="black"/>
<path d="M172.31 87.4483H164.586V95.1724H172.31V87.4483Z" fill="black"/>
<path d="M187.759 87.4483H180.034V95.1724H187.759V87.4483Z" fill="black"/>
<path d="M218.655 87.4483H210.931V95.1724H218.655V87.4483Z" fill="black"/>
<path d="M234.103 87.4483H226.379V95.1724H234.103V87.4483Z" fill="black"/>
<path d="M241.828 87.4483H234.103V95.1724H241.828V87.4483Z" fill="black"/>
<path d="M249.552 87.4483H241.828V95.1724H249.552V87.4483Z" fill="black"/>
<path d="M265 87.4483H257.276V95.1724H265V87.4483Z" fill="black"/>
<path d="M48.7241 95.1724H41V102.897H48.7241V95.1724Z" fill="black"/>
<path d="M64.1724 95.1724H56.4483V102.897H64.1724V95.1724Z" fill="black"/>
<path d="M71.8966 95.1724H64.1724V102.897H71.8966V95.1724Z" fill="black"/>
<path d="M79.6207 95.1724H71.8966V102.897H79.6207V95.1724Z" fill="black"/>
<path d="M95.069 95.1724H87.3448V102.897H95.069V95.1724Z" fill="black"/>
<path d="M110.517 95.1724H102.793V102.897H110.517V95.1724Z" fill="black"/>
<path d="M118.241 95.1724H110.517V102.897H118.241V95.1724Z" fill="black"/>
<path d="M125.966 95.1724H118.241V102.897H125.966V95.1724Z" fill="black"/>
<path d="M172.31 95.1724H164.586V102.897H172.31V95.1724Z" fill="black"/>
<path d="M180.034 95.1724H172.31V102.897H180.034V95.1724Z" fill="black"/>
<path d="M187.759 95.1724H180.034V102.897H187.759V95.1724Z" fill="black"/>
<path d="M203.207 95.1724H195.483V102.897H203.207V95.1724Z" fill="black"/>
<path d="M218.655 95.1724H210.931V102.897H218.655V95.1724Z" fill="black"/>
<path d="M234.103 95.1724H226.379V102.897H234.103V95.1724Z" fill="black"/>
<path d="M241.828 95.1724H234.103V102.897H241.828V95.1724Z" fill="black"/>
<path d="M249.552 95.1724H241.828V102.897H249.552V95.1724Z" fill="black"/>
<path d="M265 95.1724H257.276V102.897H265V95.1724Z" fill="black"/>
<path d="M48.7241 102.897H41V110.621H48.7241V102.897Z" fill="black"/>
<path d="M64.1724 102.897H56.4483V110.621H64.1724V102.897Z" fill="black"/>
<path d="M71.8966 102.897H64.1724V110.621H71.8966V102.897Z" fill="black"/>
<path d="M79.6207 102.897H71.8966V110.621H79.6207V102.897Z" fill="black"/>
<path d="M95.069 102.897H87.3448V110.621H95.069V102.897Z" fill="black"/>
<path d="M110.517 102.897H102.793V110.621H110.517V102.897Z" fill="black"/>
<path d="M118.241 102.897H110.517V110.621H118.241V102.897Z" fill="black"/>
<path d="M125.966 102.897H118.241V110.621H125.966V102.897Z" fill="black"/>
<path d="M149.138 102.897H141.414V110.621H149.138V102.897Z" fill="black"/>
<path d="M164.586 102.897H156.862V110.621H164.586V102.897Z" fill="black"/>
<path d="M172.31 102.897H164.586V110.621H172.31V102.897Z" fill="black"/>
<path d="M180.034 102.897H172.31V110.621H180.034V102.897Z" fill="black"/>
<path d="M187.759 102.897H180.034V110.621H187.759V102.897Z" fill="black"/>
<path d="M203.207 102.897H195.483V110.621H203.207V102.897Z" fill="black"/>
<path d="M218.655 102.897H210.931V110.621H218.655V102.897Z" fill="black"/>
<path d="M234.103 102.897H226.379V110.621H234.103V102.897Z" fill="black"/>
<path d="M241.828 102.897H234.103V110.621H241.828V102.897Z" fill="black"/>
<path d="M249.552 102.897H241.828V110.621H249.552V102.897Z" fill="black"/>
<path d="M265 102.897H257.276V110.621H265V102.897Z" fill="black"/>
<path d="M48.7241 110.621H41V118.345H48.7241V110.621Z" fill="black"/>
<path d="M95.069 110.621H87.3448V118.345H95.069V110.621Z" fill="black"/>
<path d="M110.517 110.621H102.793V118.345H110.517V110.621Z" fill="black"/>
<path d="M133.69 110.621H125.966V118.345H133.69V110.621Z" fill="black"/>
<path d="M149.138 110.621H141.414V118.345H149.138V110.621Z" fill="black"/>
<path d="M180.034 110.621H172.31V118.345H180.034V110.621Z" fill="black"/>
<path d="M195.483 110.621H187.759V118.345H195.483V110.621Z" fill="black"/>
<path d="M218.655 110.621H210.931V118.345H218.655V110.621Z" fill="black"/>
<path d="M265 110.621H257.276V118.345H265V110.621Z" fill="black"/>
<path d="M48.7241 118.345H41V126.069H48.7241V118.345Z" fill="black"/>
<path d="M56.4483 118.345H48.7241V126.069H56.4483V118.345Z" fill="black"/>
<path d="M64.1724 118.345H56.4483V126.069H64.1724V118.345Z" fill="black"/>
<path d="M71.8966 118.345H64.1724V126.069H71.8966V118.345Z" fill="black"/>
<path d="M79.6207 118.345H71.8966V126.069H79.6207V118.345Z" fill="black"/>
<path d="M87.3448 118.345H79.6207V126.069H87.3448V118.345Z" fill="black"/>
<path d="M95.069 118.345H87.3448V126.069H95.069V118.345Z" fill="black"/>
<path d="M110.517 118.345H102.793V126.069H110.517V118.345Z" fill="black"/>
<path d="M125.966 118.345H118.241V126.069H125.966V118.345Z" fill="black"/>
<path d="M141.414 118.345H133.69V126.069H141.414V118.345Z" fill="black"/>
<path d="M156.862 118.345H149.138V126.069H156.862V118.345Z" fill="black"/>
<path d="M172.31 118.345H164.586V126.069H172.31V118.345Z" fill="black"/>
<path d="M187.759 118.345H180.034V126.069H187.759V118.345Z" fill="black"/>
<path d="M203.207 118.345H195.483V126.069H203.207V118.345Z" fill="black"/>
<path d="M218.655 118.345H210.931V126.069H218.655V118.345Z" fill="black"/>
<path d="M226.379 118.345H218.655V126.069H226.379V118.345Z" fill="black"/>
<path d="M234.103 118.345H226.379V126.069H234.103V118.345Z" fill="black"/>
<path d="M241.828 118.345H234.103V126.069H241.828V118.345Z" fill="black"/>
<path d="M249.552 118.345H241.828V126.069H249.552V118.345Z" fill="black"/>
<path d="M257.276 118.345H249.552V126.069H257.276V118.345Z" fill="black"/>
<path d="M265 118.345H257.276V126.069H265V118.345Z" fill="black"/>
<path d="M110.517 126.069H102.793V133.793H110.517V126.069Z" fill="black"/>
<path d="M125.966 126.069H118.241V133.793H125.966V126.069Z" fill="black"/>
<path d="M133.69 126.069H125.966V133.793H133.69V126.069Z" fill="black"/>
<path d="M156.862 126.069H149.138V133.793H156.862V126.069Z" fill="black"/>
<path d="M164.586 126.069H156.862V133.793H164.586V126.069Z" fill="black"/>
<path d="M48.7241 133.793H41V141.517H48.7241V133.793Z" fill="black"/>
<path d="M56.4483 133.793H48.7241V141.517H56.4483V133.793Z" fill="black"/>
<path d="M64.1724 133.793H56.4483V141.517H64.1724V133.793Z" fill="black"/>
<path d="M79.6207 133.793H71.8966V141.517H79.6207V133.793Z" fill="black"/>
<path d="M95.069 133.793H87.3448V141.517H95.069V133.793Z" fill="black"/>
<path d="M110.517 133.793H102.793V141.517H110.517V133.793Z" fill="black"/>
<path d="M133.69 133.793H125.966V141.517H133.69V133.793Z" fill="black"/>
<path d="M164.586 133.793H156.862V141.517H164.586V133.793Z" fill="black"/>
<path d="M180.034 133.793H172.31V141.517H180.034V133.793Z" fill="black"/>
<path d="M195.483 133.793H187.759V141.517H195.483V133.793Z" fill="black"/>
<path d="M203.207 133.793H195.483V141.517H203.207V133.793Z" fill="black"/>
<path d="M210.931 133.793H203.207V141.517H210.931V133.793Z" fill="black"/>
<path d="M218.655 133.793H210.931V141.517H218.655V133.793Z" fill="black"/>
<path d="M226.379 133.793H218.655V141.517H226.379V133.793Z" fill="black"/>
<path d="M234.103 133.793H226.379V141.517H234.103V133.793Z" fill="black"/>
<path d="M241.828 133.793H234.103V141.517H241.828V133.793Z" fill="black"/>
<path d="M265 133.793H257.276V141.517H265V133.793Z" fill="black"/>
<path d="M48.7241 141.517H41V149.241H48.7241V141.517Z" fill="black"/>
<path d="M64.1724 141.517H56.4483V149.241H64.1724V141.517Z" fill="black"/>
<path d="M141.414 141.517H133.69V149.241H141.414V141.517Z" fill="black"/>
<path d="M156.862 141.517H149.138V149.241H156.862V141.517Z" fill="black"/>
<path d="M187.759 141.517H180.034V149.241H187.759V141.517Z" fill="black"/>
<path d="M203.207 141.517H195.483V149.241H203.207V141.517Z" fill="black"/>
<path d="M210.931 141.517H203.207V149.241H210.931V141.517Z" fill="black"/>
<path d="M226.379 141.517H218.655V149.241H226.379V141.517Z" fill="black"/>
<path d="M241.828 141.517H234.103V149.241H241.828V141.517Z" fill="black"/>
<path d="M249.552 141.517H241.828V149.241H249.552V141.517Z" fill="black"/>
<path d="M257.276 141.517H249.552V149.241H257.276V141.517Z" fill="black"/>
<path d="M48.7241 149.241H41V156.966H48.7241V149.241Z" fill="black"/>
<path d="M71.8966 149.241H64.1724V156.966H71.8966V149.241Z" fill="black"/>
<path d="M95.069 149.241H87.3448V156.966H95.069V149.241Z" fill="black"/>
<path d="M102.793 149.241H95.069V156.966H102.793V149.241Z" fill="black"/>
<path d="M110.517 149.241H102.793V156.966H110.517V149.241Z" fill="black"/>
<path d="M118.241 149.241H110.517V156.966H118.241V149.241Z" fill="black"/>
<path d="M133.69 149.241H125.966V156.966H133.69V149.241Z" fill="black"/>
<path d="M149.138 149.241H141.414V156.966H149.138V149.241Z" fill="black"/>
<path d="M180.034 149.241H172.31V156.966H180.034V149.241Z" fill="black"/>
<path d="M187.759 149.241H180.034V156.966H187.759V149.241Z" fill="black"/>
<path d="M195.483 149.241H187.759V156.966H195.483V149.241Z" fill="black"/>
<path d="M210.931 149.241H203.207V156.966H210.931V149.241Z" fill="black"/>
<path d="M226.379 149.241H218.655V156.966H226.379V149.241Z" fill="black"/>
<path d="M249.552 149.241H241.828V156.966H249.552V149.241Z" fill="black"/>
<path d="M265 149.241H257.276V156.966H265V149.241Z" fill="black"/>
<path d="M56.4483 156.966H48.7241V164.69H56.4483V156.966Z" fill="black"/>
<path d="M64.1724 156.966H56.4483V164.69H64.1724V156.966Z" fill="black"/>
<path d="M71.8966 156.966H64.1724V164.69H71.8966V156.966Z" fill="black"/>
<path d="M79.6207 156.966H71.8966V164.69H79.6207V156.966Z" fill="black"/>
<path d="M118.241 156.966H110.517V164.69H118.241V156.966Z" fill="black"/>
<path d="M125.966 156.966H118.241V164.69H125.966V156.966Z" fill="black"/>
<path d="M149.138 156.966H141.414V164.69H149.138V156.966Z" fill="black"/>
<path d="M156.862 156.966H149.138V164.69H156.862V156.966Z" fill="black"/>
<path d="M164.586 156.966H156.862V164.69H164.586V156.966Z" fill="black"/>
<path d="M180.034 156.966H172.31V164.69H180.034V156.966Z" fill="black"/>
<path d="M187.759 156.966H180.034V164.69H187.759V156.966Z" fill="black"/>
<path d="M218.655 156.966H210.931V164.69H218.655V156.966Z" fill="black"/>
<path d="M241.828 156.966H234.103V164.69H241.828V156.966Z" fill="black"/>
<path d="M56.4483 164.69H48.7241V172.414H56.4483V164.69Z" fill="black"/>
<path d="M87.3448 164.69H79.6207V172.414H87.3448V164.69Z" fill="black"/>
<path d="M95.069 164.69H87.3448V172.414H95.069V164.69Z" fill="black"/>
<path d="M102.793 164.69H95.069V172.414H102.793V164.69Z" fill="black"/>
<path d="M110.517 164.69H102.793V172.414H110.517V164.69Z" fill="black"/>
<path d="M125.966 164.69H118.241V172.414H125.966V164.69Z" fill="black"/>
<path d="M133.69 164.69H125.966V172.414H133.69V164.69Z" fill="black"/>
<path d="M149.138 164.69H141.414V172.414H149.138V164.69Z" fill="black"/>
<path d="M180.034 164.69H172.31V172.414H180.034V164.69Z" fill="black"/>
<path d="M210.931 164.69H203.207V172.414H210.931V164.69Z" fill="black"/>
<path d="M218.655 164.69H210.931V172.414H218.655V164.69Z" fill="black"/>
<path d="M226.379 164.69H218.655V172.414H226.379V164.69Z" fill="black"/>
<path d="M234.103 164.69H226.379V172.414H234.103V164.69Z" fill="black"/>
<path d="M241.828 164.69H234.103V172.414H241.828V164.69Z" fill="black"/>
<path d="M249.552 164.69H241.828V172.414H249.552V164.69Z" fill="black"/>
<path d="M257.276 164.69H249.552V172.414H257.276V164.69Z" fill="black"/>
<path d="M64.1724 172.414H56.4483V180.138H64.1724V172.414Z" fill="black"/>
<path d="M79.6207 172.414H71.8966V180.138H79.6207V172.414Z" fill="black"/>
<path d="M87.3448 172.414H79.6207V180.138H87.3448V172.414Z" fill="black"/>
<path d="M110.517 172.414H102.793V180.138H110.517V172.414Z" fill="black"/>
<path d="M141.414 172.414H133.69V180.138H141.414V172.414Z" fill="black"/>
<path d="M164.586 172.414H156.862V180.138H164.586V172.414Z" fill="black"/>
<path d="M187.759 172.414H180.034V180.138H187.759V172.414Z" fill="black"/>
<path d="M195.483 172.414H187.759V180.138H195.483V172.414Z" fill="black"/>
<path d="M203.207 172.414H195.483V180.138H203.207V172.414Z" fill="black"/>
<path d="M210.931 172.414H203.207V180.138H210.931V172.414Z" fill="black"/>
<path d="M218.655 172.414H210.931V180.138H218.655V172.414Z" fill="black"/>
<path d="M226.379 172.414H218.655V180.138H226.379V172.414Z" fill="black"/>
<path d="M234.103 172.414H226.379V180.138H234.103V172.414Z" fill="black"/>
<path d="M249.552 172.414H241.828V180.138H249.552V172.414Z" fill="black"/>
<path d="M48.7241 180.138H41V187.862H48.7241V180.138Z" fill="black"/>
<path d="M64.1724 180.138H56.4483V187.862H64.1724V180.138Z" fill="black"/>
<path d="M71.8966 180.138H64.1724V187.862H71.8966V180.138Z" fill="black"/>
<path d="M79.6207 180.138H71.8966V187.862H79.6207V180.138Z" fill="black"/>
<path d="M87.3448 180.138H79.6207V187.862H87.3448V180.138Z" fill="black"/>
<path d="M95.069 180.138H87.3448V187.862H95.069V180.138Z" fill="black"/>
<path d="M102.793 180.138H95.069V187.862H102.793V180.138Z" fill="black"/>
<path d="M110.517 180.138H102.793V187.862H110.517V180.138Z" fill="black"/>
<path d="M118.241 180.138H110.517V187.862H118.241V180.138Z" fill="black"/>
<path d="M125.966 180.138H118.241V187.862H125.966V180.138Z" fill="black"/>
<path d="M133.69 180.138H125.966V187.862H133.69V180.138Z" fill="black"/>
<path d="M141.414 180.138H133.69V187.862H141.414V180.138Z" fill="black"/>
<path d="M156.862 180.138H149.138V187.862H156.862V180.138Z" fill="black"/>
<path d="M164.586 180.138H156.862V187.862H164.586V180.138Z" fill="black"/>
<path d="M187.759 180.138H180.034V187.862H187.759V180.138Z" fill="black"/>
<path d="M241.828 180.138H234.103V187.862H241.828V180.138Z" fill="black"/>
<path d="M249.552 180.138H241.828V187.862H249.552V180.138Z" fill="black"/>
<path d="M257.276 180.138H249.552V187.862H257.276V180.138Z" fill="black"/>
<path d="M64.1724 187.862H56.4483V195.586H64.1724V187.862Z" fill="black"/>
<path d="M71.8966 187.862H64.1724V195.586H71.8966V187.862Z" fill="black"/>
<path d="M110.517 187.862H102.793V195.586H110.517V187.862Z" fill="black"/>
<path d="M118.241 187.862H110.517V195.586H118.241V187.862Z" fill="black"/>
<path d="M125.966 187.862H118.241V195.586H125.966V187.862Z" fill="black"/>
<path d="M133.69 187.862H125.966V195.586H133.69V187.862Z" fill="black"/>
<path d="M149.138 187.862H141.414V195.586H149.138V187.862Z" fill="black"/>
<path d="M156.862 187.862H149.138V195.586H156.862V187.862Z" fill="black"/>
<path d="M164.586 187.862H156.862V195.586H164.586V187.862Z" fill="black"/>
<path d="M180.034 187.862H172.31V195.586H180.034V187.862Z" fill="black"/>
<path d="M187.759 187.862H180.034V195.586H187.759V187.862Z" fill="black"/>
<path d="M195.483 187.862H187.759V195.586H195.483V187.862Z" fill="black"/>
<path d="M203.207 187.862H195.483V195.586H203.207V187.862Z" fill="black"/>
<path d="M210.931 187.862H203.207V195.586H210.931V187.862Z" fill="black"/>
<path d="M218.655 187.862H210.931V195.586H218.655V187.862Z" fill="black"/>
<path d="M226.379 187.862H218.655V195.586H226.379V187.862Z" fill="black"/>
<path d="M234.103 187.862H226.379V195.586H234.103V187.862Z" fill="black"/>
<path d="M241.828 187.862H234.103V195.586H241.828V187.862Z" fill="black"/>
<path d="M249.552 187.862H241.828V195.586H249.552V187.862Z" fill="black"/>
<path d="M265 187.862H257.276V195.586H265V187.862Z" fill="black"/>
<path d="M48.7241 195.586H41V203.31H48.7241V195.586Z" fill="black"/>
<path d="M71.8966 195.586H64.1724V203.31H71.8966V195.586Z" fill="black"/>
<path d="M79.6207 195.586H71.8966V203.31H79.6207V195.586Z" fill="black"/>
<path d="M95.069 195.586H87.3448V203.31H95.069V195.586Z" fill="black"/>
<path d="M110.517 195.586H102.793V203.31H110.517V195.586Z" fill="black"/>
<path d="M141.414 195.586H133.69V203.31H141.414V195.586Z" fill="black"/>
<path d="M149.138 195.586H141.414V203.31H149.138V195.586Z" fill="black"/>
<path d="M226.379 195.586H218.655V203.31H226.379V195.586Z" fill="black"/>
<path d="M241.828 195.586H234.103V203.31H241.828V195.586Z" fill="black"/>
<path d="M48.7241 203.31H41V211.034H48.7241V203.31Z" fill="black"/>
<path d="M71.8966 203.31H64.1724V211.034H71.8966V203.31Z" fill="black"/>
<path d="M79.6207 203.31H71.8966V211.034H79.6207V203.31Z" fill="black"/>
<path d="M110.517 203.31H102.793V211.034H110.517V203.31Z" fill="black"/>
<path d="M118.241 203.31H110.517V211.034H118.241V203.31Z" fill="black"/>
<path d="M133.69 203.31H125.966V211.034H133.69V203.31Z" fill="black"/>
<path d="M149.138 203.31H141.414V211.034H149.138V203.31Z" fill="black"/>
<path d="M203.207 203.31H195.483V211.034H203.207V203.31Z" fill="black"/>
<path d="M210.931 203.31H203.207V211.034H210.931V203.31Z" fill="black"/>
<path d="M226.379 203.31H218.655V211.034H226.379V203.31Z" fill="black"/>
<path d="M79.6207 211.034H71.8966V218.759H79.6207V211.034Z" fill="black"/>
<path d="M87.3448 211.034H79.6207V218.759H87.3448V211.034Z" fill="black"/>
<path d="M95.069 211.034H87.3448V218.759H95.069V211.034Z" fill="black"/>
<path d="M102.793 211.034H95.069V218.759H102.793V211.034Z" fill="black"/>
<path d="M110.517 211.034H102.793V218.759H110.517V211.034Z" fill="black"/>
<path d="M118.241 211.034H110.517V218.759H118.241V211.034Z" fill="black"/>
<path d="M133.69 211.034H125.966V218.759H133.69V211.034Z" fill="black"/>
<path d="M149.138 211.034H141.414V218.759H149.138V211.034Z" fill="black"/>
<path d="M156.862 211.034H149.138V218.759H156.862V211.034Z" fill="black"/>
<path d="M180.034 211.034H172.31V218.759H180.034V211.034Z" fill="black"/>
<path d="M203.207 211.034H195.483V218.759H203.207V211.034Z" fill="black"/>
<path d="M210.931 211.034H203.207V218.759H210.931V211.034Z" fill="black"/>
<path d="M249.552 211.034H241.828V218.759H249.552V211.034Z" fill="black"/>
<path d="M257.276 211.034H249.552V218.759H257.276V211.034Z" fill="black"/>
<path d="M56.4483 218.759H48.7241V226.483H56.4483V218.759Z" fill="black"/>
<path d="M64.1724 218.759H56.4483V226.483H64.1724V218.759Z" fill="black"/>
<path d="M71.8966 218.759H64.1724V226.483H71.8966V218.759Z" fill="black"/>
<path d="M79.6207 218.759H71.8966V226.483H79.6207V218.759Z" fill="black"/>
<path d="M102.793 218.759H95.069V226.483H102.793V218.759Z" fill="black"/>
<path d="M110.517 218.759H102.793V226.483H110.517V218.759Z" fill="black"/>
<path d="M118.241 218.759H110.517V226.483H118.241V218.759Z" fill="black"/>
<path d="M156.862 218.759H149.138V226.483H156.862V218.759Z" fill="black"/>
<path d="M164.586 218.759H156.862V226.483H164.586V218.759Z" fill="black"/>
<path d="M180.034 218.759H172.31V226.483H180.034V218.759Z" fill="black"/>
<path d="M187.759 218.759H180.034V226.483H187.759V218.759Z" fill="black"/>
<path d="M218.655 218.759H210.931V226.483H218.655V218.759Z" fill="black"/>
<path d="M234.103 218.759H226.379V226.483H234.103V218.759Z" fill="black"/>
<path d="M257.276 218.759H249.552V226.483H257.276V218.759Z" fill="black"/>
<path d="M56.4483 226.483H48.7241V234.207H56.4483V226.483Z" fill="black"/>
<path d="M71.8966 226.483H64.1724V234.207H71.8966V226.483Z" fill="black"/>
<path d="M95.069 226.483H87.3448V234.207H95.069V226.483Z" fill="black"/>
<path d="M110.517 226.483H102.793V234.207H110.517V226.483Z" fill="black"/>
<path d="M141.414 226.483H133.69V234.207H141.414V226.483Z" fill="black"/>
<path d="M156.862 226.483H149.138V234.207H156.862V226.483Z" fill="black"/>
<path d="M172.31 226.483H164.586V234.207H172.31V226.483Z" fill="black"/>
<path d="M180.034 226.483H172.31V234.207H180.034V226.483Z" fill="black"/>
<path d="M187.759 226.483H180.034V234.207H187.759V226.483Z" fill="black"/>
<path d="M203.207 226.483H195.483V234.207H203.207V226.483Z" fill="black"/>
<path d="M210.931 226.483H203.207V234.207H210.931V226.483Z" fill="black"/>
<path d="M218.655 226.483H210.931V234.207H218.655V226.483Z" fill="black"/>
<path d="M226.379 226.483H218.655V234.207H226.379V226.483Z" fill="black"/>
<path d="M234.103 226.483H226.379V234.207H234.103V226.483Z" fill="black"/>
<path d="M265 226.483H257.276V234.207H265V226.483Z" fill="black"/>
<path d="M110.517 234.207H102.793V241.931H110.517V234.207Z" fill="black"/>
<path d="M156.862 234.207H149.138V241.931H156.862V234.207Z" fill="black"/>
<path d="M164.586 234.207H156.862V241.931H164.586V234.207Z" fill="black"/>
<path d="M187.759 234.207H180.034V241.931H187.759V234.207Z" fill="black"/>
<path d="M195.483 234.207H187.759V241.931H195.483V234.207Z" fill="black"/>
<path d="M203.207 234.207H195.483V241.931H203.207V234.207Z" fill="black"/>
<path d="M234.103 234.207H226.379V241.931H234.103V234.207Z" fill="black"/>
<path d="M265 234.207H257.276V241.931H265V234.207Z" fill="black"/>
<path d="M48.7241 241.931H41V249.655H48.7241V241.931Z" fill="black"/>
<path d="M56.4483 241.931H48.7241V249.655H56.4483V241.931Z" fill="black"/>
<path d="M64.1724 241.931H56.4483V249.655H64.1724V241.931Z" fill="black"/>
<path d="M71.8966 241.931H64.1724V249.655H71.8966V241.931Z" fill="black"/>
<path d="M79.6207 241.931H71.8966V249.655H79.6207V241.931Z" fill="black"/>
<path d="M87.3448 241.931H79.6207V249.655H87.3448V241.931Z" fill="black"/>
<path d="M95.069 241.931H87.3448V249.655H95.069V241.931Z" fill="black"/>
<path d="M125.966 241.931H118.241V249.655H125.966V241.931Z" fill="black"/>
<path d="M133.69 241.931H125.966V249.655H133.69V241.931Z" fill="black"/>
<path d="M141.414 241.931H133.69V249.655H141.414V241.931Z" fill="black"/>
<path d="M149.138 241.931H141.414V249.655H149.138V241.931Z" fill="black"/>
<path d="M164.586 241.931H156.862V249.655H164.586V241.931Z" fill="black"/>
<path d="M203.207 241.931H195.483V249.655H203.207V241.931Z" fill="black"/>
<path d="M218.655 241.931H210.931V249.655H218.655V241.931Z" fill="black"/>
<path d="M234.103 241.931H226.379V249.655H234.103V241.931Z" fill="black"/>
<path d="M48.7241 249.655H41V257.379H48.7241V249.655Z" fill="black"/>
<path d="M95.069 249.655H87.3448V257.379H95.069V249.655Z" fill="black"/>
<path d="M118.241 249.655H110.517V257.379H118.241V249.655Z" fill="black"/>
<path d="M133.69 249.655H125.966V257.379H133.69V249.655Z" fill="black"/>
<path d="M141.414 249.655H133.69V257.379H141.414V249.655Z" fill="black"/>
<path d="M149.138 249.655H141.414V257.379H149.138V249.655Z" fill="black"/>
<path d="M156.862 249.655H149.138V257.379H156.862V249.655Z" fill="black"/>
<path d="M172.31 249.655H164.586V257.379H172.31V249.655Z" fill="black"/>
<path d="M187.759 249.655H180.034V257.379H187.759V249.655Z" fill="black"/>
<path d="M203.207 249.655H195.483V257.379H203.207V249.655Z" fill="black"/>
<path d="M234.103 249.655H226.379V257.379H234.103V249.655Z" fill="black"/>
<path d="M241.828 249.655H234.103V257.379H241.828V249.655Z" fill="black"/>
<path d="M249.552 249.655H241.828V257.379H249.552V249.655Z" fill="black"/>
<path d="M257.276 249.655H249.552V257.379H257.276V249.655Z" fill="black"/>
<path d="M265 249.655H257.276V257.379H265V249.655Z" fill="black"/>
<path d="M48.7241 257.379H41V265.103H48.7241V257.379Z" fill="black"/>
<path d="M64.1724 257.379H56.4483V265.103H64.1724V257.379Z" fill="black"/>
<path d="M71.8966 257.379H64.1724V265.103H71.8966V257.379Z" fill="black"/>
<path d="M79.6207 257.379H71.8966V265.103H79.6207V257.379Z" fill="black"/>
<path d="M95.069 257.379H87.3448V265.103H95.069V257.379Z" fill="black"/>
<path d="M110.517 257.379H102.793V265.103H110.517V257.379Z" fill="black"/>
<path d="M118.241 257.379H110.517V265.103H118.241V257.379Z" fill="black"/>
<path d="M149.138 257.379H141.414V265.103H149.138V257.379Z" fill="black"/>
<path d="M156.862 257.379H149.138V265.103H156.862V257.379Z" fill="black"/>
<path d="M164.586 257.379H156.862V265.103H164.586V257.379Z" fill="black"/>
<path d="M180.034 257.379H172.31V265.103H180.034V257.379Z" fill="black"/>
<path d="M195.483 257.379H187.759V265.103H195.483V257.379Z" fill="black"/>
<path d="M203.207 257.379H195.483V265.103H203.207V257.379Z" fill="black"/>
<path d="M210.931 257.379H203.207V265.103H210.931V257.379Z" fill="black"/>
<path d="M218.655 257.379H210.931V265.103H218.655V257.379Z" fill="black"/>
<path d="M226.379 257.379H218.655V265.103H226.379V257.379Z" fill="black"/>
<path d="M234.103 257.379H226.379V265.103H234.103V257.379Z" fill="black"/>
<path d="M249.552 257.379H241.828V265.103H249.552V257.379Z" fill="black"/>
<path d="M257.276 257.379H249.552V265.103H257.276V257.379Z" fill="black"/>
<path d="M48.7241 265.103H41V272.828H48.7241V265.103Z" fill="black"/>
<path d="M64.1724 265.103H56.4483V272.828H64.1724V265.103Z" fill="black"/>
<path d="M71.8966 265.103H64.1724V272.828H71.8966V265.103Z" fill="black"/>
<path d="M79.6207 265.103H71.8966V272.828H79.6207V265.103Z" fill="black"/>
<path d="M95.069 265.103H87.3448V272.828H95.069V265.103Z" fill="black"/>
<path d="M133.69 265.103H125.966V272.828H133.69V265.103Z" fill="black"/>
<path d="M149.138 265.103H141.414V272.828H149.138V265.103Z" fill="black"/>
<path d="M172.31 265.103H164.586V272.828H172.31V265.103Z" fill="black"/>
<path d="M187.759 265.103H180.034V272.828H187.759V265.103Z" fill="black"/>
<path d="M195.483 265.103H187.759V272.828H195.483V265.103Z" fill="black"/>
<path d="M203.207 265.103H195.483V272.828H203.207V265.103Z" fill="black"/>
<path d="M210.931 265.103H203.207V272.828H210.931V265.103Z" fill="black"/>
<path d="M218.655 265.103H210.931V272.828H218.655V265.103Z" fill="black"/>
<path d="M234.103 265.103H226.379V272.828H234.103V265.103Z" fill="black"/>
<path d="M257.276 265.103H249.552V272.828H257.276V265.103Z" fill="black"/>
<path d="M48.7241 272.828H41V280.552H48.7241V272.828Z" fill="black"/>
<path d="M64.1724 272.828H56.4483V280.552H64.1724V272.828Z" fill="black"/>
<path d="M71.8966 272.828H64.1724V280.552H71.8966V272.828Z" fill="black"/>
<path d="M79.6207 272.828H71.8966V280.552H79.6207V272.828Z" fill="black"/>
<path d="M95.069 272.828H87.3448V280.552H95.069V272.828Z" fill="black"/>
<path d="M110.517 272.828H102.793V280.552H110.517V272.828Z" fill="black"/>
<path d="M118.241 272.828H110.517V280.552H118.241V272.828Z" fill="black"/>
<path d="M125.966 272.828H118.241V280.552H125.966V272.828Z" fill="black"/>
<path d="M149.138 272.828H141.414V280.552H149.138V272.828Z" fill="black"/>
<path d="M156.862 272.828H149.138V280.552H156.862V272.828Z" fill="black"/>
<path d="M164.586 272.828H156.862V280.552H164.586V272.828Z" fill="black"/>
<path d="M180.034 272.828H172.31V280.552H180.034V272.828Z" fill="black"/>
<path d="M195.483 272.828H187.759V280.552H195.483V272.828Z" fill="black"/>
<path d="M203.207 272.828H195.483V280.552H203.207V272.828Z" fill="black"/>
<path d="M249.552 272.828H241.828V280.552H249.552V272.828Z" fill="black"/>
<path d="M257.276 272.828H249.552V280.552H257.276V272.828Z" fill="black"/>
<path d="M48.7241 280.552H41V288.276H48.7241V280.552Z" fill="black"/>
<path d="M95.069 280.552H87.3448V288.276H95.069V280.552Z" fill="black"/>
<path d="M110.517 280.552H102.793V288.276H110.517V280.552Z" fill="black"/>
<path d="M118.241 280.552H110.517V288.276H118.241V280.552Z" fill="black"/>
<path d="M149.138 280.552H141.414V288.276H149.138V280.552Z" fill="black"/>
<path d="M180.034 280.552H172.31V288.276H180.034V280.552Z" fill="black"/>
<path d="M203.207 280.552H195.483V288.276H203.207V280.552Z" fill="black"/>
<path d="M226.379 280.552H218.655V288.276H226.379V280.552Z" fill="black"/>
<path d="M249.552 280.552H241.828V288.276H249.552V280.552Z" fill="black"/>
<path d="M48.7241 288.276H41V296H48.7241V288.276Z" fill="black"/>
<path d="M56.4483 288.276H48.7241V296H56.4483V288.276Z" fill="black"/>
<path d="M64.1724 288.276H56.4483V296H64.1724V288.276Z" fill="black"/>
<path d="M71.8966 288.276H64.1724V296H71.8966V288.276Z" fill="black"/>
<path d="M79.6207 288.276H71.8966V296H79.6207V288.276Z" fill="black"/>
<path d="M87.3448 288.276H79.6207V296H87.3448V288.276Z" fill="black"/>
<path d="M95.069 288.276H87.3448V296H95.069V288.276Z" fill="black"/>
<path d="M110.517 288.276H102.793V296H110.517V288.276Z" fill="black"/>
<path d="M133.69 288.276H125.966V296H133.69V288.276Z" fill="black"/>
<path d="M141.414 288.276H133.69V296H141.414V288.276Z" fill="black"/>
<path d="M149.138 288.276H141.414V296H149.138V288.276Z" fill="black"/>
<path d="M156.862 288.276H149.138V296H156.862V288.276Z" fill="black"/>
<path d="M164.586 288.276H156.862V296H164.586V288.276Z" fill="black"/>
<path d="M187.759 288.276H180.034V296H187.759V288.276Z" fill="black"/>
<path d="M226.379 288.276H218.655V296H226.379V288.276Z" fill="black"/>
<path d="M234.103 288.276H226.379V296H234.103V288.276Z" fill="black"/>
<path d="M241.828 288.276H234.103V296H241.828V288.276Z" fill="black"/>
<path d="M249.552 288.276H241.828V296H249.552V288.276Z" fill="black"/>
<path d="M257.276 288.276H249.552V296H257.276V288.276Z" fill="black"/>
<path d="M15.1406 357.394V360H5.11328V357.394H15.1406ZM5.66113 335.828V360H2.60645V335.828H5.66113ZM17.7637 351.882V350.172C17.7637 348.777 17.9408 347.554 18.2949 346.503C18.6491 345.44 19.1416 344.555 19.7725 343.847C20.4033 343.138 21.1393 342.607 21.9805 342.253C22.8216 341.888 23.7236 341.705 24.6865 341.705C25.6715 341.705 26.5846 341.888 27.4258 342.253C28.2669 342.607 29.0029 343.138 29.6338 343.847C30.2757 344.555 30.7738 345.44 31.1279 346.503C31.4821 347.554 31.6592 348.777 31.6592 350.172V351.882C31.6592 353.276 31.4821 354.505 31.1279 355.567C30.7738 356.619 30.2812 357.499 29.6504 358.207C29.0195 358.915 28.2835 359.447 27.4424 359.801C26.6012 360.155 25.6937 360.332 24.7197 360.332C23.7458 360.332 22.8382 360.155 21.9971 359.801C21.1559 359.447 20.4144 358.915 19.7725 358.207C19.1416 357.499 18.6491 356.619 18.2949 355.567C17.9408 354.505 17.7637 353.276 17.7637 351.882ZM20.7021 350.172V351.882C20.7021 352.867 20.8018 353.73 21.001 354.472C21.2002 355.213 21.4824 355.833 21.8477 356.331C22.2129 356.829 22.639 357.205 23.126 357.46C23.613 357.703 24.1442 357.825 24.7197 357.825C25.3838 357.825 25.9648 357.703 26.4629 357.46C26.972 357.205 27.3926 356.829 27.7246 356.331C28.0566 355.833 28.3057 355.213 28.4717 354.472C28.6377 353.73 28.7207 352.867 28.7207 351.882V350.172C28.7207 349.187 28.6211 348.329 28.4219 347.599C28.2227 346.857 27.9404 346.237 27.5752 345.739C27.21 345.23 26.7783 344.854 26.2803 344.61C25.7933 344.356 25.262 344.229 24.6865 344.229C24.1221 344.229 23.5964 344.356 23.1094 344.61C22.6224 344.854 22.1963 345.23 21.8311 345.739C21.4769 346.237 21.2002 346.857 21.001 347.599C20.8018 348.329 20.7021 349.187 20.7021 350.172ZM34.8301 351.882V350.172C34.8301 348.777 35.0072 347.554 35.3613 346.503C35.7155 345.44 36.208 344.555 36.8389 343.847C37.4697 343.138 38.2057 342.607 39.0469 342.253C39.888 341.888 40.79 341.705 41.7529 341.705C42.738 341.705 43.651 341.888 44.4922 342.253C45.3333 342.607 46.0693 343.138 46.7002 343.847C47.3421 344.555 47.8402 345.44 48.1943 346.503C48.5485 347.554 48.7256 348.777 48.7256 350.172V351.882C48.7256 353.276 48.5485 354.505 48.1943 355.567C47.8402 356.619 47.3477 357.499 46.7168 358.207C46.0859 358.915 45.3499 359.447 44.5088 359.801C43.6676 360.155 42.7601 360.332 41.7861 360.332C40.8122 360.332 39.9046 360.155 39.0635 359.801C38.2223 359.447 37.4808 358.915 36.8389 358.207C36.208 357.499 35.7155 356.619 35.3613 355.567C35.0072 354.505 34.8301 353.276 34.8301 351.882ZM37.7686 350.172V351.882C37.7686 352.867 37.8682 353.73 38.0674 354.472C38.2666 355.213 38.5488 355.833 38.9141 356.331C39.2793 356.829 39.7054 357.205 40.1924 357.46C40.6794 357.703 41.2106 357.825 41.7861 357.825C42.4502 357.825 43.0312 357.703 43.5293 357.46C44.0384 357.205 44.459 356.829 44.791 356.331C45.123 355.833 45.3721 355.213 45.5381 354.472C45.7041 353.73 45.7871 352.867 45.7871 351.882V350.172C45.7871 349.187 45.6875 348.329 45.4883 347.599C45.2891 346.857 45.0068 346.237 44.6416 345.739C44.2764 345.23 43.8447 344.854 43.3467 344.61C42.8597 344.356 42.3285 344.229 41.7529 344.229C41.1885 344.229 40.6628 344.356 40.1758 344.61C39.6888 344.854 39.2627 345.23 38.8975 345.739C38.5433 346.237 38.2666 346.857 38.0674 347.599C37.8682 348.329 37.7686 349.187 37.7686 350.172ZM55.4658 334.5V360H52.5273V334.5H55.4658ZM64.5801 342.037L58.1885 350.421L54.2373 354.97L54.0381 351.699L56.7607 347.947L61.0439 342.037H64.5801ZM61.8906 360L56.8438 351.434L58.3545 348.694L65.3105 360H61.8906ZM78.8076 342.037V360H75.8857V342.037H78.8076ZM75.7197 337.272C75.7197 336.774 75.8581 336.354 76.1348 336.011C76.4115 335.668 76.8265 335.496 77.3799 335.496C77.9333 335.496 78.3483 335.668 78.625 336.011C78.9128 336.354 79.0566 336.774 79.0566 337.272C79.0566 337.748 78.9128 338.158 78.625 338.501C78.3483 338.833 77.9333 338.999 77.3799 338.999C76.8265 338.999 76.4115 338.833 76.1348 338.501C75.8581 338.158 75.7197 337.748 75.7197 337.272ZM90.0137 342.037V344.395H81.6299V342.037H90.0137ZM84.3691 337.671H87.3076V355.551C87.3076 356.16 87.3796 356.619 87.5234 356.929C87.6784 357.239 87.8721 357.443 88.1045 357.543C88.3369 357.643 88.5859 357.692 88.8516 357.692C89.0508 357.692 89.2721 357.67 89.5156 357.626C89.7591 357.571 89.9251 357.526 90.0137 357.493L89.9971 360C89.7979 360.077 89.5322 360.149 89.2002 360.216C88.8682 360.293 88.4476 360.332 87.9385 360.332C87.3076 360.332 86.721 360.183 86.1787 359.884C85.6364 359.585 85.1992 359.087 84.8672 358.39C84.5352 357.681 84.3691 356.729 84.3691 355.534V337.671ZM100.705 351.882V350.172C100.705 348.777 100.882 347.554 101.236 346.503C101.59 345.44 102.083 344.555 102.714 343.847C103.345 343.138 104.081 342.607 104.922 342.253C105.763 341.888 106.665 341.705 107.628 341.705C108.613 341.705 109.526 341.888 110.367 342.253C111.208 342.607 111.944 343.138 112.575 343.847C113.217 344.555 113.715 345.44 114.069 346.503C114.424 347.554 114.601 348.777 114.601 350.172V351.882C114.601 353.276 114.424 354.505 114.069 355.567C113.715 356.619 113.223 357.499 112.592 358.207C111.961 358.915 111.225 359.447 110.384 359.801C109.543 360.155 108.635 360.332 107.661 360.332C106.687 360.332 105.78 360.155 104.938 359.801C104.097 359.447 103.356 358.915 102.714 358.207C102.083 357.499 101.59 356.619 101.236 355.567C100.882 354.505 100.705 353.276 100.705 351.882ZM103.644 350.172V351.882C103.644 352.867 103.743 353.73 103.942 354.472C104.142 355.213 104.424 355.833 104.789 356.331C105.154 356.829 105.58 357.205 106.067 357.46C106.554 357.703 107.086 357.825 107.661 357.825C108.325 357.825 108.906 357.703 109.404 357.46C109.913 357.205 110.334 356.829 110.666 356.331C110.998 355.833 111.247 355.213 111.413 354.472C111.579 353.73 111.662 352.867 111.662 351.882V350.172C111.662 349.187 111.562 348.329 111.363 347.599C111.164 346.857 110.882 346.237 110.517 345.739C110.151 345.23 109.72 344.854 109.222 344.61C108.735 344.356 108.203 344.229 107.628 344.229C107.063 344.229 106.538 344.356 106.051 344.61C105.564 344.854 105.138 345.23 104.772 345.739C104.418 346.237 104.142 346.857 103.942 347.599C103.743 348.329 103.644 349.187 103.644 350.172ZM121.324 345.872V360H118.386V342.037H121.158L121.324 345.872ZM120.61 350.338L119.415 350.288C119.404 349.06 119.542 347.925 119.83 346.885C120.129 345.833 120.549 344.92 121.092 344.146C121.645 343.371 122.304 342.773 123.067 342.353C123.831 341.921 124.678 341.705 125.607 341.705C126.338 341.705 127.002 341.827 127.6 342.07C128.197 342.303 128.706 342.679 129.127 343.199C129.548 343.719 129.868 344.395 130.09 345.225C130.322 346.044 130.438 347.045 130.438 348.229V360H127.5V348.196C127.5 347.256 127.395 346.503 127.185 345.938C126.985 345.363 126.675 344.948 126.255 344.693C125.845 344.428 125.325 344.295 124.694 344.295C124.119 344.295 123.582 344.455 123.084 344.776C122.586 345.097 122.149 345.54 121.772 346.104C121.407 346.669 121.119 347.316 120.909 348.047C120.71 348.766 120.61 349.53 120.61 350.338ZM146.824 358.141L150.825 342.037H153.946L148.02 362.772C147.876 363.215 147.682 363.691 147.438 364.2C147.206 364.72 146.907 365.213 146.542 365.678C146.177 366.143 145.74 366.519 145.23 366.807C144.721 367.105 144.124 367.255 143.438 367.255C143.227 367.255 142.956 367.222 142.624 367.155C142.303 367.089 142.071 367.034 141.927 366.989V364.499C141.993 364.51 142.098 364.521 142.242 364.532C142.386 364.554 142.491 364.565 142.558 364.565C143.133 364.565 143.62 364.471 144.019 364.283C144.428 364.106 144.777 363.802 145.064 363.37C145.352 362.95 145.596 362.368 145.795 361.627L146.824 358.141ZM144.234 342.037L147.804 355.982L148.567 359.22L146.476 360.349L141.03 342.037H144.234ZM155.955 351.882V350.172C155.955 348.777 156.132 347.554 156.486 346.503C156.84 345.44 157.333 344.555 157.964 343.847C158.595 343.138 159.331 342.607 160.172 342.253C161.013 341.888 161.915 341.705 162.878 341.705C163.863 341.705 164.776 341.888 165.617 342.253C166.458 342.607 167.194 343.138 167.825 343.847C168.467 344.555 168.965 345.44 169.319 346.503C169.674 347.554 169.851 348.777 169.851 350.172V351.882C169.851 353.276 169.674 354.505 169.319 355.567C168.965 356.619 168.473 357.499 167.842 358.207C167.211 358.915 166.475 359.447 165.634 359.801C164.793 360.155 163.885 360.332 162.911 360.332C161.937 360.332 161.03 360.155 160.188 359.801C159.347 359.447 158.606 358.915 157.964 358.207C157.333 357.499 156.84 356.619 156.486 355.567C156.132 354.505 155.955 353.276 155.955 351.882ZM158.894 350.172V351.882C158.894 352.867 158.993 353.73 159.192 354.472C159.392 355.213 159.674 355.833 160.039 356.331C160.404 356.829 160.83 357.205 161.317 357.46C161.804 357.703 162.336 357.825 162.911 357.825C163.575 357.825 164.156 357.703 164.654 357.46C165.163 357.205 165.584 356.829 165.916 356.331C166.248 355.833 166.497 355.213 166.663 354.472C166.829 353.73 166.912 352.867 166.912 351.882V350.172C166.912 349.187 166.812 348.329 166.613 347.599C166.414 346.857 166.132 346.237 165.767 345.739C165.401 345.23 164.97 344.854 164.472 344.61C163.985 344.356 163.453 344.229 162.878 344.229C162.313 344.229 161.788 344.356 161.301 344.61C160.814 344.854 160.388 345.23 160.022 345.739C159.668 346.237 159.392 346.857 159.192 347.599C158.993 348.329 158.894 349.187 158.894 350.172ZM182.717 355.85V342.037H185.655V360H182.866L182.717 355.85ZM183.265 352.064L184.427 352.031C184.427 353.227 184.322 354.333 184.111 355.352C183.912 356.359 183.58 357.233 183.115 357.975C182.661 358.716 182.058 359.297 181.306 359.718C180.553 360.127 179.629 360.332 178.533 360.332C177.792 360.332 177.117 360.205 176.508 359.95C175.91 359.696 175.39 359.303 174.947 358.771C174.516 358.24 174.178 357.549 173.935 356.696C173.702 355.844 173.586 354.82 173.586 353.625V342.037H176.508V353.658C176.508 354.466 176.58 355.136 176.724 355.667C176.868 356.187 177.061 356.602 177.305 356.912C177.548 357.211 177.819 357.421 178.118 357.543C178.417 357.665 178.721 357.726 179.031 357.726C180.072 357.726 180.902 357.477 181.521 356.979C182.141 356.469 182.584 355.789 182.85 354.937C183.126 354.073 183.265 353.116 183.265 352.064ZM193.01 344.859V360H190.071V342.037H192.91L193.01 344.859ZM197.476 341.938L197.492 344.793C197.249 344.738 197.027 344.704 196.828 344.693C196.64 344.671 196.419 344.66 196.164 344.66C195.611 344.66 195.124 344.771 194.703 344.992C194.294 345.214 193.939 345.523 193.641 345.922C193.342 346.32 193.104 346.796 192.927 347.35C192.75 347.892 192.628 348.49 192.562 349.143L191.798 349.641C191.798 348.556 191.881 347.538 192.047 346.586C192.224 345.634 192.495 344.793 192.86 344.062C193.226 343.321 193.69 342.745 194.255 342.336C194.83 341.915 195.517 341.705 196.313 341.705C196.491 341.705 196.706 341.733 196.961 341.788C197.227 341.832 197.398 341.882 197.476 341.938ZM211.172 345.606V360H208.25V342.037H211.006L211.172 345.606ZM210.574 350.338L209.213 350.288C209.202 349.06 209.324 347.925 209.578 346.885C209.833 345.833 210.215 344.92 210.724 344.146C211.244 343.371 211.891 342.773 212.666 342.353C213.452 341.921 214.365 341.705 215.405 341.705C216.091 341.705 216.728 341.827 217.314 342.07C217.912 342.303 218.432 342.674 218.875 343.183C219.318 343.692 219.661 344.345 219.904 345.142C220.159 345.938 220.286 346.901 220.286 348.03V360H217.348V348.18C217.348 347.239 217.22 346.486 216.966 345.922C216.722 345.357 216.374 344.948 215.92 344.693C215.466 344.428 214.924 344.295 214.293 344.295C213.574 344.295 212.97 344.455 212.483 344.776C212.007 345.097 211.626 345.54 211.338 346.104C211.061 346.669 210.862 347.316 210.74 348.047C210.63 348.766 210.574 349.53 210.574 350.338ZM220.253 348.645L218.294 349.275C218.283 348.29 218.405 347.344 218.659 346.437C218.914 345.529 219.29 344.721 219.788 344.013C220.297 343.304 220.928 342.745 221.681 342.336C222.433 341.915 223.308 341.705 224.304 341.705C225.123 341.705 225.848 341.832 226.479 342.087C227.109 342.341 227.641 342.734 228.072 343.266C228.515 343.786 228.847 344.455 229.068 345.274C229.29 346.093 229.4 347.067 229.4 348.196V360H226.462V348.163C226.462 347.156 226.335 346.376 226.08 345.822C225.837 345.258 225.488 344.865 225.034 344.644C224.58 344.411 224.038 344.295 223.407 344.295C222.898 344.295 222.444 344.411 222.046 344.644C221.659 344.876 221.332 345.197 221.066 345.606C220.801 346.005 220.596 346.464 220.452 346.984C220.319 347.505 220.253 348.058 220.253 348.645ZM233.219 351.882V350.172C233.219 348.777 233.396 347.554 233.75 346.503C234.104 345.44 234.597 344.555 235.228 343.847C235.858 343.138 236.594 342.607 237.436 342.253C238.277 341.888 239.179 341.705 240.142 341.705C241.127 341.705 242.04 341.888 242.881 342.253C243.722 342.607 244.458 343.138 245.089 343.847C245.731 344.555 246.229 345.44 246.583 346.503C246.937 347.554 247.114 348.777 247.114 350.172V351.882C247.114 353.276 246.937 354.505 246.583 355.567C246.229 356.619 245.736 357.499 245.105 358.207C244.475 358.915 243.739 359.447 242.897 359.801C242.056 360.155 241.149 360.332 240.175 360.332C239.201 360.332 238.293 360.155 237.452 359.801C236.611 359.447 235.869 358.915 235.228 358.207C234.597 357.499 234.104 356.619 233.75 355.567C233.396 354.505 233.219 353.276 233.219 351.882ZM236.157 350.172V351.882C236.157 352.867 236.257 353.73 236.456 354.472C236.655 355.213 236.938 355.833 237.303 356.331C237.668 356.829 238.094 357.205 238.581 357.46C239.068 357.703 239.599 357.825 240.175 357.825C240.839 357.825 241.42 357.703 241.918 357.46C242.427 357.205 242.848 356.829 243.18 356.331C243.512 355.833 243.761 355.213 243.927 354.472C244.093 353.73 244.176 352.867 244.176 351.882V350.172C244.176 349.187 244.076 348.329 243.877 347.599C243.678 346.857 243.396 346.237 243.03 345.739C242.665 345.23 242.233 344.854 241.735 344.61C241.248 344.356 240.717 344.229 240.142 344.229C239.577 344.229 239.051 344.356 238.564 344.61C238.077 344.854 237.651 345.23 237.286 345.739C236.932 346.237 236.655 346.857 236.456 347.599C236.257 348.329 236.157 349.187 236.157 350.172ZM250.899 334.5H253.838V356.514L253.589 360H250.899V334.5ZM263.915 350.205V351.882C263.915 353.299 263.782 354.538 263.517 355.601C263.262 356.652 262.88 357.532 262.371 358.24C261.862 358.938 261.242 359.463 260.512 359.817C259.781 360.16 258.946 360.332 258.005 360.332C257.075 360.332 256.273 360.144 255.598 359.768C254.923 359.391 254.358 358.849 253.904 358.141C253.451 357.432 253.091 356.575 252.825 355.567C252.571 354.56 252.394 353.426 252.294 352.164V349.923C252.394 348.65 252.571 347.51 252.825 346.503C253.08 345.485 253.434 344.621 253.888 343.913C254.341 343.194 254.906 342.646 255.581 342.27C256.256 341.893 257.059 341.705 257.988 341.705C258.94 341.705 259.781 341.871 260.512 342.203C261.253 342.535 261.873 343.05 262.371 343.747C262.88 344.433 263.262 345.313 263.517 346.387C263.782 347.449 263.915 348.722 263.915 350.205ZM260.977 351.882V350.205C260.977 349.209 260.91 348.34 260.777 347.599C260.656 346.857 260.451 346.243 260.163 345.756C259.875 345.269 259.488 344.904 259.001 344.66C258.525 344.417 257.933 344.295 257.225 344.295C256.627 344.295 256.101 344.417 255.647 344.66C255.205 344.904 254.823 345.236 254.502 345.656C254.181 346.066 253.915 346.536 253.705 347.067C253.495 347.588 253.34 348.13 253.24 348.694V353.409C253.384 354.129 253.611 354.82 253.921 355.484C254.242 356.137 254.674 356.674 255.216 357.095C255.758 357.515 256.433 357.726 257.241 357.726C257.916 357.726 258.486 357.609 258.951 357.377C259.427 357.145 259.814 356.79 260.113 356.314C260.412 355.827 260.628 355.219 260.761 354.488C260.905 353.747 260.977 352.878 260.977 351.882ZM270.821 342.037V360H267.899V342.037H270.821ZM267.733 337.272C267.733 336.774 267.872 336.354 268.148 336.011C268.425 335.668 268.84 335.496 269.394 335.496C269.947 335.496 270.362 335.668 270.639 336.011C270.926 336.354 271.07 336.774 271.07 337.272C271.07 337.748 270.926 338.158 270.639 338.501C270.362 338.833 269.947 338.999 269.394 338.999C268.84 338.999 268.425 338.833 268.148 338.501C267.872 338.158 267.733 337.748 267.733 337.272ZM278.624 334.5V360H275.702V334.5H278.624ZM289.697 360.332C288.624 360.332 287.655 360.172 286.792 359.851C285.929 359.53 285.193 359.043 284.584 358.39C283.975 357.726 283.51 356.89 283.189 355.883C282.868 354.876 282.708 353.686 282.708 352.313V350.288C282.708 348.705 282.891 347.366 283.256 346.271C283.632 345.175 284.136 344.295 284.767 343.631C285.397 342.956 286.111 342.469 286.908 342.17C287.705 341.86 288.524 341.705 289.365 341.705C290.494 341.705 291.457 341.888 292.254 342.253C293.051 342.618 293.698 343.16 294.196 343.88C294.694 344.599 295.06 345.485 295.292 346.536C295.535 347.588 295.657 348.799 295.657 350.172V351.882H284.435V349.375H292.719V348.96C292.674 348.03 292.547 347.211 292.337 346.503C292.138 345.795 291.806 345.241 291.341 344.843C290.876 344.433 290.217 344.229 289.365 344.229C288.823 344.229 288.319 344.323 287.854 344.511C287.401 344.688 287.008 345.003 286.676 345.457C286.355 345.9 286.1 346.514 285.912 347.3C285.735 348.086 285.646 349.082 285.646 350.288V352.313C285.646 353.276 285.735 354.106 285.912 354.804C286.1 355.49 286.371 356.06 286.726 356.514C287.091 356.956 287.534 357.288 288.054 357.51C288.585 357.72 289.188 357.825 289.863 357.825C290.848 357.825 291.662 357.637 292.304 357.261C292.946 356.873 293.505 356.381 293.98 355.783L295.524 357.626C295.203 358.08 294.783 358.517 294.263 358.938C293.754 359.347 293.123 359.685 292.37 359.95C291.629 360.205 290.738 360.332 289.697 360.332ZM302.746 335.828L302.53 353.177H299.891L299.658 335.828H302.746ZM299.608 358.456C299.608 357.958 299.747 357.537 300.023 357.194C300.311 356.851 300.726 356.68 301.269 356.68C301.822 356.68 302.237 356.851 302.514 357.194C302.801 357.537 302.945 357.958 302.945 358.456C302.945 358.932 302.801 359.341 302.514 359.685C302.237 360.028 301.822 360.199 301.269 360.199C300.726 360.199 300.311 360.028 300.023 359.685C299.747 359.341 299.608 358.932 299.608 358.456Z" fill="#121931"/>
</svg>
