<svg width="40" height="58" viewBox="0 0 40 58" fill="none" xmlns="http://www.w3.org/2000/svg">
<g clip-path="url(#clip0_14_64)">
<rect width="39.7642" height="58" transform="matrix(-1 0 0 1 39.8821 0)" fill="white" fill-opacity="0.01"/>
<path fill-rule="evenodd" clip-rule="evenodd" d="M10.4058 4.59534C10.5282 4.64983 10.5294 4.65562 10.5163 5.16218C10.5013 5.74104 10.5612 6.82979 10.6317 7.25833C10.7128 7.75176 10.9672 8.49095 11.1766 8.8415C11.2728 9.00256 11.3642 9.12945 11.3798 9.12342C11.3953 9.11741 11.5015 8.90912 11.6158 8.66064C11.8408 8.17155 11.8957 7.85556 11.8548 7.28667C11.8226 6.84043 11.6615 6.07905 11.48 5.51622C11.3061 4.97674 11.2936 4.83177 11.4108 4.71111C11.5408 4.57712 12.0608 4.39477 12.4415 4.34963C12.9332 4.2913 13.3806 4.31663 14.2758 4.45354C15.2242 4.59852 15.7906 4.61156 16.7237 4.50984C17.1118 4.46749 17.4743 4.45027 17.5292 4.47153C17.7811 4.56889 17.6904 4.84608 17.1842 5.52645C16.7507 6.109 16.4192 6.6272 16.2901 6.92381C15.9141 7.78762 15.6251 9.42731 15.7585 9.93901C15.872 10.3743 16.1936 10.4001 16.5716 10.0041C16.9889 9.56709 17.6377 8.1605 17.9694 6.97392C18.194 6.17006 18.3071 5.96898 18.556 5.93075C19.3353 5.811 21.6325 7.48064 23.1071 9.23856C23.5165 9.72659 24.2949 10.9028 24.4174 11.2183C24.5601 11.5862 24.3415 11.6677 23.3786 11.6055C22.5082 11.5493 21.3413 11.5286 20.7924 11.5595C20.0739 11.5999 19.7195 11.6696 19.1795 11.8764C18.632 12.0861 18.4031 12.2533 18.1736 12.6114C17.9349 12.9837 17.9846 13.5983 18.2742 13.8555C18.8396 14.3578 19.9946 14.0928 21.6667 13.0771C22.2929 12.6969 22.4709 12.6086 23.1425 12.3454C23.8612 12.0639 23.9214 12.047 24.1621 12.0608C24.4978 12.0799 24.9963 12.3236 25.2235 12.5797C25.6846 13.0993 25.8568 13.5687 26.3339 15.6065C27.0354 18.6034 27.2963 19.4213 27.8853 20.4704C28.0446 20.7541 28.1752 21.0213 28.1755 21.0643C28.1762 21.1925 27.9434 21.2488 27.1158 21.3205C26.3776 21.3845 25.889 21.4786 24.8669 21.7537C24.63 21.8174 23.5464 22.1963 22.4588 22.5956C20.3313 23.3768 20.0304 23.4622 18.9245 23.5992C18.4451 23.6586 18.2961 23.6353 18.2417 23.4928C18.1633 23.2875 18.0388 22.1966 17.9864 21.2555C17.8865 19.4649 17.7064 18.4375 17.3159 17.431C17.0261 16.6841 16.6338 16.0969 16.3645 16.0066C16.2475 15.9674 16.0199 16.0631 15.897 16.2031C15.4713 16.6878 15.5153 18.0796 16.0017 19.5198C16.2087 20.1325 16.7453 21.334 17.2324 22.2753C17.6567 23.0951 17.7354 23.2951 17.6541 23.3466C17.6194 23.3686 17.4169 23.3468 17.2039 23.2981C16.991 23.2495 16.6085 23.1893 16.354 23.1644C15.6778 23.0983 15.1607 23.0037 14.8234 22.8844C14.436 22.7474 13.7417 22.3573 13.3237 22.0419C12.9992 21.797 12.9924 21.7945 13.0137 21.9257C13.0256 21.9995 13.118 22.2794 13.2191 22.5479C13.3634 22.931 13.3944 23.0554 13.3633 23.1266C13.3415 23.1764 13.3126 23.2215 13.2989 23.2268C13.2852 23.2321 12.8488 23.0382 12.3291 22.7959C11.36 22.344 10.3505 21.9383 9.0394 21.4737C8.06238 21.1275 7.32331 20.795 6.93602 20.5274C6.73804 20.3906 6.61065 20.3295 6.59061 20.3617C5.92205 21.4349 5.51774 22.4542 5.03764 24.277C4.63579 25.8027 3.93992 27.9544 3.53644 28.9187C3.32261 29.4297 3.17264 29.8378 3.2031 29.8254C3.23359 29.8131 3.37797 29.7354 3.52392 29.6529C4.74224 28.9638 6.11295 28.5347 7.69063 28.3484C9.87877 28.09 12.4247 28.0705 14.6825 28.2949L15.6471 28.3908L16.2344 28.1882C16.5573 28.0767 16.9728 27.9617 17.1577 27.9324C17.5889 27.8642 18.4832 27.826 18.9691 27.855L19.348 27.8775L19.0864 27.755C17.9396 27.2175 16.8207 27.0569 14.5329 27.1014C14.1199 27.1094 13.7463 27.1001 13.7027 27.0807C13.5532 27.0141 13.6205 26.8908 13.9942 26.5459C15.0819 25.5423 16.0882 25.0857 17.8554 24.7941C19.6716 24.4943 21.4438 24.8647 22.5436 25.774C22.7983 25.9845 23.1497 26.4588 23.2557 26.7352C23.4253 27.1771 23.4581 27.924 23.3242 28.294C23.1751 28.7064 22.9468 28.9258 22.4741 29.1114C21.6173 29.4478 20.449 29.3919 17.1356 28.8561C16.0641 28.6828 15.6541 28.6359 15.5532 28.6748C14.9648 28.9018 13.8431 29.9133 13.4319 30.5877C12.9534 31.3726 12.3272 33.3577 12.2485 34.3393C12.1873 35.1019 12.311 36.0967 12.5664 36.8955L12.7054 37.33L12.8686 37.3351C12.9735 37.3384 13.1798 37.2829 13.4453 37.1798C13.8348 37.0287 13.8732 37.0038 14.1106 36.7495C14.2491 36.601 14.5943 36.1668 14.8776 35.7846C15.4773 34.9758 16.0428 34.358 16.8317 33.65C17.9156 32.6771 18.489 32.3704 19.2104 32.3777C19.7824 32.3835 20.3576 32.5987 20.7028 32.9361C21.2096 33.4315 21.1245 34.3355 20.5176 34.904C20.0687 35.3245 19.7664 35.4587 18.2552 35.909C16.5446 36.4187 15.2167 37.2731 14.4828 38.3363C14.2505 38.6729 13.7187 39.8781 13.4131 40.7606C13.2117 41.3424 12.9122 42.5333 12.9618 42.5553C12.9732 42.5604 13.2418 42.2493 13.5588 41.864C14.422 40.8146 14.715 40.504 15.2886 40.0307C16.6368 38.9181 17.9997 38.2134 19.0242 38.0993C20.0805 37.9815 21.0425 38.4141 21.3285 39.1356C21.4488 39.4389 21.4424 39.6027 21.2983 39.9112C21.1811 40.1622 21.0073 40.364 20.729 40.5722C20.2446 40.9348 19.6779 41.1274 17.726 41.5931C16.0721 41.9877 15.3163 42.2895 14.4316 42.9087C13.96 43.2387 13.9741 43.2119 14.0676 43.6042C14.2855 44.5189 14.4988 45.0057 15.0615 45.8723C15.4581 46.483 15.6694 46.725 16.4553 47.4683C17.2756 48.2442 17.5609 48.5548 17.9085 49.0507C18.2917 49.5973 18.5726 50.1082 18.9832 51.0046C19.2965 51.6889 19.3725 51.8929 19.5367 52.4914C19.8044 53.4677 19.7657 53.4003 19.9882 53.2763C20.0903 53.2193 20.3236 53.0619 20.5064 52.9265C21.1146 52.476 21.9608 51.914 22.4885 51.6102C23.1615 51.2227 23.8308 50.7505 24.3766 50.2782C24.6159 50.0712 25.0902 49.693 25.4307 49.4377C26.7851 48.4219 27.3627 47.7977 27.7941 46.8834L27.9737 46.5027L27.7959 46.3001C27.6981 46.1887 27.3618 45.84 27.0486 45.5253C26.0052 44.4769 25.583 43.9678 25.0315 43.0933C24.6569 42.4991 24.2733 41.5386 24.2512 41.1392C24.2027 40.2621 24.7432 39.659 25.5168 39.727C25.8687 39.7579 26.3701 39.9601 26.6651 40.19C27.1763 40.5884 27.7767 41.4507 28.0714 42.2096C28.4849 43.2747 28.5955 45.1249 28.3063 46.1406L28.2224 46.4354L28.5382 46.8885C28.7863 47.2445 28.8713 47.3385 28.9349 47.327C29.096 47.2979 29.332 47.0195 29.8812 46.2101C30.189 45.7565 30.6457 45.0971 30.8961 44.7448C31.3909 44.0488 31.9835 43.0036 32.3059 42.2587C32.7501 41.232 32.8044 40.2711 32.4673 39.4023C32.2921 38.9508 32.0797 38.6328 31.763 38.3476C31.4408 38.0575 31.1792 37.9378 30.3779 37.7139C28.6335 37.2265 27.8808 36.9024 26.8628 36.2005C26.645 36.0503 26.6139 36.0137 26.6391 35.9373C26.679 35.8167 26.77 35.8058 27.6895 35.8114C28.9401 35.819 30.0376 35.9479 31.2944 36.235C31.9335 36.381 32.7924 36.729 33.9799 37.3231C34.5499 37.6082 34.6415 37.604 34.7113 37.2892C34.7859 36.9534 34.6045 34.6507 34.4182 33.5682C34.3565 33.2102 34.2722 32.6933 34.2307 32.4196C34.1295 31.7524 33.9833 31.1544 33.8879 31.0181C33.7794 30.8628 33.2077 30.629 32.5825 30.4842L32.0599 30.3631L31.6214 30.7039C30.9497 31.2258 30.0653 31.839 29.6621 32.0624C28.804 32.5379 27.9135 32.6417 27.5155 32.3125C27.2402 32.0848 27.1894 31.7252 27.3789 31.3451C27.8984 30.3029 29.5562 29.7824 31.4884 30.0547L32.0167 30.1292L32.3052 29.9534C32.4639 29.8568 32.6911 29.739 32.8101 29.6918C32.9291 29.6446 33.0221 29.5947 33.0168 29.5809C33.0114 29.5671 32.8243 29.3973 32.6009 29.2034C31.793 28.5023 30.9114 27.9437 29.9093 27.4976C29.1587 27.1635 28.6959 27.0296 28.1059 26.9757C27.6524 26.9342 27.6235 26.9378 27.1975 27.086C26.4708 27.339 25.8824 27.8023 25.455 28.4582C24.9587 29.2199 24.3484 30.5455 24.173 31.2431C24.0454 31.7507 23.7803 34.2838 23.7088 35.6791C23.6857 36.131 23.6449 36.7395 23.6181 37.0315C23.553 37.7419 23.5296 38.4306 23.5356 39.4534C23.5411 40.3877 23.4993 40.9634 23.373 41.691C23.2629 42.3248 22.938 43.6509 22.7583 44.1993C22.6792 44.4408 22.5612 44.8303 22.4961 45.065C22.1734 46.2276 21.4529 47.4245 20.6872 48.0695C20.5457 48.1888 20.4192 48.3267 20.4062 48.376C20.3787 48.4802 20.2387 48.498 20.2015 48.402C20.1583 48.2908 20.2687 48.1173 20.4883 47.9509C21.2486 47.3749 21.9681 46.1535 22.3694 44.7573C22.4675 44.4164 22.6039 43.9539 22.6727 43.7296C22.8484 43.157 23.1605 41.7391 23.2434 41.1373C23.3129 40.6329 23.3211 40.3985 23.3239 38.8549C23.3247 38.4068 23.3664 37.4961 23.4165 36.8313C23.4666 36.1664 23.5107 35.4811 23.5144 35.3085C23.5225 34.9371 23.8134 31.978 23.8811 31.5795C24.0328 30.686 24.7096 29.1587 25.3942 28.1653C25.8755 27.4668 26.8611 26.8366 27.6047 26.7517C28.2205 26.6815 28.8826 26.831 29.9015 27.2704C31.0226 27.754 31.8904 28.2986 32.7945 29.0859C33.1126 29.363 33.2821 29.5393 33.2859 29.5972C33.2904 29.6663 33.2398 29.712 33.0547 29.806C32.9245 29.8722 32.7106 29.9809 32.5795 30.0475C32.4484 30.1141 32.3465 30.1806 32.3531 30.1952C32.3596 30.2099 32.5488 30.2637 32.7736 30.315C33.6002 30.5034 34.0361 30.7364 34.1594 31.0557C34.2329 31.2459 34.3997 32.0389 34.4674 32.5194C34.492 32.6942 34.5663 33.1611 34.6325 33.5569C34.7643 34.3457 34.8501 35.1944 34.9198 36.3995C34.9832 37.4936 34.8915 37.7702 34.4694 37.7597C34.3498 37.7567 33.1477 37.1868 32.8527 36.9933C32.6919 36.8878 31.8232 36.5849 31.3324 36.4632C30.7093 36.3087 29.9413 36.1792 29.1727 36.0989C28.5109 36.0298 27.0988 35.9993 27.075 36.0535C27.0543 36.101 27.7238 36.5025 28.2334 36.7482C28.7262 36.9858 29.416 37.2223 30.5005 37.5256C31.2873 37.7456 31.6115 37.9035 31.9572 38.2352C32.3296 38.5925 32.4934 38.8618 32.6985 39.4544C32.8586 39.9169 32.8832 40.0379 32.8926 40.4107C32.9032 40.8295 32.8478 41.317 32.7472 41.6885C32.5476 42.4259 31.6923 44.0052 30.8484 45.1945C30.5013 45.6838 30.0897 46.2792 29.9337 46.5177C29.4235 47.2979 29.0513 47.6424 28.8165 47.5516C28.752 47.5267 28.599 47.3508 28.4205 47.0963L28.1297 46.6816L28.0112 46.9422C27.5896 47.8696 26.8657 48.6491 25.4614 49.6876C25.1646 49.9072 24.7213 50.2599 24.4763 50.4713C23.9179 50.9535 23.2522 51.4216 22.5512 51.8252C22.0147 52.134 21.3857 52.5515 20.7366 53.0294C20.2927 53.3562 19.9345 53.5703 19.8049 53.5863C19.6441 53.606 19.5804 53.4748 19.3676 52.6863C18.9919 51.2939 18.1458 49.6085 17.3587 48.6844C17.2087 48.5082 16.7628 48.0584 16.3679 47.6847C15.5379 46.8992 15.2722 46.5948 14.8481 45.9434C14.3458 45.1716 13.8985 44.1027 13.8511 43.5606C13.8434 43.4716 13.814 43.3395 13.7858 43.267L13.7347 43.1352L14.2121 42.8028C14.8709 42.3442 15.1393 42.2004 15.8588 41.9201C16.2905 41.7519 16.734 41.6162 17.3042 41.4778C17.7567 41.368 18.3714 41.2187 18.6702 41.1461C18.969 41.0735 19.493 40.9071 19.8346 40.7763C20.3796 40.5676 20.4838 40.5142 20.6843 40.3409C21.008 40.0609 21.1653 39.8087 21.1867 39.5352C21.2031 39.3258 21.1921 39.2851 21.0624 39.075C20.8026 38.6538 20.2901 38.3749 19.6597 38.3116C19.168 38.2622 18.8578 38.3095 18.2035 38.5337C17.5103 38.7711 17.0017 39.0443 16.1818 39.6194C15.1673 40.3309 14.7243 40.773 13.4084 42.3868C12.8618 43.0571 12.7107 43.1928 12.6591 43.0597C12.6361 43.0006 12.8421 41.9041 12.9551 41.4842C13.2177 40.5076 13.9722 38.6874 14.3165 38.1996C14.8701 37.4153 15.5987 36.8259 16.7056 36.2668C17.0866 36.0745 17.3584 35.9713 18.053 35.7556C19.3188 35.3625 19.9807 35.0917 20.2488 34.857C20.7672 34.4032 20.9408 33.8804 20.7421 33.3715C20.5359 32.8432 19.5713 32.4777 18.7898 32.6317C18.2879 32.7306 17.7063 33.1283 16.7046 34.0578C16.0474 34.6676 15.5908 35.182 15.0053 35.9721C14.2004 37.0584 13.9819 37.2605 13.4105 37.4469C12.9769 37.5883 12.6447 37.5817 12.5373 37.4293C12.4158 37.2571 12.153 36.2559 12.0835 35.7005C12.0148 35.1511 12.0031 34.4319 12.0566 34.0546C12.1583 33.338 12.6499 31.6922 12.963 31.02C13.3657 30.1554 13.9853 29.4454 14.8851 28.8172L15.2407 28.569L14.4499 28.4923C11.5951 28.2155 7.99271 28.3754 6.03387 28.8657C5.20238 29.0739 3.62809 29.7604 3.10952 30.1411C3.05117 30.1839 2.82853 30.6237 2.57366 31.1995C1.89156 32.7407 0.91721 34.2444 0.00560414 35.1628L-0.178255 35.3481L-0.218479 35.2346C-0.254415 35.1331 -0.220082 35.0786 0.104491 34.7212C0.93257 33.8094 1.70331 32.605 2.28866 31.3081C2.5045 30.83 2.66219 30.4396 2.63916 30.4407C2.59585 30.4427 0.702808 31.7745 0.266666 32.1099C0.131115 32.2141 -0.202 32.495 -0.473627 32.7341C-0.745212 32.9732 -0.978439 33.1732 -0.991915 33.1784C-1.00539 33.1836 -1.03362 33.1436 -1.05463 33.0895C-1.08902 33.0008 -1.04421 32.9481 -0.605453 32.5617C0.0575962 31.9778 1.32126 31.0395 2.44998 30.2932L2.82848 30.0429L3.27961 28.9693C3.74653 27.8581 4.41023 25.823 4.85069 24.1518C4.96958 23.7007 5.1391 23.0992 5.22747 22.8151C5.4345 22.1492 5.90837 21.0788 6.22639 20.5587C6.39783 20.2783 6.46108 20.1338 6.42848 20.0971C6.20366 19.844 6.06919 19.6016 5.9475 19.23C5.77841 18.7136 5.76712 18.3918 5.89326 17.6841C6.05072 16.8008 6.12505 16.1924 6.11137 15.8992C6.10441 15.7494 6.08758 15.6313 6.07402 15.6366C6.06046 15.6418 5.98153 15.7398 5.89858 15.8543C5.51099 16.3893 5.37414 17.2557 5.51031 18.3125C5.61465 19.1226 5.59129 19.1982 5.27089 19.0874C4.86836 18.9483 4.34615 18.2035 3.96828 17.2297C3.6109 16.3087 3.51593 15.6759 3.60717 14.8241C3.79232 13.0958 5.39682 11.7381 6.8921 12.0446C8.19719 12.3121 9.10759 13.6565 9.05911 15.2446C9.03382 16.0734 8.89921 16.6853 8.56525 17.4896C8.32354 18.0717 8.01092 18.5457 7.30712 19.397C7.08263 19.6685 6.86651 19.9467 6.82682 20.0153L6.75468 20.14L7.03245 20.3362C7.39396 20.5917 8.16161 20.9357 9.15789 21.2887C10.4402 21.7431 11.5312 22.1783 12.3455 22.5603L13.1041 22.9161L12.934 22.3969C12.8404 22.1114 12.7538 21.8053 12.7414 21.7168C12.7225 21.5808 12.6738 21.5102 12.4288 21.2633C10.7368 19.5577 9.85426 17.6924 10.1737 16.4968C10.2838 16.0846 10.4736 15.8359 10.7732 15.7112C11.0257 15.6063 11.1743 15.6294 11.4902 15.8228C11.8028 16.0142 12.0453 16.3318 12.2733 16.8486C12.5803 17.5441 12.6605 18.0645 12.8058 20.3048C12.8813 21.4686 12.8558 21.3894 13.261 21.7181C13.9229 22.255 14.6878 22.659 15.2929 22.7911C15.4998 22.8362 15.9177 22.8995 16.2216 22.9316C16.5256 22.9639 16.9154 23.0184 17.0879 23.0527C17.2604 23.0872 17.4044 23.1085 17.4081 23.1001C17.4118 23.0918 17.3056 22.8807 17.1721 22.6311C16.7138 21.774 16.3248 20.9254 15.9617 19.9904C15.6298 19.136 15.5898 19.0044 15.5053 18.491C15.2477 16.9263 15.4306 16.0819 16.0827 15.8253C16.3377 15.725 16.5471 15.7967 16.7889 16.0671C17.6086 16.9837 18.0695 18.6909 18.2064 21.3176C18.2594 22.3339 18.3961 23.3846 18.4798 23.4181C18.5489 23.4458 19.4416 23.3176 19.9382 23.2087C20.5363 23.0774 21.0565 22.9032 22.695 22.2851C24.8273 21.4808 25.8711 21.2035 27.1576 21.0997C27.5761 21.0659 27.9184 21.0191 27.9182 20.9957C27.918 20.9724 27.8002 20.7461 27.6563 20.4929C27.079 19.4766 26.7373 18.3674 25.9991 15.1138C25.7664 14.0881 25.5127 13.3413 25.2833 13.0067C25.0641 12.687 24.9414 12.577 24.6339 12.4248C24.1836 12.202 24.1003 12.21 23.2025 12.5614C22.5395 12.8209 22.3318 12.9215 21.8613 13.211C21.0513 13.7096 20.5343 13.9704 20.0515 14.124C18.8959 14.4916 18.1518 14.317 17.8807 13.6147C17.6279 12.9601 17.9634 12.2526 18.7293 11.8249C19.5748 11.3529 20.9626 11.2278 23.4964 11.3952C23.8103 11.416 24.1142 11.4147 24.1718 11.3923C24.2633 11.3568 24.2684 11.3383 24.212 11.245C23.4213 9.93658 22.9997 9.37369 22.2315 8.60082C20.965 7.32653 19.4429 6.24941 18.7821 6.15973C18.5599 6.12959 18.5396 6.1343 18.4549 6.23598C18.4052 6.29559 18.3227 6.50004 18.2715 6.69034C18.0527 7.50306 17.9435 7.82736 17.6862 8.42891C17.3308 9.25993 17.0422 9.79506 16.7885 10.0931C16.6204 10.2906 16.5376 10.3522 16.3291 10.4344C16.1153 10.5188 16.0514 10.5252 15.9281 10.475C15.7195 10.3899 15.5792 10.1822 15.529 9.88378C15.4241 9.26079 15.6799 7.87751 16.0809 6.89938C16.2506 6.48551 16.4861 6.10627 17.0192 5.38857C17.3475 4.94665 17.4966 4.67367 17.4172 4.65963C17.3941 4.65554 17.0979 4.68328 16.7591 4.72134C15.7194 4.83816 15.2428 4.82548 14.1423 4.65178C13.4379 4.54061 12.9523 4.51136 12.5252 4.55447C12.125 4.59487 11.5663 4.78431 11.5478 4.8859C11.541 4.92301 11.5928 5.13914 11.6629 5.36617C12.1491 6.9407 12.2029 7.86881 11.8535 8.65607C11.5782 9.2765 11.5036 9.38724 11.3667 9.379C11.2714 9.37325 11.2183 9.3162 11.031 9.01779C10.5225 8.20796 10.2722 6.95255 10.2967 5.33552C10.3005 5.08382 10.2922 4.87278 10.2783 4.8666C10.2341 4.84691 9.71658 5.22667 9.44402 5.4787C8.16744 6.65934 7.64406 7.67739 7.68978 8.89103C7.72989 9.9566 8.62759 10.919 10.2733 11.6608C11.0357 12.0044 12.309 12.4708 14.1573 13.0834C15.8154 13.633 16.962 14.08 18.0599 14.605C20.7276 15.8805 22.4453 17.2139 23.4532 18.7914C23.7709 19.2886 23.8667 19.5227 23.7604 19.5419C23.7031 19.5522 23.6432 19.4871 23.5224 19.2835C22.4239 17.4315 20.6188 16.0124 17.6141 14.6386C16.4897 14.1245 15.656 13.8066 13.927 13.2325C10.4627 12.0822 9.28296 11.5477 8.41977 10.7372C7.95095 10.297 7.76983 10.0291 7.60604 9.53397C7.24342 8.43774 7.6064 7.14703 8.58212 6.06325C9.20683 5.36938 9.51942 5.09362 10.2145 4.62333C10.2811 4.57828 10.346 4.56875 10.4058 4.59534ZM5.00937 12.7481C4.55337 13.1088 4.31381 13.4252 4.06633 13.9938C3.80904 14.5851 3.74266 15.0407 3.8081 15.7663C3.89269 16.7044 4.36446 17.8628 4.94704 18.5628C5.08897 18.7333 5.33023 18.9169 5.35077 18.8699C5.35722 18.8551 5.33199 18.6018 5.29462 18.307C5.139 17.0783 5.33054 16.1624 5.87647 15.5247C6.0375 15.3366 6.0743 15.312 6.15956 15.3351C6.24964 15.3595 6.26107 15.3832 6.30016 15.6266C6.35483 15.9671 6.30342 16.6238 6.16331 17.3741C5.97544 18.3802 5.97662 18.736 6.1695 19.255C6.26784 19.5196 6.50682 19.9042 6.58165 19.9183C6.60458 19.9227 6.73402 19.7792 6.86934 19.5995C7.00462 19.4198 7.23253 19.1336 7.37578 18.9635C7.86668 18.3805 8.12535 17.9706 8.36856 17.3899C8.76223 16.4502 8.9181 15.4715 8.81093 14.6125C8.74601 14.0921 8.4507 13.4102 8.12307 13.0242C7.71499 12.5435 7.17227 12.2634 6.55586 12.2154C6.05562 12.1764 5.48242 12.3739 5.00937 12.7481ZM10.6245 16.0692C10.4652 16.233 10.3319 16.6021 10.3191 16.9149C10.2877 17.6809 10.7365 18.8218 11.4552 19.8032C11.7359 20.1866 12.4519 21.0138 12.5676 21.0884C12.631 21.1294 12.6312 20.9424 12.5687 19.9796C12.4436 18.0537 12.4161 17.8755 12.1259 17.1201C11.9009 16.5341 11.8596 16.4542 11.6824 16.2624C11.4359 15.9955 11.0522 15.8119 10.882 15.8795C10.8167 15.9054 10.7008 15.9908 10.6245 16.0692ZM15.452 25.746C15.0465 25.9638 14.5401 26.3282 14.1926 26.6523C13.9192 26.9073 13.9197 26.9145 14.211 26.8959C14.5965 26.8713 15.774 26.8746 16.3201 26.9018C17.5016 26.9608 18.139 27.111 19.2006 27.5805C19.9134 27.8957 20.0379 27.9944 19.8537 28.0982C19.8077 28.1241 19.5733 28.1264 19.333 28.1032C18.3271 28.0061 17.3206 28.0773 16.5365 28.3012C16.2908 28.3713 16.086 28.4367 16.0812 28.4465C16.0765 28.4563 16.2397 28.491 16.444 28.5234C16.6483 28.5558 17.1131 28.6326 17.477 28.694C21.4296 29.3611 22.8618 29.2214 23.1349 28.1425C23.2497 27.6891 23.2166 27.3048 23.0198 26.8071C22.8895 26.4778 22.8166 26.3494 22.6677 26.1868C21.9078 25.3572 20.3367 24.8406 18.7919 24.9124C17.6346 24.9661 16.2695 25.3068 15.452 25.746ZM28.1578 30.7865C27.6945 31.1071 27.3915 31.6308 27.5029 31.9181C27.5894 32.1408 27.7465 32.2543 27.9973 32.2753C28.5263 32.3196 29.1104 32.1482 29.754 31.76C30.1156 31.5418 31.0288 30.8965 31.4818 30.539C31.7956 30.2914 31.7965 30.2923 31.1764 30.2313C29.9448 30.1099 28.8423 30.3127 28.1578 30.7865ZM24.8456 40.1166C24.6215 40.2761 24.4641 40.6423 24.4599 41.0139C24.4572 41.2649 24.4807 41.3494 24.7274 41.9744C24.9564 42.5545 25.0461 42.733 25.3119 43.1366C25.7276 43.7678 26.3769 44.5509 26.9944 45.166C27.2704 45.4409 27.6197 45.7975 27.7706 45.9585L28.0449 46.2511L28.0953 46.1072C28.1757 45.8776 28.2559 45.2886 28.2587 44.9065C28.2627 44.3873 28.1857 43.5064 28.0987 43.0742C27.9039 42.1064 27.314 41.0446 26.6424 40.453C26.3188 40.1678 25.7755 39.9392 25.4224 39.9396C25.1227 39.9398 25.0722 39.9553 24.8456 40.1166Z" fill="#21242C" fill-opacity="0.3"/>
<path fill-rule="evenodd" clip-rule="evenodd" d="M10.659 4.84862C10.7815 4.90311 10.7826 4.9089 10.7695 5.41546C10.7545 5.99432 10.8145 7.08307 10.8849 7.51161C10.9661 8.00504 11.2205 8.74423 11.4298 9.09478C11.5261 9.25584 11.6175 9.38273 11.633 9.3767C11.6485 9.37069 11.7548 9.1624 11.869 8.91392C12.094 8.42483 12.149 8.10884 12.108 7.53995C12.0759 7.09371 11.9147 6.33233 11.7332 5.7695C11.5593 5.23002 11.5468 5.08505 11.664 4.96439C11.794 4.8304 12.314 4.64805 12.6948 4.60291C13.1864 4.54458 13.6339 4.56991 14.529 4.70682C15.4774 4.8518 16.0438 4.86484 16.9769 4.76312C17.365 4.72077 17.7275 4.70355 17.7824 4.72481C18.0343 4.82217 17.9437 5.09936 17.4375 5.77973C17.004 6.36228 16.6724 6.88048 16.5433 7.17709C16.1674 8.0409 15.8783 9.68059 16.0117 10.1923C16.1252 10.6276 16.4468 10.6533 16.8249 10.2574C17.2421 9.82037 17.8909 8.41378 18.2226 7.2272C18.4473 6.42334 18.5603 6.22227 18.8092 6.18403C19.5885 6.06428 21.8857 7.73392 23.3603 9.49184C23.7698 9.97987 24.5482 11.1561 24.6706 11.4716C24.8134 11.8395 24.5948 11.921 23.6318 11.8588C22.7614 11.8026 21.5945 11.7818 21.0457 11.8127C20.3271 11.8532 19.9728 11.9228 19.4327 12.1297C18.8852 12.3394 18.6564 12.5066 18.4268 12.8647C18.1881 13.237 18.2378 13.8516 18.5274 14.1088C19.0928 14.6111 20.2478 14.3461 21.9199 13.3304C22.5461 12.9501 22.7241 12.8619 23.3958 12.5987C24.1144 12.3171 24.1746 12.3003 24.4154 12.3141C24.7511 12.3332 25.2495 12.5769 25.4767 12.833C25.9379 13.3526 26.1101 13.822 26.5871 15.8598C27.2886 18.8567 27.5495 19.6746 28.1386 20.7237C28.2978 21.0074 28.4284 21.2746 28.4287 21.3176C28.4295 21.4458 28.1967 21.502 27.369 21.5738C26.6309 21.6378 26.1422 21.7319 25.1201 22.0069C24.8833 22.0707 23.7996 22.4496 22.7121 22.8489C20.5845 23.6301 20.2837 23.7155 19.1777 23.8525C18.6983 23.9118 18.5493 23.8886 18.4949 23.7461C18.4166 23.5408 18.2921 22.4499 18.2396 21.5088C18.1397 19.7182 17.9596 18.6908 17.5691 17.6843C17.2793 16.9374 16.8871 16.3502 16.6177 16.2599C16.5008 16.2207 16.2731 16.3163 16.1502 16.4563C15.7246 16.9411 15.7686 18.3329 16.255 19.7731C16.462 20.3858 16.9986 21.5872 17.4857 22.5286C17.9099 23.3484 17.9886 23.5484 17.9073 23.5999C17.8727 23.6219 17.6701 23.6001 17.4571 23.5514C17.2442 23.5027 16.8618 23.4426 16.6073 23.4177C15.9311 23.3516 15.414 23.257 15.0767 23.1377C14.6893 23.0007 13.9949 22.6106 13.5769 22.2952C13.2524 22.0503 13.2456 22.0478 13.2669 22.179C13.2788 22.2527 13.3713 22.5327 13.4724 22.8012C13.6166 23.1843 13.6476 23.3087 13.6166 23.3798C13.5948 23.4297 13.5658 23.4748 13.5521 23.4801C13.5385 23.4854 13.1021 23.2915 12.5824 23.0492C11.6132 22.5973 10.6038 22.1916 9.29263 21.7269C8.31562 21.3807 7.57654 21.0483 7.18926 20.7807C6.99128 20.6439 6.86388 20.5828 6.84384 20.615C6.17528 21.6882 5.77098 22.7075 5.29088 24.5302C4.88903 26.056 4.19316 28.2077 3.78967 29.172C3.57584 29.683 3.42588 30.091 3.45633 30.0787C3.48682 30.0663 3.63121 29.9887 3.77715 29.9062C4.99548 29.2171 6.36618 28.788 7.94387 28.6017C10.132 28.3433 12.6779 28.3238 14.9357 28.5482L15.9004 28.6441L16.4876 28.4415C16.8106 28.33 17.2261 28.2149 17.4109 28.1857C17.8422 28.1175 18.7365 28.0793 19.2224 28.1083L19.6012 28.1308L19.3396 28.0083C18.1928 27.4708 17.074 27.3102 14.7861 27.3547C14.3731 27.3627 13.9996 27.3534 13.9559 27.334C13.8064 27.2674 13.8737 27.1441 14.2474 26.7992C15.3351 25.7956 16.3414 25.339 18.1086 25.0473C19.9249 24.7476 21.6971 25.118 22.7969 26.0273C23.0515 26.2378 23.4029 26.7121 23.5089 26.9885C23.6785 27.4304 23.7113 28.1773 23.5775 28.5473C23.4283 28.9596 23.2 29.1791 22.7273 29.3647C21.8705 29.7011 20.7023 29.6452 17.3888 29.1094C16.3173 28.9361 15.9073 28.8891 15.8064 28.9281C15.218 29.1551 14.0963 30.1666 13.6851 30.841C13.2066 31.6259 12.5804 33.6109 12.5017 34.5926C12.4405 35.3552 12.5643 36.35 12.8197 37.1488L12.9586 37.5833L13.1219 37.5884C13.2267 37.5917 13.433 37.5362 13.6985 37.4331C14.088 37.282 14.1264 37.2571 14.3638 37.0027C14.5024 36.8542 14.8476 36.42 15.1309 36.0379C15.7305 35.229 16.296 34.6112 17.0849 33.9032C18.1688 32.9304 18.7423 32.6237 19.4636 32.631C20.0356 32.6368 20.6108 32.852 20.956 33.1894C21.4628 33.6847 21.3777 34.5888 20.7708 35.1572C20.3219 35.5777 20.0196 35.712 18.5084 36.1623C16.7978 36.6719 15.47 37.5263 14.7361 38.5896C14.5037 38.9262 13.972 40.1313 13.6664 41.0139C13.4649 41.5957 13.1654 42.7865 13.215 42.8086C13.2264 42.8137 13.4951 42.5026 13.812 42.1173C14.6753 41.0678 14.9682 40.7573 15.5419 40.2839C16.8901 39.1713 18.2529 38.4667 19.2774 38.3525C20.3338 38.2348 21.2958 38.6674 21.5818 39.3888C21.702 39.6922 21.6956 39.856 21.5515 40.1645C21.4343 40.4154 21.2605 40.6173 20.9822 40.8255C20.4978 41.188 19.9311 41.3807 17.9792 41.8464C16.3254 42.2409 15.5695 42.5428 14.6848 43.162C14.2133 43.492 14.2273 43.4652 14.3208 43.8575C14.5387 44.7721 14.7521 45.259 15.3147 46.1255C15.7113 46.7363 15.9227 46.9782 16.7086 47.7216C17.5289 48.4975 17.8141 48.8081 18.1617 49.304C18.5449 49.8506 18.8259 50.3614 19.2364 51.2579C19.5498 51.9422 19.6257 52.1461 19.7899 52.7447C20.0577 53.721 20.0189 53.6536 20.2415 53.5296C20.3436 53.4726 20.5768 53.3152 20.7597 53.1797C21.3679 52.7293 22.2141 52.1673 22.7417 51.8634C23.4147 51.476 24.0841 51.0038 24.6299 50.5315C24.8691 50.3245 25.3434 49.9463 25.6839 49.6909C27.0383 48.6751 27.6159 48.0509 28.0473 47.1366L28.2269 46.756L28.0492 46.5534C27.9514 46.442 27.615 46.0933 27.3018 45.7785C26.2585 44.7301 25.8363 44.2211 25.2848 43.3466C24.9101 42.7524 24.5265 41.7918 24.5044 41.3925C24.456 40.5154 24.9964 39.9122 25.77 39.9803C26.122 40.0112 26.6233 40.2133 26.9183 40.4432C27.4295 40.8417 28.0299 41.7039 28.3246 42.4629C28.7382 43.528 28.8487 45.3782 28.5596 46.3939L28.4756 46.6887L28.7914 47.1418C29.0395 47.4978 29.1245 47.5918 29.1881 47.5803C29.3493 47.5512 29.5852 47.2728 30.1344 46.4633C30.4422 46.0098 30.8989 45.3504 31.1494 44.9981C31.6441 44.3021 32.2368 43.2568 32.5591 42.5119C33.0033 41.4853 33.0576 40.5244 32.7205 39.6556C32.5453 39.2041 32.333 38.886 32.0163 38.6009C31.694 38.3108 31.4324 38.1911 30.6311 37.9672C28.8868 37.4797 28.1341 37.1557 27.116 36.4537C26.8982 36.3036 26.8671 36.267 26.8924 36.1906C26.9322 36.07 27.0233 36.0591 27.9427 36.0647C29.1934 36.0723 30.2908 36.2012 31.5477 36.4883C32.1868 36.6342 33.0457 36.9822 34.2332 37.5764C34.8031 37.8615 34.8947 37.8573 34.9646 37.5424C35.0391 37.2067 34.8577 34.904 34.6714 33.8215C34.6098 33.4635 34.5254 32.9466 34.484 32.6729C34.3828 32.0057 34.2365 31.4077 34.1412 31.2713C34.0326 31.1161 33.4609 30.8823 32.8357 30.7375L32.3131 30.6164L31.8746 30.9571C31.2029 31.4791 30.3185 32.0923 29.9153 32.3157C29.0573 32.7912 28.1667 32.895 27.7687 32.5658C27.4934 32.3381 27.4427 31.9785 27.6321 31.5984C28.1517 30.5562 29.8094 30.0357 31.7417 30.308L32.27 30.3825L32.5585 30.2067C32.7171 30.11 32.9444 29.9923 33.0633 29.9451C33.1823 29.8979 33.2753 29.8479 33.27 29.8342C33.2647 29.8204 33.0775 29.6505 32.8542 29.4567C32.0462 28.7556 31.1647 28.197 30.1625 27.7509C29.412 27.4168 28.9492 27.2829 28.3591 27.229C27.9056 27.1875 27.8767 27.191 27.4508 27.3393C26.7241 27.5923 26.1356 28.0556 25.7082 28.7114C25.2119 29.4731 24.6016 30.7988 24.4262 31.4963C24.2986 32.004 24.0335 34.5371 23.962 35.9324C23.9389 36.3843 23.8981 36.9928 23.8713 37.2847C23.8063 37.9952 23.7828 38.6838 23.7888 39.7067C23.7943 40.641 23.7525 41.2167 23.6262 41.9442C23.5162 42.5781 23.1912 43.9042 23.0116 44.4526C22.9325 44.694 22.8145 45.0836 22.7493 45.3183C22.4267 46.4809 21.7062 47.6777 20.9405 48.3228C20.7989 48.4421 20.6724 48.58 20.6594 48.6292C20.6319 48.7335 20.492 48.7513 20.4547 48.6553C20.4116 48.5441 20.5219 48.3706 20.7415 48.2042C21.5018 47.6281 22.2213 46.4067 22.6227 45.0106C22.7207 44.6696 22.8572 44.2072 22.926 43.9829C23.1016 43.4103 23.4138 41.9924 23.4966 41.3906C23.5661 40.8862 23.5744 40.6518 23.5771 39.1082C23.5779 38.6601 23.6196 37.7494 23.6697 37.0845C23.7198 36.4197 23.7639 35.7344 23.7677 35.5617C23.7757 35.1904 24.0667 32.2313 24.1343 31.8327C24.286 30.9393 24.9629 29.4119 25.6474 28.4186C26.1288 27.7201 27.1143 27.0899 27.8579 27.005C28.4738 26.9348 29.1358 27.0843 30.1547 27.5237C31.2758 28.0073 32.1436 28.5519 33.0477 29.3392C33.3659 29.6162 33.5354 29.7926 33.5391 29.8505C33.5436 29.9196 33.493 29.9653 33.308 30.0593C33.1777 30.1255 32.9639 30.2341 32.8328 30.3008C32.7017 30.3674 32.5998 30.4339 32.6063 30.4485C32.6129 30.4632 32.8021 30.517 33.0268 30.5682C33.8534 30.7567 34.2894 30.9897 34.4126 31.309C34.4861 31.4992 34.6529 32.2922 34.7206 32.7727C34.7452 32.9475 34.8195 33.4144 34.8857 33.8102C35.0176 34.5989 35.1034 35.4477 35.1731 36.6528C35.2364 37.7469 35.1448 38.0235 34.7227 38.013C34.6031 38.0099 33.401 37.4401 33.1059 37.2465C32.9451 37.1411 32.0765 36.8382 31.5857 36.7165C30.9625 36.562 30.1946 36.4324 29.4259 36.3522C28.7641 36.283 27.352 36.2525 27.3283 36.3068C27.3076 36.3543 27.977 36.7557 28.4866 37.0015C28.9794 37.2391 29.6693 37.4756 30.7538 37.7789C31.5405 37.9988 31.8648 38.1568 32.2104 38.4884C32.5829 38.8457 32.7466 39.1151 32.9517 39.7076C33.1118 40.1701 33.1364 40.2912 33.1458 40.664C33.1564 41.0828 33.101 41.5703 33.0004 41.9418C32.8009 42.6792 31.9455 44.2585 31.1017 45.4478C30.7545 45.937 30.3429 46.5325 30.1869 46.771C29.6768 47.5512 29.3045 47.8957 29.0698 47.8049C29.0052 47.7799 28.8523 47.6041 28.6738 47.3496L28.3829 46.9349L28.2645 47.1954C27.8428 48.1229 27.1189 48.9024 25.7147 49.9409C25.4178 50.1605 24.9745 50.5131 24.7296 50.7246C24.1711 51.2068 23.5055 51.6749 22.8045 52.0784C22.268 52.3873 21.6389 52.8048 20.9898 53.2826C20.5459 53.6094 20.1877 53.8235 20.0581 53.8395C19.8974 53.8593 19.8336 53.7281 19.6209 52.9396C19.2452 51.5472 18.3991 49.8617 17.612 48.9377C17.4619 48.7615 17.0161 48.3117 16.6212 47.938C15.7911 47.1524 15.5255 46.8481 15.1014 46.1966C14.599 45.4249 14.1518 44.356 14.1044 43.8139C14.0966 43.7249 14.0672 43.5928 14.0391 43.5202L13.9879 43.3885L14.4654 43.0561C15.1242 42.5975 15.3925 42.4537 16.112 42.1734C16.5437 42.0052 16.9872 41.8695 17.5575 41.7311C18.0099 41.6213 18.6246 41.472 18.9234 41.3994C19.2223 41.3268 19.7462 41.1604 20.0879 41.0296C20.6329 40.8209 20.737 40.7675 20.9375 40.5942C21.2613 40.3142 21.4186 40.0619 21.4399 39.7885C21.4563 39.5791 21.4453 39.5384 21.3156 39.3282C21.0558 38.907 20.5434 38.6282 19.9129 38.5648C19.4213 38.5155 19.1111 38.5628 18.4567 38.7869C17.7636 39.0244 17.255 39.2975 16.435 39.8727C15.4205 40.5842 14.9775 41.0262 13.6616 42.64C13.115 43.3104 12.964 43.4461 12.9123 43.313C12.8894 43.2538 13.0953 42.1574 13.2083 41.7375C13.471 40.7609 14.2255 38.9406 14.5698 38.4528C15.1233 37.6686 15.8519 37.0792 16.9588 36.5201C17.3398 36.3277 17.6116 36.2246 18.3062 36.0089C19.572 35.6158 20.2339 35.345 20.502 35.1103C21.0204 34.6565 21.194 34.1337 20.9953 33.6248C20.7891 33.0965 19.8245 32.731 19.043 32.885C18.5411 32.9839 17.9595 33.3816 16.9578 34.3111C16.3007 34.9209 15.844 35.4353 15.2586 36.2253C14.4536 37.3117 14.2351 37.5138 13.6637 37.7001C13.2301 37.8416 12.898 37.8349 12.7905 37.6826C12.669 37.5103 12.4062 36.5092 12.3368 35.9538C12.268 35.4044 12.2563 34.6852 12.3099 34.3078C12.4115 33.5913 12.9031 31.9455 13.2162 31.2733C13.619 30.4087 14.2385 29.6987 15.1384 29.0705L15.4939 28.8222L14.7032 28.7456C11.8483 28.4688 8.24594 28.6287 6.28711 29.119C5.45562 29.3271 3.88132 30.0137 3.36275 30.3944C3.30441 30.4372 3.08177 30.877 2.82689 31.4528C2.14479 32.994 1.17044 34.4977 0.258839 35.4161L0.07498 35.6013L0.0347555 35.4879C-0.00118053 35.3864 0.0331526 35.3319 0.357726 34.9745C1.1858 34.0627 1.95655 32.8583 2.5419 31.5614C2.75774 31.0833 2.91542 30.6929 2.8924 30.694C2.84909 30.696 0.956043 32.0278 0.519901 32.3632C0.38435 32.4673 0.0512347 32.7483 -0.220392 32.9874C-0.491977 33.2265 -0.725204 33.4265 -0.73868 33.4317C-0.752156 33.4369 -0.78038 33.3969 -0.801395 33.3427C-0.835785 33.2541 -0.790975 33.2014 -0.352218 32.815C0.310831 32.231 1.57449 31.2928 2.70322 30.5465L3.08171 30.2962L3.53284 29.2226C3.99977 28.1114 4.66347 26.0763 5.10392 24.4051C5.22281 23.954 5.39234 23.3525 5.48071 23.0683C5.68774 22.4025 6.1616 21.3321 6.47962 20.812C6.65106 20.5316 6.71431 20.3871 6.68172 20.3504C6.4569 20.0973 6.32242 19.8549 6.20073 19.4833C6.03164 18.9669 6.02036 18.6451 6.1465 17.9374C6.30396 17.0541 6.37829 16.4457 6.36461 16.1524C6.35764 16.0027 6.34081 15.8846 6.32726 15.8898C6.3137 15.8951 6.23476 15.9931 6.15181 16.1075C5.76423 16.6425 5.62738 17.509 5.76355 18.5658C5.86789 19.3759 5.84452 19.4515 5.52412 19.3407C5.12159 19.2015 4.59938 18.4568 4.22152 17.483C3.86414 16.5619 3.76917 15.9292 3.86041 15.0774C4.04555 13.3491 5.65005 11.9914 7.14533 12.2979C8.45042 12.5654 9.36082 13.9098 9.31234 15.4979C9.28705 16.3267 9.15244 16.9385 8.81848 17.7429C8.57678 18.325 8.26415 18.799 7.56035 19.6503C7.33587 19.9218 7.11975 20.2 7.08005 20.2686L7.00792 20.3932L7.28568 20.5895C7.64719 20.845 8.41485 21.189 9.41112 21.542C10.6934 21.9964 11.7844 22.4316 12.5987 22.8135L13.3573 23.1694L13.1872 22.6502C13.0937 22.3647 13.007 22.0586 12.9947 21.97C12.9757 21.8341 12.927 21.7635 12.6821 21.5166C10.99 19.811 10.1075 17.9457 10.4269 16.7501C10.5371 16.3379 10.7269 16.0892 11.0265 15.9645C11.2789 15.8595 11.4275 15.8827 11.7435 16.0761C12.056 16.2675 12.2985 16.5851 12.5266 17.1019C12.8336 17.7974 12.9137 18.3178 13.059 20.5581C13.1345 21.7219 13.109 21.6427 13.5142 21.9714C14.1761 22.5083 14.941 22.9122 15.5461 23.0443C15.753 23.0895 16.1709 23.1528 16.4749 23.1849C16.7788 23.2171 17.1687 23.2716 17.3411 23.306C17.5136 23.3405 17.6577 23.3618 17.6613 23.3534C17.665 23.345 17.5588 23.134 17.4253 22.8844C16.967 22.0273 16.5781 21.1787 16.2149 20.2436C15.8831 19.3893 15.843 19.2577 15.7585 18.7443C15.501 17.1796 15.6839 16.3351 16.336 16.0786C16.5909 15.9783 16.8003 16.05 17.0422 16.3204C17.8619 17.237 18.3228 18.9442 18.4597 21.5708C18.5126 22.5872 18.6494 23.6379 18.733 23.6713C18.8022 23.6991 19.6949 23.5709 20.1914 23.462C20.7896 23.3307 21.3097 23.1564 22.9483 22.5384C25.0805 21.7341 26.1244 21.4568 27.4108 21.3529C27.8294 21.3192 28.1716 21.2724 28.1714 21.249C28.1712 21.2257 28.0534 20.9993 27.9095 20.7461C27.3322 19.7299 26.9905 18.6207 26.2524 15.367C26.0197 14.3414 25.766 13.5946 25.5366 13.26C25.3174 12.9403 25.1946 12.8303 24.8872 12.6781C24.4368 12.4553 24.3535 12.4633 23.4558 12.8146C22.7928 13.0741 22.585 13.1748 22.1146 13.4643C21.3045 13.9629 20.7875 14.2237 20.3048 14.3772C19.1492 14.7449 18.4051 14.5703 18.1339 13.868C17.8811 13.2134 18.2166 12.5058 18.9825 12.0782C19.828 11.6062 21.2158 11.4811 23.7496 11.6485C24.0635 11.6692 24.3675 11.6679 24.425 11.6456C24.5166 11.6101 24.5216 11.5916 24.4653 11.4983C23.6746 10.1899 23.2529 9.62697 22.4847 8.8541C21.2182 7.57981 19.6961 6.50269 19.0353 6.41301C18.8131 6.38287 18.7928 6.38758 18.7082 6.48926C18.6585 6.54887 18.576 6.75332 18.5247 6.94362C18.306 7.75634 18.1968 8.08064 17.9395 8.68219C17.584 9.51321 17.2954 10.0483 17.0418 10.3463C16.8737 10.5439 16.7908 10.6055 16.5823 10.6877C16.3685 10.7721 16.3046 10.7785 16.1814 10.7283C15.9727 10.6432 15.8325 10.4355 15.7822 10.1371C15.6773 9.51407 15.9331 8.13079 16.3341 7.15266C16.5038 6.73879 16.7393 6.35955 17.2725 5.64186C17.6008 5.19993 17.7498 4.92695 17.6705 4.91291C17.6473 4.90882 17.3511 4.93656 17.0123 4.97462C15.9726 5.09144 15.496 5.07876 14.3956 4.90506C13.6911 4.79389 13.2056 4.76464 12.7785 4.80775C12.3782 4.84815 11.8195 5.03759 11.801 5.13918C11.7942 5.17629 11.846 5.39242 11.9161 5.61945C12.4023 7.19398 12.4561 8.12209 12.1067 8.90935C11.8314 9.52978 11.7568 9.64052 11.6199 9.63228C11.5246 9.62653 11.4716 9.56948 11.2842 9.27107C10.7758 8.46124 10.5254 7.20583 10.5499 5.5888C10.5537 5.3371 10.5455 5.12606 10.5315 5.11988C10.4874 5.10019 9.96981 5.47995 9.69725 5.73198C8.42068 6.91263 7.8973 7.93067 7.94302 9.14431C7.98312 10.2099 8.88082 11.1723 10.5265 11.914C11.2889 12.2577 12.5623 12.7241 14.4105 13.3367C16.0686 13.8862 17.2153 14.3333 18.3131 14.8582C20.9808 16.1338 22.6985 17.4671 23.7064 19.0447C24.0241 19.5419 24.1199 19.776 24.0136 19.7952C23.9564 19.8055 23.8965 19.7404 23.7756 19.5368C22.6771 17.6847 20.872 16.2657 17.8673 14.8919C16.7429 14.3778 15.9092 14.0599 14.1802 13.4858C10.7159 12.3355 9.5362 11.8009 8.67301 10.9905C8.20418 10.5502 8.02307 10.2824 7.85928 9.78725C7.49665 8.69102 7.85964 7.40031 8.83535 6.31653C9.46007 5.62266 9.77265 5.3469 10.4677 4.87661C10.5343 4.83156 10.5993 4.82203 10.659 4.84862ZM5.2626 13.0014C4.80661 13.362 4.56705 13.6785 4.31957 14.2471C4.06227 14.8384 3.99589 15.2939 4.06133 16.0196C4.14593 16.9577 4.6177 18.1161 5.20027 18.8161C5.3422 18.9866 5.58346 19.1702 5.604 19.1232C5.61046 19.1084 5.58523 18.8551 5.54785 18.5603C5.39224 17.3316 5.58378 16.4157 6.12971 15.778C6.29073 15.5899 6.32753 15.5652 6.4128 15.5884C6.50288 15.6128 6.5143 15.6365 6.55339 15.8799C6.60807 16.2203 6.55665 16.8771 6.41655 17.6274C6.22868 18.6335 6.22985 18.9893 6.42274 19.5083C6.52108 19.7729 6.76006 20.1575 6.83488 20.1716C6.85782 20.1759 6.98725 20.0325 7.12257 19.8528C7.25785 19.6731 7.48576 19.3869 7.62901 19.2168C8.11992 18.6338 8.37859 18.2239 8.6218 17.6432C9.01547 16.7034 9.17133 15.7248 9.06417 14.8658C8.99925 14.3454 8.70394 13.6635 8.37631 13.2775C7.96823 12.7968 7.4255 12.5167 6.8091 12.4687C6.30886 12.4297 5.73565 12.6272 5.2626 13.0014ZM10.8777 16.3225C10.7184 16.4862 10.5851 16.8554 10.5723 17.1682C10.541 17.9341 10.9897 19.0751 11.7084 20.0565C11.9891 20.4399 12.7051 21.2671 12.8208 21.3417C12.8843 21.3826 12.8845 21.1957 12.8219 20.2328C12.6969 18.307 12.6693 18.1288 12.3791 17.3734C12.1541 16.7874 12.1128 16.7075 11.9356 16.5157C11.6891 16.2488 11.3054 16.0652 11.1353 16.1328C11.0699 16.1587 10.9541 16.2441 10.8777 16.3225ZM15.7052 25.9993C15.2998 26.2171 14.7934 26.5815 14.4458 26.9056C14.1724 27.1606 14.173 27.1678 14.4642 27.1492C14.8498 27.1246 16.0272 27.1279 16.5733 27.1551C17.7548 27.2141 18.3922 27.3643 19.4539 27.8338C20.1667 28.149 20.2911 28.2477 20.107 28.3515C20.0609 28.3774 19.8266 28.3797 19.5862 28.3565C18.5803 28.2594 17.5739 28.3306 16.7897 28.5544C16.5441 28.6245 16.3392 28.6899 16.3345 28.6998C16.3297 28.7096 16.493 28.7442 16.6972 28.7767C16.9015 28.8091 17.3663 28.8859 17.7302 28.9473C21.6828 29.6143 23.115 29.4747 23.3881 28.3958C23.5029 27.9424 23.4698 27.5581 23.273 27.0604C23.1427 26.7311 23.0699 26.6027 22.9209 26.44C22.161 25.6105 20.5899 25.0939 19.0452 25.1656C17.8878 25.2194 16.5227 25.5601 15.7052 25.9993ZM28.411 31.0398C27.9477 31.3604 27.6447 31.8841 27.7562 32.1714C27.8426 32.3941 27.9997 32.5076 28.2505 32.5286C28.7796 32.5729 29.3636 32.4015 30.0072 32.0133C30.3689 31.7951 31.282 31.1498 31.735 30.7923C32.0488 30.5447 32.0497 30.5456 31.4297 30.4845C30.198 30.3632 29.0955 30.566 28.411 31.0398ZM25.0988 40.3699C24.8747 40.5294 24.7173 40.8956 24.7132 41.2672C24.7104 41.5182 24.7339 41.6027 24.9806 42.2277C25.2096 42.8078 25.2994 42.9863 25.5652 43.3899C25.9809 44.0211 26.6302 44.8042 27.2477 45.4193C27.5236 45.6942 27.8729 46.0508 28.0238 46.2118L28.2981 46.5044L28.3485 46.3605C28.4289 46.1309 28.5091 45.5419 28.512 45.1598C28.5159 44.6405 28.439 43.7597 28.352 43.3274C28.1572 42.3597 27.5672 41.2979 26.8956 40.7062C26.572 40.4211 26.0288 40.1925 25.6756 40.1929C25.376 40.1931 25.3255 40.2086 25.0988 40.3699Z" fill="#F64A25" fill-opacity="0.15"/>
</g>
<defs>
<clipPath id="clip0_14_64">
<rect width="39.7642" height="58" fill="white" transform="matrix(-1 0 0 1 39.8821 0)"/>
</clipPath>
</defs>
</svg>
