<svg width="40" height="58" viewBox="0 0 40 58" fill="none" xmlns="http://www.w3.org/2000/svg">
<g clip-path="url(#clip0_14_64)">
<rect width="39.7642" height="58" transform="translate(0.117859)" fill="white" fill-opacity="0.01"/>
<path fill-rule="evenodd" clip-rule="evenodd" d="M29.5942 4.59534C29.4717 4.64983 29.4706 4.65562 29.4837 5.16218C29.4987 5.74104 29.4387 6.82979 29.3682 7.25833C29.2871 7.75176 29.0327 8.49095 28.8233 8.8415C28.7271 9.00256 28.6357 9.12945 28.6202 9.12342C28.6047 9.11741 28.4984 8.90912 28.3841 8.66064C28.1592 8.17155 28.1042 7.85556 28.1452 7.28667C28.1773 6.84043 28.3385 6.07905 28.5199 5.51622C28.6938 4.97674 28.7063 4.83177 28.5892 4.71111C28.4591 4.57712 27.9392 4.39477 27.5584 4.34963C27.0668 4.2913 26.6193 4.31663 25.7242 4.45354C24.7758 4.59852 24.2093 4.61156 23.2763 4.50984C22.8882 4.46749 22.5257 4.45027 22.4707 4.47153C22.2189 4.56889 22.3095 4.84608 22.8157 5.52645C23.2492 6.109 23.5808 6.6272 23.7098 6.92381C24.0858 7.78762 24.3749 9.42731 24.2415 9.93901C24.128 10.3743 23.8064 10.4001 23.4283 10.0041C23.011 9.56709 22.3622 8.1605 22.0306 6.97392C21.8059 6.17006 21.6928 5.96898 21.4439 5.93075C20.6647 5.811 18.3674 7.48064 16.8928 9.23856C16.4834 9.72659 15.705 10.9028 15.5826 11.2183C15.4398 11.5862 15.6584 11.6677 16.6213 11.6055C17.4917 11.5493 18.6586 11.5286 19.2075 11.5595C19.926 11.5999 20.2804 11.6696 20.8205 11.8764C21.3679 12.0861 21.5968 12.2533 21.8263 12.6114C22.0651 12.9837 22.0154 13.5983 21.7258 13.8555C21.1603 14.3578 20.0054 14.0928 18.3332 13.0771C17.7071 12.6969 17.529 12.6086 16.8574 12.3454C16.1388 12.0639 16.0785 12.047 15.8378 12.0608C15.5021 12.0799 15.0037 12.3236 14.7764 12.5797C14.3153 13.0993 14.1431 13.5687 13.6661 15.6065C12.9646 18.6034 12.7037 19.4213 12.1146 20.4704C11.9553 20.7541 11.8248 21.0213 11.8245 21.0643C11.8237 21.1925 12.0565 21.2488 12.8842 21.3205C13.6223 21.3845 14.1109 21.4786 15.1331 21.7537C15.3699 21.8174 16.4535 22.1963 17.5411 22.5956C19.6687 23.3768 19.9695 23.4622 21.0755 23.5992C21.5549 23.6586 21.7039 23.6353 21.7583 23.4928C21.8366 23.2875 21.9611 22.1966 22.0136 21.2555C22.1134 19.4649 22.2936 18.4375 22.6841 17.431C22.9739 16.6841 23.3661 16.0969 23.6355 16.0066C23.7524 15.9674 23.98 16.0631 24.103 16.2031C24.5286 16.6878 24.4846 18.0796 23.9982 19.5198C23.7912 20.1325 23.2546 21.334 22.7675 22.2753C22.3432 23.0951 22.2645 23.2951 22.3458 23.3466C22.3805 23.3686 22.5831 23.3468 22.796 23.2981C23.009 23.2495 23.3914 23.1893 23.6459 23.1644C24.3221 23.0983 24.8392 23.0037 25.1765 22.8844C25.5639 22.7474 26.2583 22.3573 26.6763 22.0419C27.0008 21.797 27.0076 21.7945 26.9863 21.9257C26.9744 21.9995 26.8819 22.2794 26.7808 22.5479C26.6366 22.931 26.6056 23.0554 26.6366 23.1266C26.6584 23.1764 26.6874 23.2215 26.7011 23.2268C26.7147 23.2321 27.1511 23.0382 27.6708 22.7959C28.64 22.344 29.6494 21.9383 30.9605 21.4737C31.9376 21.1275 32.6766 20.795 33.0639 20.5274C33.2619 20.3906 33.3893 20.3295 33.4093 20.3617C34.0779 21.4349 34.4822 22.4542 34.9623 24.277C35.3641 25.8027 36.06 27.9544 36.4635 28.9187C36.6773 29.4297 36.8273 29.8378 36.7968 29.8254C36.7663 29.8131 36.622 29.7354 36.476 29.6529C35.2577 28.9638 33.887 28.5347 32.3093 28.3484C30.1212 28.09 27.5752 28.0705 25.3174 28.2949L24.3528 28.3908L23.7656 28.1882C23.4426 28.0767 23.0271 27.9617 22.8423 27.9324C22.411 27.8642 21.5167 27.826 21.0308 27.855L20.652 27.8775L20.9136 27.755C22.0604 27.2175 23.1792 27.0569 25.467 27.1014C25.88 27.1094 26.2536 27.1001 26.2972 27.0807C26.4467 27.0141 26.3795 26.8908 26.0057 26.5459C24.9181 25.5423 23.9118 25.0857 22.1445 24.7941C20.3283 24.4943 18.5561 24.8647 17.4563 25.774C17.2016 25.9845 16.8503 26.4588 16.7442 26.7352C16.5747 27.1771 16.5419 27.924 16.6757 28.294C16.8249 28.7064 17.0532 28.9258 17.5259 29.1114C18.3826 29.4478 19.5509 29.3919 22.8643 28.8561C23.9359 28.6828 24.3459 28.6359 24.4468 28.6748C25.0352 28.9018 26.1568 29.9133 26.568 30.5877C27.0466 31.3726 27.6728 33.3577 27.7515 34.3393C27.8126 35.1019 27.6889 36.0967 27.4335 36.8955L27.2946 37.33L27.1313 37.3351C27.0264 37.3384 26.8202 37.2829 26.5547 37.1798C26.1652 37.0287 26.1268 37.0038 25.8894 36.7495C25.7508 36.601 25.4056 36.1668 25.1223 35.7846C24.5227 34.9758 23.9571 34.358 23.1683 33.65C22.0843 32.6771 21.5109 32.3704 20.7895 32.3777C20.2176 32.3835 19.6424 32.5987 19.2971 32.9361C18.7904 33.4315 18.8755 34.3355 19.4824 34.904C19.9313 35.3245 20.2335 35.4587 21.7448 35.909C23.4553 36.4187 24.7832 37.2731 25.5171 38.3363C25.7495 38.6729 26.2812 39.8781 26.5868 40.7606C26.7883 41.3424 27.0877 42.5333 27.0381 42.5553C27.0267 42.5604 26.7581 42.2493 26.4412 41.864C25.5779 40.8146 25.285 40.504 24.7113 40.0307C23.3631 38.9181 22.0003 38.2134 20.9758 38.0993C19.9194 37.9815 18.9574 38.4141 18.6714 39.1356C18.5511 39.4389 18.5576 39.6027 18.7017 39.9112C18.8188 40.1622 18.9926 40.364 19.2709 40.5722C19.7553 40.9348 20.322 41.1274 22.274 41.5931C23.9278 41.9877 24.6837 42.2895 25.5684 42.9087C26.0399 43.2387 26.0258 43.2119 25.9324 43.6042C25.7145 44.5189 25.5011 45.0057 24.9384 45.8723C24.5418 46.483 24.3305 46.725 23.5446 47.4683C22.7243 48.2442 22.439 48.5548 22.0914 49.0507C21.7083 49.5973 21.4273 50.1082 21.0168 51.0046C20.7034 51.6889 20.6275 51.8929 20.4633 52.4914C20.1955 53.4677 20.2343 53.4003 20.0117 53.2763C19.9096 53.2193 19.6764 53.0619 19.4935 52.9265C18.8853 52.476 18.0391 51.914 17.5114 51.6102C16.8385 51.2227 16.1691 50.7505 15.6233 50.2782C15.3841 50.0712 14.9098 49.693 14.5693 49.4377C13.2149 48.4219 12.6373 47.7977 12.2058 46.8834L12.0262 46.5027L12.204 46.3001C12.3018 46.1887 12.6381 45.84 12.9514 45.5253C13.9947 44.4769 14.4169 43.9678 14.9684 43.0933C15.343 42.4991 15.7267 41.5386 15.7487 41.1392C15.7972 40.2621 15.2568 39.659 14.4832 39.727C14.1312 39.7579 13.6299 39.9601 13.3348 40.19C12.8236 40.5884 12.2232 41.4507 11.9286 42.2096C11.515 43.2747 11.4044 45.1249 11.6936 46.1406L11.7775 46.4354L11.4618 46.8885C11.2137 47.2445 11.1286 47.3385 11.0651 47.327C10.9039 47.2979 10.668 47.0195 10.1187 46.2101C9.81093 45.7565 9.35423 45.0971 9.10379 44.7448C8.60907 44.0488 8.0164 43.0036 7.69408 42.2587C7.24986 41.232 7.19554 40.2711 7.53267 39.4023C7.70786 38.9508 7.9202 38.6328 8.23692 38.3476C8.55913 38.0575 8.82074 37.9378 9.62203 37.7139C11.3664 37.2265 12.1191 36.9024 13.1371 36.2005C13.355 36.0503 13.386 36.0137 13.3608 35.9373C13.321 35.8167 13.2299 35.8058 12.3104 35.8114C11.0598 35.819 9.96236 35.9479 8.70552 36.235C8.06641 36.381 7.2075 36.729 6.02 37.3231C5.45005 37.6082 5.35849 37.604 5.2886 37.2892C5.21403 36.9534 5.39543 34.6507 5.58174 33.5682C5.64339 33.2102 5.72776 32.6933 5.76922 32.4196C5.8704 31.7524 6.01664 31.1544 6.11201 31.0181C6.22056 30.8628 6.79227 30.629 7.41748 30.4842L7.94002 30.3631L8.37853 30.7039C9.05028 31.2258 9.93463 31.839 10.3379 32.0624C11.1959 32.5379 12.0865 32.6417 12.4844 32.3125C12.7598 32.0848 12.8105 31.7252 12.621 31.3451C12.1015 30.3029 10.4437 29.7824 8.51151 30.0547L7.98322 30.1292L7.69472 29.9534C7.53604 29.8568 7.30882 29.739 7.18983 29.6918C7.07085 29.6446 6.97784 29.5947 6.98317 29.5809C6.98851 29.5671 7.17566 29.3973 7.39902 29.2034C8.20697 28.5023 9.0885 27.9437 10.0907 27.4976C10.8412 27.1635 11.304 27.0296 11.894 26.9757C12.3476 26.9342 12.3765 26.9378 12.8024 27.086C13.5291 27.339 14.1175 27.8023 14.5449 28.4582C15.0413 29.2199 15.6516 30.5455 15.8269 31.2431C15.9546 31.7507 16.2197 34.2838 16.2911 35.6791C16.3143 36.131 16.3551 36.7395 16.3818 37.0315C16.4469 37.7419 16.4703 38.4306 16.4643 39.4534C16.4589 40.3877 16.5007 40.9634 16.627 41.691C16.737 42.3248 17.0619 43.6509 17.2416 44.1993C17.3207 44.4408 17.4387 44.8303 17.5038 45.065C17.8265 46.2276 18.547 47.4245 19.3127 48.0695C19.4543 48.1888 19.5807 48.3267 19.5937 48.376C19.6212 48.4802 19.7612 48.498 19.7985 48.402C19.8416 48.2908 19.7313 48.1173 19.5116 47.9509C18.7514 47.3749 18.0319 46.1535 17.6305 44.7573C17.5325 44.4164 17.396 43.9539 17.3272 43.7296C17.1515 43.157 16.8394 41.7391 16.7565 41.1373C16.6871 40.6329 16.6788 40.3985 16.6761 38.8549C16.6753 38.4068 16.6336 37.4961 16.5835 36.8313C16.5333 36.1664 16.4893 35.4811 16.4855 35.3085C16.4775 34.9371 16.1865 31.978 16.1188 31.5795C15.9672 30.686 15.2903 29.1587 14.6058 28.1653C14.1244 27.4668 13.1389 26.8366 12.3952 26.7517C11.7794 26.6815 11.1174 26.831 10.0985 27.2704C8.97737 27.754 8.10958 28.2986 7.20543 29.0859C6.88729 29.363 6.7178 29.5393 6.71406 29.5972C6.70957 29.6663 6.76014 29.712 6.9452 29.806C7.07546 29.8722 7.28932 29.9809 7.42042 30.0475C7.55151 30.1141 7.65341 30.1806 7.64684 30.1952C7.6403 30.2099 7.45109 30.2637 7.22637 30.315C6.39973 30.5034 5.96381 30.7364 5.84053 31.0557C5.76707 31.2459 5.60023 32.0389 5.53257 32.5194C5.50795 32.6942 5.43365 33.1611 5.36749 33.5569C5.23562 34.3457 5.14981 35.1944 5.08009 36.3995C5.01675 37.4936 5.1084 37.7702 5.5305 37.7597C5.6501 37.7567 6.85221 37.1868 7.14723 36.9933C7.30806 36.8878 8.1767 36.5849 8.66752 36.4632C9.29068 36.3087 10.0586 36.1792 10.8272 36.0989C11.4891 36.0298 12.9011 35.9993 12.9249 36.0535C12.9456 36.101 12.2762 36.5025 11.7665 36.7482C11.2738 36.9858 10.5839 37.2223 9.4994 37.5256C8.71267 37.7456 8.38841 37.9035 8.04276 38.2352C7.67031 38.5925 7.50654 38.8618 7.30144 39.4544C7.14139 39.9169 7.11678 40.0379 7.10737 40.4107C7.09674 40.8295 7.15219 41.317 7.25278 41.6885C7.45232 42.4259 8.30765 44.0052 9.15149 45.1945C9.49863 45.6838 9.91027 46.2792 10.0662 46.5177C10.5764 47.2979 10.9486 47.6424 11.1834 47.5516C11.248 47.5267 11.4009 47.3508 11.5794 47.0963L11.8703 46.6816L11.9887 46.9422C12.4103 47.8696 13.1343 48.6491 14.5385 49.6876C14.8354 49.9072 15.2787 50.2599 15.5236 50.4713C16.0821 50.9535 16.7477 51.4216 17.4487 51.8252C17.9852 52.134 18.6143 52.5515 19.2633 53.0294C19.7072 53.3562 20.0654 53.5703 20.1951 53.5863C20.3558 53.606 20.4196 53.4748 20.6323 52.6863C21.008 51.2939 21.8541 49.6085 22.6412 48.6844C22.7913 48.5082 23.2371 48.0584 23.632 47.6847C24.4621 46.8992 24.7277 46.5948 25.1518 45.9434C25.6542 45.1716 26.1014 44.1027 26.1488 43.5606C26.1566 43.4716 26.186 43.3395 26.2141 43.267L26.2652 43.1352L25.7878 42.8028C25.129 42.3442 24.8606 42.2004 24.1411 41.9201C23.7095 41.7519 23.266 41.6162 22.6957 41.4778C22.2432 41.368 21.6285 41.2187 21.3297 41.1461C21.0309 41.0735 20.5069 40.9071 20.1653 40.7763C19.6203 40.5676 19.5161 40.5142 19.3156 40.3409C18.9919 40.0609 18.8346 39.8087 18.8133 39.5352C18.7969 39.3258 18.8079 39.2851 18.9375 39.075C19.1974 38.6538 19.7098 38.3749 20.3402 38.3116C20.8319 38.2622 21.1421 38.3095 21.7965 38.5337C22.4896 38.7711 22.9982 39.0443 23.8182 39.6194C24.8327 40.3309 25.2757 40.773 26.5915 42.3868C27.1382 43.0571 27.2892 43.1928 27.3409 43.0597C27.3638 43.0006 27.1578 41.9041 27.0449 41.4842C26.7822 40.5076 26.0277 38.6874 25.6834 38.1996C25.1299 37.4153 24.4013 36.8259 23.2943 36.2668C22.9134 36.0745 22.6415 35.9713 21.947 35.7556C20.6812 35.3625 20.0193 35.0917 19.7511 34.857C19.2328 34.4032 19.0592 33.8804 19.2578 33.3715C19.4641 32.8432 20.4287 32.4777 21.2102 32.6317C21.712 32.7306 22.2936 33.1283 23.2954 34.0578C23.9525 34.6676 24.4092 35.182 24.9946 35.9721C25.7995 37.0584 26.018 37.2605 26.5894 37.4469C27.023 37.5883 27.3552 37.5817 27.4626 37.4293C27.5842 37.2571 27.8469 36.2559 27.9164 35.7005C27.9851 35.1511 27.9969 34.4319 27.9433 34.0546C27.8416 33.338 27.3501 31.6922 27.0369 31.02C26.6342 30.1554 26.0146 29.4454 25.1148 28.8172L24.7593 28.569L25.55 28.4923C28.4049 28.2155 32.0072 28.3754 33.9661 28.8657C34.7976 29.0739 36.3719 29.7604 36.8904 30.1411C36.9488 30.1839 37.1714 30.6237 37.4263 31.1995C38.1084 32.7407 39.0827 34.2444 39.9943 35.1628L40.1782 35.3481L40.2184 35.2346C40.2544 35.1331 40.22 35.0786 39.8954 34.7212C39.0674 33.8094 38.2966 32.605 37.7113 31.3081C37.4954 30.83 37.3377 30.4396 37.3608 30.4407C37.4041 30.4427 39.2971 31.7745 39.7333 32.1099C39.8688 32.2141 40.2019 32.495 40.4736 32.7341C40.7452 32.9732 40.9784 33.1732 40.9919 33.1784C41.0053 33.1836 41.0336 33.1436 41.0546 33.0895C41.089 33.0008 41.0441 32.9481 40.6054 32.5617C39.9423 31.9778 38.6787 31.0395 37.55 30.2932L37.1715 30.0429L36.7203 28.9693C36.2534 27.8581 35.5897 25.823 35.1493 24.1518C35.0304 23.7007 34.8608 23.0992 34.7725 22.8151C34.5654 22.1492 34.0916 21.0788 33.7735 20.5587C33.6021 20.2783 33.5389 20.1338 33.5715 20.0971C33.7963 19.844 33.9308 19.6016 34.0524 19.23C34.2215 18.7136 34.2328 18.3918 34.1067 17.6841C33.9492 16.8008 33.8749 16.1924 33.8886 15.8992C33.8955 15.7494 33.9124 15.6313 33.9259 15.6366C33.9395 15.6418 34.0184 15.7398 34.1014 15.8543C34.4889 16.3893 34.6258 17.2557 34.4896 18.3125C34.3853 19.1226 34.4087 19.1982 34.7291 19.0874C35.1316 18.9483 35.6538 18.2035 36.0317 17.2297C36.389 16.3087 36.484 15.6759 36.3928 14.8241C36.2076 13.0958 34.6031 11.7381 33.1078 12.0446C31.8028 12.3121 30.8924 13.6565 30.9408 15.2446C30.9661 16.0734 31.1007 16.6853 31.4347 17.4896C31.6764 18.0717 31.989 18.5457 32.6928 19.397C32.9173 19.6685 33.1334 19.9467 33.1731 20.0153L33.2453 20.14L32.9675 20.3362C32.606 20.5917 31.8383 20.9357 30.8421 21.2887C29.5598 21.7431 28.4687 22.1783 27.6545 22.5603L26.8959 22.9161L27.066 22.3969C27.1595 22.1114 27.2462 21.8053 27.2585 21.7168C27.2775 21.5808 27.3261 21.5102 27.5711 21.2633C29.2631 19.5577 30.1457 17.6924 29.8263 16.4968C29.7161 16.0846 29.5263 15.8359 29.2267 15.7112C28.9743 15.6063 28.8257 15.6294 28.5097 15.8228C28.1972 16.0142 27.9546 16.3318 27.7266 16.8486C27.4196 17.5441 27.3395 18.0645 27.1941 20.3048C27.1186 21.4686 27.1442 21.3894 26.7389 21.7181C26.0771 22.255 25.3121 22.659 24.707 22.7911C24.5002 22.8362 24.0822 22.8995 23.7783 22.9316C23.4744 22.9639 23.0845 23.0184 22.912 23.0527C22.7396 23.0872 22.5955 23.1085 22.5918 23.1001C22.5882 23.0918 22.6944 22.8807 22.8278 22.6311C23.2862 21.774 23.6751 20.9254 24.0383 19.9904C24.3701 19.136 24.4102 19.0044 24.4947 18.491C24.7522 16.9263 24.5693 16.0819 23.9172 15.8253C23.6622 15.725 23.4529 15.7967 23.211 16.0671C22.3913 16.9837 21.9304 18.6909 21.7935 21.3176C21.7406 22.3339 21.6038 23.3846 21.5202 23.4181C21.451 23.4458 20.5583 23.3176 20.0618 23.2087C19.4636 23.0774 18.9434 22.9032 17.3049 22.2851C15.1726 21.4808 14.1288 21.2035 12.8423 21.0997C12.4238 21.0659 12.0815 21.0191 12.0817 20.9957C12.0819 20.9724 12.1998 20.7461 12.3436 20.4929C12.921 19.4766 13.2627 18.3674 14.0008 15.1138C14.2335 14.0881 14.4872 13.3413 14.7166 13.0067C14.9358 12.687 15.0586 12.577 15.366 12.4248C15.8163 12.202 15.8996 12.21 16.7974 12.5614C17.4604 12.8209 17.6681 12.9215 18.1386 13.211C18.9486 13.7096 19.4656 13.9704 19.9484 14.124C21.104 14.4916 21.8481 14.317 22.1193 13.6147C22.3721 12.9601 22.0366 12.2526 21.2706 11.8249C20.4252 11.3529 19.0374 11.2278 16.5036 11.3952C16.1897 11.416 15.8857 11.4147 15.8281 11.3923C15.7366 11.3568 15.7315 11.3383 15.7879 11.245C16.5786 9.93658 17.0003 9.37369 17.7684 8.60082C19.0349 7.32653 20.557 6.24941 21.2179 6.15973C21.44 6.12959 21.4603 6.1343 21.545 6.23598C21.5947 6.29559 21.6772 6.50004 21.7285 6.69034C21.9472 7.50306 22.0564 7.82736 22.3137 8.42891C22.6691 9.25993 22.9578 9.79506 23.2114 10.0931C23.3795 10.2906 23.4624 10.3522 23.6709 10.4344C23.8847 10.5188 23.9486 10.5252 24.0718 10.475C24.2804 10.3899 24.4207 10.1822 24.4709 9.88378C24.5759 9.26079 24.3201 7.87751 23.9191 6.89938C23.7494 6.48551 23.5138 6.10627 22.9807 5.38857C22.6524 4.94665 22.5033 4.67367 22.5827 4.65963C22.6059 4.65554 22.902 4.68328 23.2408 4.72134C24.2806 4.83816 24.7572 4.82548 25.8576 4.65178C26.5621 4.54061 27.0476 4.51136 27.4747 4.55447C27.8749 4.59487 28.4337 4.78431 28.4522 4.8859C28.4589 4.92301 28.4071 5.13914 28.337 5.36617C27.8508 6.9407 27.797 7.86881 28.1464 8.65607C28.4218 9.2765 28.4963 9.38724 28.6332 9.379C28.7285 9.37325 28.7816 9.3162 28.969 9.01779C29.4774 8.20796 29.7278 6.95255 29.7033 5.33552C29.6994 5.08382 29.7077 4.87278 29.7216 4.8666C29.7658 4.84691 30.2834 5.22667 30.5559 5.4787C31.8325 6.65934 32.3559 7.67739 32.3102 8.89103C32.27 9.9566 31.3723 10.919 29.7267 11.6608C28.9643 12.0044 27.6909 12.4708 25.8427 13.0834C24.1846 13.633 23.0379 14.08 21.94 14.605C19.2724 15.8805 17.5547 17.2139 16.5468 18.7914C16.229 19.2886 16.1333 19.5227 16.2396 19.5419C16.2968 19.5522 16.3567 19.4871 16.4775 19.2835C17.5761 17.4315 19.3812 16.0124 22.3858 14.6386C23.5102 14.1245 24.344 13.8066 26.0729 13.2325C29.5373 12.0822 30.717 11.5477 31.5802 10.7372C32.049 10.297 32.2301 10.0291 32.3939 9.53397C32.7565 8.43774 32.3935 7.14703 31.4178 6.06325C30.7931 5.36938 30.4805 5.09362 29.7855 4.62333C29.7189 4.57828 29.6539 4.56875 29.5942 4.59534ZM34.9906 12.7481C35.4466 13.1088 35.6861 13.4252 35.9336 13.9938C36.1909 14.5851 36.2573 15.0407 36.1918 15.7663C36.1072 16.7044 35.6355 17.8628 35.0529 18.5628C34.911 18.7333 34.6697 18.9169 34.6492 18.8699C34.6427 18.8551 34.6679 18.6018 34.7053 18.307C34.8609 17.0783 34.6694 16.1624 34.1235 15.5247C33.9624 15.3366 33.9256 15.312 33.8404 15.3351C33.7503 15.3595 33.7389 15.3832 33.6998 15.6266C33.6451 15.9671 33.6965 16.6238 33.8366 17.3741C34.0245 18.3802 34.0233 18.736 33.8304 19.255C33.7321 19.5196 33.4931 19.9042 33.4183 19.9183C33.3954 19.9227 33.2659 19.7792 33.1306 19.5995C32.9953 19.4198 32.7674 19.1336 32.6242 18.9635C32.1333 18.3805 31.8746 17.9706 31.6314 17.3899C31.2377 16.4502 31.0818 15.4715 31.189 14.6125C31.2539 14.0921 31.5492 13.4102 31.8769 13.0242C32.2849 12.5435 32.8277 12.2634 33.4441 12.2154C33.9443 12.1764 34.5175 12.3739 34.9906 12.7481ZM29.3755 16.0692C29.5347 16.233 29.6681 16.6021 29.6809 16.9149C29.7122 17.6809 29.2634 18.8218 28.5448 19.8032C28.264 20.1866 27.548 21.0138 27.4324 21.0884C27.3689 21.1294 27.3687 20.9424 27.4312 19.9796C27.5563 18.0537 27.5839 17.8755 27.874 17.1201C28.0991 16.5341 28.1404 16.4542 28.3176 16.2624C28.5641 15.9955 28.9477 15.8119 29.1179 15.8795C29.1832 15.9054 29.2991 15.9908 29.3755 16.0692ZM24.548 25.746C24.9534 25.9638 25.4598 26.3282 25.8074 26.6523C26.0808 26.9073 26.0802 26.9145 25.7889 26.8959C25.4034 26.8713 24.226 26.8746 23.6798 26.9018C22.4984 26.9608 21.861 27.111 20.7993 27.5805C20.0865 27.8957 19.962 27.9944 20.1462 28.0982C20.1923 28.1241 20.4266 28.1264 20.667 28.1032C21.6728 28.0061 22.6793 28.0773 23.4635 28.3012C23.7091 28.3713 23.914 28.4367 23.9187 28.4465C23.9234 28.4563 23.7602 28.491 23.5559 28.5234C23.3517 28.5558 22.8868 28.6326 22.523 28.694C18.5703 29.3611 17.1382 29.2214 16.865 28.1425C16.7502 27.6891 16.7834 27.3048 16.9802 26.8071C17.1104 26.4778 17.1833 26.3494 17.3323 26.1868C18.0921 25.3572 19.6632 24.8406 21.208 24.9124C22.3654 24.9661 23.7304 25.3068 24.548 25.746ZM11.8422 30.7865C12.3055 31.1071 12.6085 31.6308 12.497 31.9181C12.4106 32.1408 12.2535 32.2543 12.0027 32.2753C11.4736 32.3196 10.8896 32.1482 10.246 31.76C9.8843 31.5418 8.97116 30.8965 8.51813 30.539C8.20436 30.2914 8.20344 30.2923 8.8235 30.2313C10.0551 30.1099 11.1577 30.3127 11.8422 30.7865ZM15.1543 40.1166C15.3784 40.2761 15.5358 40.6423 15.54 41.0139C15.5428 41.2649 15.5193 41.3494 15.2725 41.9744C15.0436 42.5545 14.9538 42.733 14.688 43.1366C14.2723 43.7678 13.623 44.5509 13.0055 45.166C12.7295 45.4409 12.3803 45.7975 12.2294 45.9585L11.9551 46.2511L11.9046 46.1072C11.8243 45.8776 11.7441 45.2886 11.7412 44.9065C11.7373 44.3873 11.8142 43.5064 11.9012 43.0742C12.096 42.1064 12.6859 41.0446 13.3575 40.453C13.6812 40.1678 14.2244 39.9392 14.5775 39.9396C14.8772 39.9398 14.9277 39.9553 15.1543 40.1166Z" fill="#21242C" fill-opacity="0.3"/>
<path fill-rule="evenodd" clip-rule="evenodd" d="M29.341 4.84862C29.2185 4.90311 29.2173 4.9089 29.2304 5.41546C29.2454 5.99432 29.1855 7.08307 29.115 7.51161C29.0339 8.00504 28.7795 8.74423 28.5701 9.09478C28.4739 9.25584 28.3825 9.38273 28.3669 9.3767C28.3514 9.37069 28.2452 9.1624 28.1309 8.91392C27.9059 8.42483 27.851 8.10884 27.8919 7.53995C27.9241 7.09371 28.0852 6.33233 28.2667 5.7695C28.4406 5.23002 28.4531 5.08505 28.3359 4.96439C28.2059 4.8304 27.6859 4.64805 27.3052 4.60291C26.8135 4.54458 26.3661 4.56991 25.4709 4.70682C24.5225 4.8518 23.9561 4.86484 23.0231 4.76312C22.6349 4.72077 22.2724 4.70355 22.2175 4.72481C21.9656 4.82217 22.0563 5.09936 22.5625 5.77973C22.996 6.36228 23.3275 6.88048 23.4566 7.17709C23.8326 8.0409 24.1216 9.68059 23.9882 10.1923C23.8747 10.6276 23.5531 10.6533 23.1751 10.2574C22.7578 9.82037 22.109 8.41378 21.7773 7.2272C21.5527 6.42334 21.4396 6.22227 21.1907 6.18403C20.4114 6.06428 18.1142 7.73392 16.6396 9.49184C16.2302 9.97987 15.4518 11.1561 15.3293 11.4716C15.1866 11.8395 15.4052 11.921 16.3681 11.8588C17.2385 11.8026 18.4054 11.7818 18.9543 11.8127C19.6728 11.8532 20.0272 11.9228 20.5672 12.1297C21.1147 12.3394 21.3436 12.5066 21.5731 12.8647C21.8118 13.237 21.7621 13.8516 21.4725 14.1088C20.9071 14.6111 19.7521 14.3461 18.08 13.3304C17.4538 12.9501 17.2758 12.8619 16.6042 12.5987C15.8855 12.3171 15.8253 12.3003 15.5846 12.3141C15.2489 12.3332 14.7504 12.5769 14.5232 12.833C14.0621 13.3526 13.8899 13.822 13.4128 15.8598C12.7113 18.8567 12.4504 19.6746 11.8614 20.7237C11.7021 21.0074 11.5715 21.2746 11.5712 21.3176C11.5705 21.4458 11.8033 21.502 12.631 21.5738C13.3691 21.6378 13.8577 21.7319 14.8798 22.0069C15.1167 22.0707 16.2003 22.4496 17.2879 22.8489C19.4154 23.6301 19.7163 23.7155 20.8222 23.8525C21.3016 23.9118 21.4506 23.8886 21.505 23.7461C21.5834 23.5408 21.7079 22.4499 21.7603 21.5088C21.8602 19.7182 22.0403 18.6908 22.4308 17.6843C22.7206 16.9374 23.1129 16.3502 23.3822 16.2599C23.4992 16.2207 23.7268 16.3163 23.8497 16.4563C24.2754 16.9411 24.2314 18.3329 23.745 19.7731C23.538 20.3858 23.0014 21.5872 22.5143 22.5286C22.09 23.3484 22.0113 23.5484 22.0926 23.5999C22.1273 23.6219 22.3298 23.6001 22.5428 23.5514C22.7557 23.5027 23.1382 23.4426 23.3927 23.4177C24.0689 23.3516 24.586 23.257 24.9233 23.1377C25.3107 23.0007 26.0051 22.6106 26.423 22.2952C26.7475 22.0503 26.7543 22.0478 26.733 22.179C26.7211 22.2527 26.6287 22.5327 26.5276 22.8012C26.3833 23.1843 26.3523 23.3087 26.3834 23.3798C26.4052 23.4297 26.4341 23.4748 26.4478 23.4801C26.4615 23.4854 26.8979 23.2915 27.4176 23.0492C28.3867 22.5973 29.3962 22.1916 30.7073 21.7269C31.6843 21.3807 32.4234 21.0483 32.8107 20.7807C33.0087 20.6439 33.1361 20.5828 33.1561 20.615C33.8247 21.6882 34.229 22.7075 34.7091 24.5302C35.1109 26.056 35.8068 28.2077 36.2103 29.172C36.4241 29.683 36.5741 30.091 36.5436 30.0787C36.5131 30.0663 36.3687 29.9887 36.2228 29.9062C35.0045 29.2171 33.6338 28.788 32.0561 28.6017C29.8679 28.3433 27.322 28.3238 25.0642 28.5482L24.0996 28.6441L23.5123 28.4415C23.1894 28.33 22.7739 28.2149 22.589 28.1857C22.1578 28.1175 21.2635 28.0793 20.7776 28.1083L20.3987 28.1308L20.6603 28.0083C21.8072 27.4708 22.926 27.3102 25.2138 27.3547C25.6268 27.3627 26.0004 27.3534 26.044 27.334C26.1935 27.2674 26.1263 27.1441 25.7525 26.7992C24.6648 25.7956 23.6585 25.339 21.8913 25.0473C20.0751 24.7476 18.3029 25.118 17.2031 26.0273C16.9484 26.2378 16.5971 26.7121 16.491 26.9885C16.3214 27.4304 16.2886 28.1773 16.4225 28.5473C16.5716 28.9596 16.7999 29.1791 17.2726 29.3647C18.1294 29.7011 19.2977 29.6452 22.6111 29.1094C23.6826 28.9361 24.0926 28.8891 24.1935 28.9281C24.7819 29.1551 25.9036 30.1666 26.3148 30.841C26.7933 31.6259 27.4195 33.6109 27.4983 34.5926C27.5594 35.3552 27.4357 36.35 27.1803 37.1488L27.0413 37.5833L26.8781 37.5884C26.7732 37.5917 26.5669 37.5362 26.3014 37.4331C25.9119 37.282 25.8735 37.2571 25.6361 37.0027C25.4976 36.8542 25.1524 36.42 24.8691 36.0379C24.2694 35.229 23.7039 34.6112 22.915 33.9032C21.8311 32.9304 21.2577 32.6237 20.5363 32.631C19.9643 32.6368 19.3891 32.852 19.0439 33.1894C18.5371 33.6847 18.6222 34.5888 19.2291 35.1572C19.678 35.5777 19.9803 35.712 21.4915 36.1623C23.2021 36.6719 24.53 37.5263 25.2639 38.5896C25.4962 38.9262 26.028 40.1313 26.3336 41.0139C26.535 41.5957 26.8345 42.7865 26.7849 42.8086C26.7735 42.8137 26.5049 42.5026 26.1879 42.1173C25.3247 41.0678 25.0317 40.7573 24.4581 40.2839C23.1099 39.1713 21.7471 38.4667 20.7225 38.3525C19.6662 38.2348 18.7042 38.6674 18.4182 39.3888C18.2979 39.6922 18.3043 39.856 18.4484 40.1645C18.5656 40.4154 18.7394 40.6173 19.0177 40.8255C19.5021 41.188 20.0688 41.3807 22.0207 41.8464C23.6746 42.2409 24.4304 42.5428 25.3151 43.162C25.7867 43.492 25.7726 43.4652 25.6791 43.8575C25.4612 44.7721 25.2479 45.259 24.6852 46.1255C24.2886 46.7363 24.0773 46.9782 23.2914 47.7216C22.4711 48.4975 22.1858 48.8081 21.8382 49.304C21.455 49.8506 21.1741 50.3614 20.7635 51.2579C20.4502 51.9422 20.3742 52.1461 20.2101 52.7447C19.9423 53.721 19.981 53.6536 19.7585 53.5296C19.6564 53.4726 19.4231 53.3152 19.2403 53.1797C18.6321 52.7293 17.7859 52.1673 17.2582 51.8634C16.5852 51.476 15.9159 51.0038 15.3701 50.5315C15.1308 50.3245 14.6565 49.9463 14.316 49.6909C12.9616 48.6751 12.384 48.0509 11.9526 47.1366L11.773 46.756L11.9508 46.5534C12.0486 46.442 12.3849 46.0933 12.6981 45.7785C13.7415 44.7301 14.1637 44.2211 14.7152 43.3466C15.0898 42.7524 15.4734 41.7918 15.4955 41.3925C15.544 40.5154 15.0035 39.9122 14.2299 39.9803C13.878 40.0112 13.3766 40.2133 13.0816 40.4432C12.5704 40.8417 11.97 41.7039 11.6753 42.4629C11.2618 43.528 11.1512 45.3782 11.4404 46.3939L11.5243 46.6887L11.2085 47.1418C10.9604 47.4978 10.8754 47.5918 10.8118 47.5803C10.6507 47.5512 10.4147 47.2728 9.8655 46.4633C9.5577 46.0098 9.10099 45.3504 8.85056 44.9981C8.35583 44.3021 7.76316 43.2568 7.44085 42.5119C6.99662 41.4853 6.94231 40.5244 7.27943 39.6556C7.45463 39.2041 7.66697 38.886 7.98369 38.6009C8.3059 38.3108 8.5675 38.1911 9.36879 37.9672C11.1132 37.4797 11.8659 37.1557 12.8839 36.4537C13.1017 36.3036 13.1328 36.267 13.1076 36.1906C13.0677 36.07 12.9767 36.0591 12.0572 36.0647C10.8066 36.0723 9.70912 36.2012 8.45228 36.4883C7.81317 36.6342 6.95426 36.9822 5.76676 37.5764C5.19682 37.8615 5.10525 37.8573 5.03536 37.5424C4.9608 37.2067 5.14219 34.904 5.32851 33.8215C5.39015 33.4635 5.47452 32.9466 5.51599 32.6729C5.61717 32.0057 5.76341 31.4077 5.85878 31.2713C5.96733 31.1161 6.53903 30.8823 7.16425 30.7375L7.68679 30.6164L8.1253 30.9571C8.79704 31.4791 9.68139 32.0923 10.0846 32.3157C10.9427 32.7912 11.8333 32.895 12.2312 32.5658C12.5065 32.3381 12.5573 31.9785 12.3678 31.5984C11.8483 30.5562 10.1905 30.0357 8.25827 30.308L7.72998 30.3825L7.44148 30.2067C7.28281 30.11 7.05558 29.9923 6.9366 29.9451C6.81761 29.8979 6.7246 29.8479 6.72993 29.8342C6.73528 29.8204 6.92243 29.6505 7.14578 29.4567C7.95374 28.7556 8.83526 28.197 9.83743 27.7509C10.588 27.4168 11.0508 27.2829 11.6408 27.229C12.0943 27.1875 12.1232 27.191 12.5492 27.3393C13.2759 27.5923 13.8643 28.0556 14.2917 28.7114C14.788 29.4731 15.3983 30.7988 15.5737 31.4963C15.7013 32.004 15.9664 34.5371 16.0379 35.9324C16.061 36.3843 16.1019 36.9928 16.1286 37.2847C16.1937 37.9952 16.2171 38.6838 16.2111 39.7067C16.2056 40.641 16.2474 41.2167 16.3737 41.9442C16.4838 42.5781 16.8087 43.9042 16.9884 44.4526C17.0675 44.694 17.1855 45.0836 17.2506 45.3183C17.5733 46.4809 18.2938 47.6777 19.0595 48.3228C19.201 48.4421 19.3275 48.58 19.3405 48.6292C19.368 48.7335 19.508 48.7513 19.5452 48.6553C19.5884 48.5441 19.478 48.3706 19.2584 48.2042C18.4981 47.6281 17.7786 46.4067 17.3773 45.0106C17.2793 44.6696 17.1428 44.2072 17.074 43.9829C16.8983 43.4103 16.5862 41.9924 16.5033 41.3906C16.4339 40.8862 16.4256 40.6518 16.4228 39.1082C16.422 38.6601 16.3803 37.7494 16.3302 37.0845C16.2801 36.4197 16.236 35.7344 16.2323 35.5617C16.2242 35.1904 15.9333 32.2313 15.8656 31.8327C15.714 30.9393 15.0371 29.4119 14.3525 28.4186C13.8712 27.7201 12.8856 27.0899 12.142 27.005C11.5262 26.9348 10.8641 27.0843 9.84524 27.5237C8.72414 28.0073 7.85635 28.5519 6.9522 29.3392C6.63406 29.6162 6.46456 29.7926 6.46082 29.8505C6.45633 29.9196 6.50691 29.9653 6.69196 30.0593C6.82222 30.1255 7.03608 30.2341 7.16718 30.3008C7.29828 30.3674 7.40018 30.4339 7.39361 30.4485C7.38706 30.4632 7.19785 30.517 6.97313 30.5682C6.14649 30.7567 5.71057 30.9897 5.5873 31.309C5.51383 31.4992 5.34699 32.2922 5.27933 32.7727C5.25472 32.9475 5.18042 33.4144 5.11425 33.8102C4.98239 34.5989 4.89658 35.4477 4.82686 36.6528C4.76352 37.7469 4.85516 38.0235 5.27727 38.013C5.39687 38.0099 6.59897 37.4401 6.89399 37.2465C7.05482 37.1411 7.92346 36.8382 8.41428 36.7165C9.03745 36.562 9.80536 36.4324 10.574 36.3522C11.2358 36.283 12.6479 36.2525 12.6717 36.3068C12.6924 36.3543 12.0229 36.7557 11.5133 37.0015C11.0205 37.2391 10.3307 37.4756 9.24616 37.7789C8.45943 37.9988 8.13517 38.1568 7.78952 38.4884C7.41707 38.8457 7.2533 39.1151 7.04821 39.7076C6.88815 40.1701 6.86355 40.2912 6.85413 40.664C6.84351 41.0828 6.89895 41.5703 6.99954 41.9418C7.19908 42.6792 8.05441 44.2585 8.89826 45.4478C9.24539 45.937 9.65704 46.5325 9.813 46.771C10.3232 47.5512 10.6954 47.8957 10.9302 47.8049C10.9947 47.7799 11.1477 47.6041 11.3262 47.3496L11.6171 46.9349L11.7355 47.1954C12.1571 48.1229 12.881 48.9024 14.2853 49.9409C14.5821 50.1605 15.0254 50.5131 15.2704 50.7246C15.8288 51.2068 16.4945 51.6749 17.1955 52.0784C17.732 52.3873 18.361 52.8048 19.0101 53.2826C19.454 53.6094 19.8122 53.8235 19.9418 53.8395C20.1026 53.8593 20.1663 53.7281 20.3791 52.9396C20.7548 51.5472 21.6009 49.8617 22.388 48.9377C22.5381 48.7615 22.9839 48.3117 23.3788 47.938C24.2088 47.1524 24.4745 46.8481 24.8986 46.1966C25.4009 45.4249 25.8482 44.356 25.8956 43.8139C25.9033 43.7249 25.9327 43.5928 25.9609 43.5202L26.012 43.3885L25.5346 43.0561C24.8758 42.5975 24.6074 42.4537 23.8879 42.1734C23.4562 42.0052 23.0127 41.8695 22.4425 41.7311C21.99 41.6213 21.3753 41.472 21.0765 41.3994C20.7777 41.3268 20.2537 41.1604 19.9121 41.0296C19.3671 40.8209 19.2629 40.7675 19.0624 40.5942C18.7387 40.3142 18.5814 40.0619 18.56 39.7885C18.5436 39.5791 18.5546 39.5384 18.6843 39.3282C18.9441 38.907 19.4566 38.6282 20.087 38.5648C20.5787 38.5155 20.8889 38.5628 21.5432 38.7869C22.2364 39.0244 22.745 39.2975 23.565 39.8727C24.5794 40.5842 25.0224 41.0262 26.3383 42.64C26.8849 43.3104 27.036 43.4461 27.0876 43.313C27.1106 43.2538 26.9046 42.1574 26.7916 41.7375C26.529 40.7609 25.7745 38.9406 25.4302 38.4528C24.8767 37.6686 24.148 37.0792 23.0411 36.5201C22.6601 36.3277 22.3883 36.2246 21.6937 36.0089C20.4279 35.6158 19.766 35.345 19.4979 35.1103C18.9795 34.6565 18.8059 34.1337 19.0046 33.6248C19.2108 33.0965 20.1754 32.731 20.9569 32.885C21.4588 32.9839 22.0404 33.3816 23.0421 34.3111C23.6993 34.9209 24.1559 35.4353 24.7414 36.2253C25.5463 37.3117 25.7648 37.5138 26.3362 37.7001C26.7698 37.8416 27.102 37.8349 27.2094 37.6826C27.3309 37.5103 27.5937 36.5092 27.6632 35.9538C27.7319 35.4044 27.7436 34.6852 27.6901 34.3078C27.5884 33.5913 27.0968 31.9455 26.7837 31.2733C26.381 30.4087 25.7614 29.6987 24.8616 29.0705L24.5061 28.8222L25.2968 28.7456C28.1516 28.4688 31.754 28.6287 33.7128 29.119C34.5443 29.3271 36.1186 30.0137 36.6372 30.3944C36.6955 30.4372 36.9182 30.877 37.173 31.4528C37.8551 32.994 38.8295 34.4977 39.7411 35.4161L39.925 35.6013L39.9652 35.4879C40.0011 35.3864 39.9668 35.3319 39.6422 34.9745C38.8141 34.0627 38.0434 32.8583 37.458 31.5614C37.2422 31.0833 37.0845 30.6929 37.1075 30.694C37.1509 30.696 39.0439 32.0278 39.48 32.3632C39.6156 32.4673 39.9487 32.7483 40.2203 32.9874C40.4919 33.2265 40.7251 33.4265 40.7386 33.4317C40.7521 33.4369 40.7803 33.3969 40.8013 33.3427C40.8357 33.2541 40.7909 33.2014 40.3522 32.815C39.6891 32.231 38.4254 31.2928 37.2967 30.5465L36.9182 30.2962L36.4671 29.2226C36.0002 28.1114 35.3365 26.0763 34.896 24.4051C34.7771 23.954 34.6076 23.3525 34.5192 23.0683C34.3122 22.4025 33.8383 21.3321 33.5203 20.812C33.3489 20.5316 33.2856 20.3871 33.3182 20.3504C33.543 20.0973 33.6775 19.8549 33.7992 19.4833C33.9683 18.9669 33.9796 18.6451 33.8534 17.9374C33.696 17.0541 33.6217 16.4457 33.6353 16.1524C33.6423 16.0027 33.6591 15.8846 33.6727 15.8898C33.6862 15.8951 33.7652 15.9931 33.8481 16.1075C34.2357 16.6425 34.3726 17.509 34.2364 18.5658C34.1321 19.3759 34.1554 19.4515 34.4758 19.3407C34.8783 19.2015 35.4006 18.4568 35.7784 17.483C36.1358 16.5619 36.2308 15.9292 36.1395 15.0774C35.9544 13.3491 34.3499 11.9914 32.8546 12.2979C31.5495 12.5654 30.6391 13.9098 30.6876 15.4979C30.7129 16.3267 30.8475 16.9385 31.1815 17.7429C31.4232 18.325 31.7358 18.799 32.4396 19.6503C32.6641 19.9218 32.8802 20.2 32.9199 20.2686L32.992 20.3932L32.7143 20.5895C32.3527 20.845 31.5851 21.189 30.5888 21.542C29.3065 21.9964 28.2155 22.4316 27.4012 22.8135L26.6426 23.1694L26.8127 22.6502C26.9063 22.3647 26.9929 22.0586 27.0053 21.97C27.0242 21.8341 27.0729 21.7635 27.3179 21.5166C29.0099 19.811 29.8924 17.9457 29.573 16.7501C29.4629 16.3379 29.2731 16.0892 28.9735 15.9645C28.721 15.8595 28.5724 15.8827 28.2565 16.0761C27.944 16.2675 27.7014 16.5851 27.4734 17.1019C27.1664 17.7974 27.0862 18.3178 26.9409 20.5581C26.8654 21.7219 26.8909 21.6427 26.4857 21.9714C25.8238 22.5083 25.0589 22.9122 24.4538 23.0443C24.2469 23.0895 23.829 23.1528 23.5251 23.1849C23.2211 23.2171 22.8313 23.2716 22.6588 23.306C22.4864 23.3405 22.3423 23.3618 22.3386 23.3534C22.335 23.345 22.4412 23.134 22.5746 22.8844C23.0329 22.0273 23.4219 21.1787 23.785 20.2436C24.1169 19.3893 24.1569 19.2577 24.2414 18.7443C24.499 17.1796 24.3161 16.3351 23.664 16.0786C23.409 15.9783 23.1996 16.05 22.9578 16.3204C22.1381 17.237 21.6772 18.9442 21.5403 21.5708C21.4873 22.5872 21.3506 23.6379 21.2669 23.6713C21.1978 23.6991 20.3051 23.5709 19.8085 23.462C19.2104 23.3307 18.6902 23.1564 17.0517 22.5384C14.9194 21.7341 13.8756 21.4568 12.5891 21.3529C12.1706 21.3192 11.8283 21.2724 11.8285 21.249C11.8287 21.2257 11.9465 20.9993 12.0904 20.7461C12.6677 19.7299 13.0094 18.6207 13.7476 15.367C13.9803 14.3414 14.234 13.5946 14.4634 13.26C14.6826 12.9403 14.8053 12.8303 15.1128 12.6781C15.5631 12.4553 15.6464 12.4633 16.5442 12.8146C17.2072 13.0741 17.4149 13.1748 17.8854 13.4643C18.6954 13.9629 19.2124 14.2237 19.6952 14.3772C20.8508 14.7449 21.5949 14.5703 21.8661 13.868C22.1188 13.2134 21.7833 12.5058 21.0174 12.0782C20.1719 11.6062 18.7841 11.4811 16.2503 11.6485C15.9364 11.6692 15.6325 11.6679 15.5749 11.6456C15.4834 11.6101 15.4783 11.5916 15.5347 11.4983C16.3254 10.1899 16.747 9.62697 17.5152 8.8541C18.7817 7.57981 20.3038 6.50269 20.9646 6.41301C21.1868 6.38287 21.2071 6.38758 21.2918 6.48926C21.3415 6.54887 21.424 6.75332 21.4752 6.94362C21.694 7.75634 21.8032 8.08064 22.0605 8.68219C22.4159 9.51321 22.7045 10.0483 22.9582 10.3463C23.1263 10.5439 23.2091 10.6055 23.4176 10.6877C23.6314 10.7721 23.6953 10.7785 23.8186 10.7283C24.0272 10.6432 24.1675 10.4355 24.2177 10.1371C24.3227 9.51407 24.0668 8.13079 23.6658 7.15266C23.4961 6.73879 23.2606 6.35955 22.7275 5.64186C22.3992 5.19993 22.2501 4.92695 22.3295 4.91291C22.3526 4.90882 22.6488 4.93656 22.9876 4.97462C24.0273 5.09144 24.5039 5.07876 25.6044 4.90506C26.3088 4.79389 26.7944 4.76464 27.2215 4.80775C27.6217 4.84815 28.1804 5.03759 28.1989 5.13918C28.2057 5.17629 28.1539 5.39242 28.0838 5.61945C27.5976 7.19398 27.5438 8.12209 27.8932 8.90935C28.1686 9.52978 28.2431 9.64052 28.38 9.63228C28.4753 9.62653 28.5284 9.56948 28.7157 9.27107C29.2242 8.46124 29.4746 7.20583 29.45 5.5888C29.4462 5.3371 29.4545 5.12606 29.4684 5.11988C29.5126 5.10019 30.0301 5.47995 30.3027 5.73198C31.5793 6.91263 32.1026 7.93067 32.0569 9.14431C32.0168 10.2099 31.1191 11.1723 29.4734 11.914C28.711 12.2577 27.4377 12.7241 25.5894 13.3367C23.9313 13.8862 22.7847 14.3333 21.6868 14.8582C19.0191 16.1338 17.3015 17.4671 16.2935 19.0447C15.9758 19.5419 15.88 19.776 15.9863 19.7952C16.0436 19.8055 16.1035 19.7404 16.2243 19.5368C17.3228 17.6847 19.1279 16.2657 22.1326 14.8919C23.257 14.3778 24.0907 14.0599 25.8197 13.4858C29.284 12.3355 30.4637 11.8009 31.3269 10.9905C31.7958 10.5502 31.9769 10.2824 32.1407 9.78725C32.5033 8.69102 32.1403 7.40031 31.1646 6.31653C30.5399 5.62266 30.2273 5.3469 29.5322 4.87661C29.4656 4.83156 29.4007 4.82203 29.341 4.84862ZM34.7373 13.0014C35.1933 13.362 35.4329 13.6785 35.6804 14.2471C35.9377 14.8384 36.004 15.2939 35.9386 16.0196C35.854 16.9577 35.3822 18.1161 34.7997 18.8161C34.6577 18.9866 34.4165 19.1702 34.3959 19.1232C34.3895 19.1084 34.4147 18.8551 34.4521 18.5603C34.6077 17.3316 34.4162 16.4157 33.8702 15.778C33.7092 15.5899 33.6724 15.5652 33.5871 15.5884C33.4971 15.6128 33.4856 15.6365 33.4465 15.8799C33.3919 16.2203 33.4433 16.8771 33.5834 17.6274C33.7713 18.6335 33.7701 18.9893 33.5772 19.5083C33.4789 19.7729 33.2399 20.1575 33.1651 20.1716C33.1421 20.1759 33.0127 20.0325 32.8774 19.8528C32.7421 19.6731 32.5142 19.3869 32.3709 19.2168C31.88 18.6338 31.6214 18.2239 31.3781 17.6432C30.9845 16.7034 30.8286 15.7248 30.9358 14.8658C31.0007 14.3454 31.296 13.6635 31.6236 13.2775C32.0317 12.7968 32.5744 12.5167 33.1908 12.4687C33.6911 12.4297 34.2643 12.6272 34.7373 13.0014ZM29.1222 16.3225C29.2815 16.4862 29.4148 16.8554 29.4276 17.1682C29.459 17.9341 29.0102 19.0751 28.2915 20.0565C28.0108 20.4399 27.2948 21.2671 27.1791 21.3417C27.1157 21.3826 27.1155 21.1957 27.178 20.2328C27.3031 18.307 27.3306 18.1288 27.6208 17.3734C27.8458 16.7874 27.8872 16.7075 28.0643 16.5157C28.3108 16.2488 28.6945 16.0652 28.8647 16.1328C28.93 16.1587 29.0459 16.2441 29.1222 16.3225ZM24.2947 25.9993C24.7002 26.2171 25.2066 26.5815 25.5541 26.9056C25.8275 27.1606 25.827 27.1678 25.5357 27.1492C25.1502 27.1246 23.9727 27.1279 23.4266 27.1551C22.2451 27.2141 21.6077 27.3643 20.5461 27.8338C19.8333 28.149 19.7088 28.2477 19.893 28.3515C19.939 28.3774 20.1734 28.3797 20.4137 28.3565C21.4196 28.2594 22.4261 28.3306 23.2103 28.5544C23.4559 28.6245 23.6607 28.6899 23.6655 28.6998C23.6702 28.7096 23.507 28.7442 23.3027 28.7767C23.0984 28.8091 22.6336 28.8859 22.2697 28.9473C18.3171 29.6143 16.885 29.4747 16.6118 28.3958C16.497 27.9424 16.5301 27.5581 16.727 27.0604C16.8572 26.7311 16.9301 26.6027 17.079 26.44C17.8389 25.6105 19.41 25.0939 20.9548 25.1656C22.1121 25.2194 23.4772 25.5601 24.2947 25.9993ZM11.5889 31.0398C12.0522 31.3604 12.3552 31.8841 12.2438 32.1714C12.1573 32.3941 12.0002 32.5076 11.7494 32.5286C11.2204 32.5729 10.6363 32.4015 9.99275 32.0133C9.63107 31.7951 8.71792 31.1498 8.26489 30.7923C7.95112 30.5447 7.95021 30.5456 8.57026 30.4845C9.8019 30.3632 10.9044 30.566 11.5889 31.0398ZM14.9011 40.3699C15.1252 40.5294 15.2826 40.8956 15.2868 41.2672C15.2895 41.5182 15.266 41.6027 15.0193 42.2277C14.7903 42.8078 14.7006 42.9863 14.4348 43.3899C14.0191 44.0211 13.3698 44.8042 12.7523 45.4193C12.4763 45.6942 12.127 46.0508 11.9761 46.2118L11.7018 46.5044L11.6514 46.3605C11.571 46.1309 11.4908 45.5419 11.488 45.1598C11.484 44.6405 11.561 43.7597 11.648 43.3274C11.8428 42.3597 12.4327 41.2979 13.1043 40.7062C13.4279 40.4211 13.9712 40.1925 14.3243 40.1929C14.624 40.1931 14.6745 40.2086 14.9011 40.3699Z" fill="#F64A25" fill-opacity="0.15"/>
</g>
<defs>
<clipPath id="clip0_14_64">
<rect width="39.7642" height="58" fill="white" transform="translate(0.117859)"/>
</clipPath>
</defs>
</svg>
