<svg width="425" height="856" viewBox="0 0 425 856" fill="none" xmlns="http://www.w3.org/2000/svg">
<rect x="14" y="11" width="397" height="834" rx="51" stroke="#AFAFAF" stroke-width="22"/>
<path d="M422 195H423.5C424.328 195 425 195.672 425 196.5V289.5C425 290.328 424.328 291 423.5 291H422V195Z" fill="#AFAFAF"/>
<path d="M3 176H1.5C0.671573 176 0 176.672 0 177.5V232.5C0 233.328 0.671573 234 1.5 234H3V176Z" fill="#AFAFAF"/>
<path d="M3 253H1.5C0.671573 253 0 253.672 0 254.5V309.5C0 310.328 0.671573 311 1.5 311H3V253Z" fill="#AFAFAF"/>
<path d="M3 115H1.5C0.671573 115 0 115.672 0 116.5V142.5C0 143.328 0.671573 144 1.5 144H3V115Z" fill="#AFAFAF"/>
<mask id="path-7-inside-1_164_52" fill="white">
<path fill-rule="evenodd" clip-rule="evenodd" d="M107.469 22C110.571 22 113.673 25.0926 113.693 28.1948V35.6057C113.693 43.56 120.141 50.0083 128.095 50.0083H296.904C304.859 50.0083 311.307 43.56 311.307 35.6057V22H113.693H113.693H107.469ZM311.307 27.4461C311.307 24.334 313.641 22 316.753 22H311.307V27.4461Z"/>
</mask>
<path d="M113.693 28.1948H114.193L114.193 28.1917L113.693 28.1948ZM311.307 22H311.807V21.5H311.307V22ZM311.307 22V21.5H310.807V22H311.307ZM114.193 28.1917C114.182 26.4791 113.326 24.8106 112.09 23.5798C110.854 22.349 109.182 21.5 107.469 21.5V22.5C108.858 22.5 110.289 23.1973 111.384 24.2884C112.48 25.3794 113.184 26.8083 113.193 28.1979L114.193 28.1917ZM114.193 35.6057V28.1948H113.193V35.6057H114.193ZM128.095 49.5083C120.417 49.5083 114.193 43.2839 114.193 35.6057H113.193C113.193 43.8362 119.865 50.5083 128.095 50.5083V49.5083ZM296.904 49.5083H128.095V50.5083H296.904V49.5083ZM310.807 35.6057C310.807 43.2839 304.583 49.5083 296.904 49.5083V50.5083C305.135 50.5083 311.807 43.8362 311.807 35.6057H310.807ZM310.807 22V35.6057H311.807V22H310.807ZM113.693 22.5H311.307V21.5H113.693V22.5ZM113.693 22.5H113.693V21.5H113.693V22.5ZM107.469 22.5H113.693V21.5H107.469V22.5ZM316.753 21.5C313.365 21.5 310.807 24.0579 310.807 27.4461H311.807C311.807 24.6102 313.917 22.5 316.753 22.5V21.5ZM311.307 22.5H316.753V21.5H311.307V22.5ZM311.807 27.4461V22H310.807V27.4461H311.807Z" fill="#1E1E20" style="mix-blend-mode:overlay" mask="url(#path-7-inside-1_164_52)"/>
<path fill-rule="evenodd" clip-rule="evenodd" d="M107.469 22C110.575 22 113.682 25.1008 113.693 28.2072V35.6057C113.693 43.56 120.141 50.0083 128.096 50.0083H296.904C304.859 50.0083 311.307 43.56 311.307 35.6057V22H113.693H113.693H107.469ZM311.307 27.4461C311.307 24.334 313.641 22 316.753 22H311.307V27.4461Z" fill="#1E1E20"/>
<circle r="6" transform="matrix(-1 0 0 1 245 32)" fill="#333333"/>
<rect x="174" y="28" width="50" height="8" rx="4" fill="#333333"/>
<rect x="17" y="14" width="391" height="828" rx="48" stroke="#1E1E20" stroke-width="16"/>
</svg>
